<?xml version="1.0" encoding="UTF-8" standalone="no"?>
<!-- Created with Inkscape (http://www.inkscape.org/) -->

<svg
   width="50mm"
   height="50mm"
   viewBox="0 0 50 50"
   version="1.1"
   id="svg1"
   inkscape:version="1.3.2 (091e20ef0f, 2023-11-25, custom)"
   sodipodi:docname="site-icon.svg"
   xmlns:inkscape="http://www.inkscape.org/namespaces/inkscape"
   xmlns:sodipodi="http://sodipodi.sourceforge.net/DTD/sodipodi-0.dtd"
   xmlns="http://www.w3.org/2000/svg"
   xmlns:svg="http://www.w3.org/2000/svg">
  <sodipodi:namedview
     id="namedview1"
     pagecolor="#505050"
     bordercolor="#eeeeee"
     borderopacity="1"
     inkscape:showpageshadow="0"
     inkscape:pageopacity="0"
     inkscape:pagecheckerboard="0"
     inkscape:deskcolor="#505050"
     inkscape:document-units="mm"
     inkscape:zoom="1.4501208"
     inkscape:cx="149.6427"
     inkscape:cy="103.78445"
     inkscape:window-width="1920"
     inkscape:window-height="1000"
     inkscape:window-x="0"
     inkscape:window-y="0"
     inkscape:window-maximized="1"
     inkscape:current-layer="layer1" />
  <defs
     id="defs1">
    <inkscape:path-effect
       effect="spiro"
       id="path-effect1"
       is_visible="true"
       lpeversion="1" />
  </defs>
  <g
     inkscape:label="Layer 1"
     inkscape:groupmode="layer"
     id="layer1"
     transform="translate(-19.683226,-87.768471)">
    <rect
       style="fill:#303030;fill-opacity:1;stroke-width:0.212364"
       id="rect1"
       width="50"
       height="50"
       x="19.683226"
       y="87.768471"
       rx="7"
       ry="7" />
    <path
       style="fill:none;fill-opacity:1;stroke:#c0c0c0;stroke-width:4;stroke-dasharray:none;stroke-opacity:1"
       id="path1"
       sodipodi:type="arc"
       sodipodi:cx="39.12941"
       sodipodi:cy="-110.72497"
       sodipodi:rx="15.641942"
       sodipodi:ry="17.767683"
       sodipodi:start="0"
       sodipodi:end="3.1415927"
       sodipodi:open="true"
       sodipodi:arc-type="arc"
       d="m 54.771352,-110.72497 a 15.641942,17.767683 0 0 1 -7.820971,15.387267 15.641942,17.767683 0 0 1 -15.641943,0 15.641942,17.767683 0 0 1 -7.82097,-15.387267"
       transform="scale(1,-1)" />
    <path
       style="fill:none;fill-opacity:1;stroke:#c07040;stroke-width:4;stroke-dasharray:none;stroke-opacity:1"
       id="path1-6"
       sodipodi:type="arc"
       sodipodi:cx="-115.26263"
       sodipodi:cy="48.886799"
       sodipodi:rx="15.641942"
       sodipodi:ry="17.767683"
       sodipodi:start="0"
       sodipodi:end="3.1415927"
       sodipodi:open="true"
       sodipodi:arc-type="arc"
       d="m -99.620685,48.886799 a 15.641942,17.767683 0 0 1 -7.820975,15.387265 15.641942,17.767683 0 0 1 -15.64194,-10e-7 15.641942,17.767683 0 0 1 -7.82097,-15.387264"
       transform="matrix(-0.70710678,-0.70710678,-0.70710678,0.70710678,0,0)" />
    <path
       style="fill:none;fill-opacity:1;stroke:#3080c0;stroke-width:4;stroke-dasharray:none;stroke-opacity:1"
       id="path1-5"
       sodipodi:type="arc"
       sodipodi:cx="37.362297"
       sodipodi:cy="106.22062"
       sodipodi:rx="15.641942"
       sodipodi:ry="17.767683"
       sodipodi:start="0"
       sodipodi:end="3.1415927"
       sodipodi:open="true"
       sodipodi:arc-type="arc"
       d="m 53.004239,106.22062 a 15.641942,17.767683 0 0 1 -7.820971,15.38726 15.641942,17.767683 0 0 1 -15.641942,0 15.641942,17.767683 0 0 1 -7.820971,-15.38726"
       transform="matrix(-0.70710678,0.70710678,0.70710678,0.70710678,0,0)" />
  </g>
</svg>
