<?xml version="1.0" encoding="UTF-8" standalone="no"?>
<!-- Created with Inkscape (http://www.inkscape.org/) -->

<svg
   width="510.75024mm"
   height="346.20618mm"
   viewBox="0 0 510.75025 346.20617"
   version="1.1"
   id="svg1"
   xml:space="preserve"
   inkscape:version="1.4.2 (ebf0e940d0, 2025-05-08)"
   sodipodi:docname="blackbody.svg"
   xmlns:inkscape="http://www.inkscape.org/namespaces/inkscape"
   xmlns:sodipodi="http://sodipodi.sourceforge.net/DTD/sodipodi-0.dtd"
   xmlns="http://www.w3.org/2000/svg"
   xmlns:svg="http://www.w3.org/2000/svg"><sodipodi:namedview
     id="namedview1"
     pagecolor="#ffffff"
     bordercolor="#000000"
     borderopacity="0.25"
     inkscape:showpageshadow="2"
     inkscape:pageopacity="0.0"
     inkscape:pagecheckerboard="0"
     inkscape:deskcolor="#d1d1d1"
     inkscape:document-units="mm"
     inkscape:zoom="0.22037747"
     inkscape:cx="984.67414"
     inkscape:cy="682.91916"
     inkscape:window-width="1914"
     inkscape:window-height="1044"
     inkscape:window-x="0"
     inkscape:window-y="30"
     inkscape:window-maximized="1"
     inkscape:current-layer="layer1"
     showgrid="false" /><defs
     id="defs1"><marker
       style="overflow:visible"
       id="RoundedArrow"
       refX="0"
       refY="0"
       orient="auto-start-reverse"
       inkscape:stockid="Rounded arrow"
       markerWidth="0.5"
       markerHeight="0.5"
       viewBox="0 0 1 1"
       inkscape:isstock="true"
       inkscape:collect="always"
       preserveAspectRatio="xMidYMid"><path
         transform="scale(0.7)"
         d="m -0.21114562,-4.1055728 6.42229122,3.21114561 a 1,1 90 0 1 0,1.78885438 L -0.21114562,4.1055728 A 1.236068,1.236068 31.717474 0 1 -2,3 v -6 a 1.236068,1.236068 148.28253 0 1 1.78885438,-1.1055728 z"
         style="fill:context-stroke;fill-rule:evenodd;stroke:none"
         id="path8" /></marker><inkscape:path-effect
       effect="spiro"
       id="path-effect7"
       is_visible="true"
       lpeversion="1" /><rect
       x="77.481873"
       y="-122.09265"
       width="493.06647"
       height="185.48691"
       id="rect7" /><inkscape:path-effect
       effect="spiro"
       id="path-effect2"
       is_visible="true"
       lpeversion="1" /><rect
       x="-117.78652"
       y="645.69714"
       width="733.68225"
       height="278.14648"
       id="rect2" /><rect
       x="150.42615"
       y="671.24121"
       width="424.31528"
       height="147.58792"
       id="rect1" /><inkscape:path-effect
       effect="spiro"
       id="path-effect1"
       is_visible="true"
       lpeversion="1" /><inkscape:path-effect
       effect="spiro"
       id="path-effect1-5"
       is_visible="true"
       lpeversion="1" /><clipPath
       id="clipPath4829"><rect
         style="fill:none;fill-opacity:1;stroke:#b06080;stroke-width:1.5;stroke-dasharray:none;stroke-opacity:1"
         width="131.69962"
         height="131.69962"
         x="81.939384"
         y="-227.89011"
         id="rect5" /></clipPath><clipPath
       id="clipPath8366"><rect
         style="fill:none;fill-opacity:1;stroke:#606080;stroke-width:1.5;stroke-dasharray:none;stroke-opacity:1"
         width="131.69962"
         height="131.69962"
         x="81.939392"
         y="-227.89011"
         id="rect6" /></clipPath><clipPath
       id="clipPath8366-9"><rect
         style="fill:none;fill-opacity:1;stroke:#606080;stroke-width:1.5;stroke-dasharray:none;stroke-opacity:1"
         width="131.69962"
         height="131.69962"
         x="81.939392"
         y="-227.89011"
         id="rect6-8" /></clipPath><clipPath
       id="clipPath4829-7"><rect
         style="fill:none;fill-opacity:1;stroke:#b06080;stroke-width:1.5;stroke-dasharray:none;stroke-opacity:1"
         width="131.69962"
         height="131.69962"
         x="81.939384"
         y="-227.89011"
         id="rect5-2" /></clipPath><rect
       x="77.481873"
       y="-122.09265"
       width="493.06647"
       height="185.48691"
       id="rect7-7" /><marker
       style="overflow:visible"
       id="RoundedArrow-5"
       refX="0"
       refY="0"
       orient="auto-start-reverse"
       inkscape:stockid="Rounded arrow"
       markerWidth="0.5"
       markerHeight="0.5"
       viewBox="0 0 1 1"
       inkscape:isstock="true"
       inkscape:collect="always"
       preserveAspectRatio="xMidYMid"><path
         transform="scale(0.7)"
         d="m -0.21114562,-4.1055728 6.42229122,3.21114561 a 1,1 90 0 1 0,1.78885438 L -0.21114562,4.1055728 A 1.236068,1.236068 31.717474 0 1 -2,3 v -6 a 1.236068,1.236068 148.28253 0 1 1.78885438,-1.1055728 z"
         style="fill:context-stroke;fill-rule:evenodd;stroke:none"
         id="path8-4" /></marker><inkscape:path-effect
       effect="spiro"
       id="path-effect7-4"
       is_visible="true"
       lpeversion="1" /><clipPath
       clipPathUnits="userSpaceOnUse"
       id="clipPath3"><rect
         style="fill:none;fill-opacity:1;stroke:#000000;stroke-width:0.733262;stroke-dasharray:none;stroke-dashoffset:0;stroke-opacity:1"
         id="rect4"
         width="153.70061"
         height="110.70704"
         x="67.893471"
         y="-203.68358" /></clipPath></defs><g
     inkscape:label="Layer 1"
     inkscape:groupmode="layer"
     id="layer1"
     transform="translate(74.933437,-78.794078)"><path
       style="fill:none;stroke:#404040;stroke-width:1.3908;stroke-dasharray:none;stroke-opacity:1"
       d="M -58.198482,33.417192 V 141.9292"
       id="path1"
       inkscape:path-effect="#path-effect1"
       inkscape:original-d="m -58.198482,33.417192 c 0,36.29583 0,108.512008 0,108.512008"
       transform="matrix(2.8760386,0,0,2.8760386,138.82882,-17.315056)" /><path
       style="fill:none;stroke:#404040;stroke-width:1.42359;stroke-dasharray:none;stroke-opacity:1"
       d="M -58.198482,33.417192 V 141.9292"
       id="path1-9"
       inkscape:path-effect="#path-effect1-5"
       inkscape:original-d="m -58.198482,33.417192 c 0,36.29583 0,108.512008 0,108.512008"
       transform="matrix(0,2.8760386,-4.2891788,0,579.14912,558.25988)" /><text
       xml:space="preserve"
       transform="matrix(0,-0.76095188,0.76095188,0,-587.09228,508.60444)"
       id="text1"
       style="font-style:normal;font-variant:normal;font-weight:600;font-stretch:normal;font-size:27.816px;line-height:1;font-family:Lato;-inkscape-font-specification:'Lato, Semi-Bold';font-variant-ligatures:normal;font-variant-caps:normal;font-variant-numeric:normal;font-variant-east-asian:normal;text-align:center;text-decoration-color:#000000;writing-mode:lr-tb;direction:ltr;white-space:pre;shape-inside:url(#rect1);display:inline;fill:none;stroke:#404040;stroke-width:7.55906;stroke-opacity:1"><tspan
         x="272.78002"
         y="693.63407"
         id="tspan2"><tspan
           style="fill:#303030;stroke:none"
           id="tspan1">emitted power</tspan></tspan></text><text
       xml:space="preserve"
       transform="matrix(0.76095188,0,0,0.76095188,12.483095,-87.22519)"
       id="text2"
       style="font-style:normal;font-variant:normal;font-weight:600;font-stretch:normal;font-size:27.816px;line-height:1;font-family:Lato;-inkscape-font-specification:'Lato, Semi-Bold';font-variant-ligatures:normal;font-variant-caps:normal;font-variant-numeric:normal;font-variant-east-asian:normal;text-align:center;text-decoration-color:#000000;writing-mode:lr-tb;direction:ltr;white-space:pre;shape-inside:url(#rect2);display:inline;fill:#303030;fill-opacity:1;stroke:none;stroke-width:7.55906;stroke-opacity:1"><tspan
         x="178.08213"
         y="668.08915"
         id="tspan3">wavelength</tspan></text><path
       style="fill:none;fill-opacity:1;stroke:#b06080;stroke-width:2.5;stroke-dasharray:none;stroke-opacity:1"
       d="m 81.9394,-502.671 c 2.3105,47.531 4.621,84.867 6.9315,116.097 2.3106,31.23 4.6211,56.261 6.9316,77.452 2.3105,21.191 4.6215,38.48 6.9315,53.267 2.311,14.786 4.621,27.034 6.932,37.604 2.31,10.57 4.621,19.44 6.931,27.157 2.311,7.717 4.621,14.267 6.932,20.007 2.31,5.74 4.621,10.661 6.931,15.002 2.311,4.341 4.621,8.095 6.932,11.427 2.31,3.331 4.621,6.236 6.931,8.827 2.311,2.591 4.621,4.866 6.932,6.906 2.31,2.04 4.621,3.842 6.932,5.466 2.31,1.623 4.621,3.066 6.931,4.371 2.311,1.304 4.621,2.47 6.932,3.529 2.31,1.058 4.621,2.009 6.931,2.875 2.311,0.865 4.621,1.646 6.932,2.36 2.31,0.714 4.621,1.36 6.931,1.953 2.311,0.593 4.621,1.132 6.932,1.627 2.31,0.496 4.621,0.948 6.931,1.364 2.311,0.417 4.621,0.799 6.932,1.151"
       title="0.4/x**4"
       clip-path="url(#clipPath3)"
       id="path5-9"
       transform="matrix(2.8760386,0,0,2.8760386,-223.76206,664.65034)" /><path
       style="fill:none;fill-opacity:1;stroke:#606080;stroke-width:2.5;stroke-dasharray:none;stroke-opacity:1"
       d="m 81.9394,-96.2191 c 2.3105,-0.1437 4.621,-3.2563 6.9316,-19.6409 2.3105,-16.384 4.621,-39.489 6.9315,-53.027 2.3105,-13.538 4.6215,-18.878 6.9315,-19.142 2.311,-0.265 4.621,3.966 6.932,9.071 2.31,5.105 4.621,11.159 6.931,16.815 2.311,5.655 4.621,10.981 6.932,15.693 2.31,4.712 4.621,8.837 6.931,12.426 2.311,3.589 4.621,6.649 6.932,9.299 2.31,2.651 4.621,4.893 6.931,6.836 2.311,1.944 4.621,3.588 6.932,5.019 2.311,1.43 4.621,2.645 6.932,3.706 2.31,1.062 4.621,1.969 6.931,2.765 2.311,0.796 4.621,1.48 6.932,2.084 2.31,0.604 4.621,1.127 6.931,1.59 2.311,0.463 4.621,0.866 6.932,1.226 2.31,0.359 4.621,0.674 6.931,0.955 2.311,0.282 4.621,0.53 6.932,0.7531 2.31,0.223 4.621,0.4205 6.931,0.5987 2.311,0.1782 4.621,0.3368 6.932,0.4805"
       title="(2/x**5) * 1/(2.71828**(2/x)-1)"
       clip-path="url(#clipPath8366-9)"
       id="path6-9"
       transform="matrix(2.8760386,0,0,2.8760386,-223.76206,664.65034)" /><text
       xml:space="preserve"
       transform="matrix(0.76095188,0,0,0.76095188,-47.725684,174.78343)"
       id="text6"
       style="font-style:normal;font-variant:normal;font-weight:600;font-stretch:normal;font-size:27.816px;line-height:1;font-family:Lato;-inkscape-font-specification:'Lato, Semi-Bold';font-variant-ligatures:normal;font-variant-caps:normal;font-variant-numeric:normal;font-variant-east-asian:normal;text-align:center;text-decoration-color:#000000;writing-mode:lr-tb;direction:ltr;white-space:pre;shape-inside:url(#rect7);display:inline;fill:none;fill-opacity:1;stroke:#b06080;stroke-width:9.44882;stroke-dasharray:none;stroke-opacity:1"><tspan
         x="270.89399"
         y="-99.699917"
         id="tspan5"><tspan
           style="fill:#303030;stroke:none"
           id="tspan4">classical 
</tspan></tspan><tspan
         x="261.41572"
         y="-71.883915"
         id="tspan7"><tspan
           style="fill:#303030;stroke:none"
           id="tspan6">prediction</tspan></tspan></text><text
       xml:space="preserve"
       transform="matrix(0.76095188,0,0,0.76095188,-131.945,416.08372)"
       id="text6-8"
       style="font-style:normal;font-variant:normal;font-weight:600;font-stretch:normal;font-size:27.816px;line-height:1;font-family:Lato;-inkscape-font-specification:'Lato, Semi-Bold';font-variant-ligatures:normal;font-variant-caps:normal;font-variant-numeric:normal;font-variant-east-asian:normal;text-align:center;text-decoration-color:#000000;writing-mode:lr-tb;direction:ltr;white-space:pre;shape-inside:url(#rect7-7);display:inline;fill:none;fill-opacity:1;stroke:#b06080;stroke-width:9.44882;stroke-dasharray:none;stroke-opacity:1"><tspan
         x="271.17911"
         y="-99.699917"
         id="tspan9"><tspan
           style="fill:#303030;stroke:none"
           id="tspan8">Planck's 
</tspan></tspan><tspan
         x="261.41572"
         y="-71.883915"
         id="tspan11"><tspan
           style="fill:#303030;stroke:none"
           id="tspan10">prediction</tspan></tspan></text><path
       style="fill:none;fill-opacity:1;stroke:#404040;stroke-width:7;stroke-dasharray:none;stroke-opacity:1;marker-end:url(#RoundedArrow)"
       d="m 209.69917,124.38467 c 3.47454,11.60771 4.72428,23.87706 3.66149,35.94693 -2.14628,24.37484 -14.02863,47.75624 -32.45279,63.85872"
       id="path7"
       inkscape:path-effect="#path-effect7"
       inkscape:original-d="m 209.69917,124.38467 c 0.34896,13.26028 3.31253,22.68665 3.66149,35.94693 0.34896,13.26028 -22.50673,43.85045 -32.45279,63.85872" /><path
       style="fill:none;fill-opacity:1;stroke:#404040;stroke-width:7;stroke-dasharray:none;stroke-opacity:1;marker-end:url(#RoundedArrow-5)"
       d="m 209.69917,124.38467 c 3.0908,11.69226 4.33137,23.87161 3.66149,35.94693 -0.97488,17.57331 -6.0307,34.90757 -14.6561,50.24948"
       id="path7-3"
       inkscape:path-effect="#path-effect7-4"
       inkscape:original-d="m 209.69917,124.38467 c 0.34896,13.26028 3.31253,22.68665 3.66149,35.94693 0.34896,13.26028 -4.71004,30.24121 -14.6561,50.24948"
       transform="rotate(180,151.14609,222.86605)"
       sodipodi:nodetypes="csc" /></g></svg>
