<?xml version="1.0" encoding="UTF-8" standalone="no"?>
<!-- Created with Inkscape (http://www.inkscape.org/) -->

<svg
   width="281.87201mm"
   height="97.790009mm"
   viewBox="0 0 281.87201 97.790008"
   version="1.1"
   id="svg1"
   inkscape:version="1.4.2 (ebf0e940d0, 2025-05-08)"
   sodipodi:docname="collapse.svg"
   xmlns:inkscape="http://www.inkscape.org/namespaces/inkscape"
   xmlns:sodipodi="http://sodipodi.sourceforge.net/DTD/sodipodi-0.dtd"
   xmlns="http://www.w3.org/2000/svg"
   xmlns:svg="http://www.w3.org/2000/svg">
  <sodipodi:namedview
     id="namedview1"
     pagecolor="#ffffff"
     bordercolor="#000000"
     borderopacity="0.25"
     inkscape:showpageshadow="2"
     inkscape:pageopacity="0.0"
     inkscape:pagecheckerboard="0"
     inkscape:deskcolor="#d1d1d1"
     inkscape:document-units="mm"
     showgrid="false"
     inkscape:zoom="0.7046647"
     inkscape:cx="621.57222"
     inkscape:cy="310.07655"
     inkscape:window-width="1914"
     inkscape:window-height="1044"
     inkscape:window-x="0"
     inkscape:window-y="30"
     inkscape:window-maximized="1"
     inkscape:current-layer="layer1" />
  <defs
     id="defs1">
    <rect
       x="131.97766"
       y="113.52917"
       width="295.17584"
       height="69.536613"
       id="rect15" />
    <inkscape:path-effect
       effect="spiro"
       id="path-effect14"
       is_visible="true"
       lpeversion="1" />
    <inkscape:path-effect
       effect="spiro"
       id="path-effect12"
       is_visible="true"
       lpeversion="1" />
    <rect
       x="126.3012"
       y="549.19739"
       width="451.27847"
       height="137.65411"
       id="rect7" />
    <rect
       x="610.2193"
       y="227.18636"
       width="388.8374"
       height="153.13637"
       id="rect6" />
    <inkscape:path-effect
       effect="spiro"
       id="path-effect4"
       is_visible="true"
       lpeversion="1" />
    <inkscape:path-effect
       effect="spiro"
       id="path-effect3"
       is_visible="true"
       lpeversion="1" />
    <clipPath
       id="clipPath3036">
      <rect
         style="fill:none;fill-opacity:1;stroke:#404040;stroke-width:2;stroke-dasharray:none;stroke-dashoffset:0;stroke-opacity:1"
         width="125.40833"
         height="75.470299"
         x="18.022755"
         y="48.436153"
         id="rect5" />
    </clipPath>
    <rect
       x="610.2193"
       y="227.18636"
       width="388.8374"
       height="153.13637"
       id="rect10" />
    <rect
       x="126.3012"
       y="549.19739"
       width="451.27847"
       height="137.65411"
       id="rect11" />
    <clipPath
       id="clipPath9779">
      <rect
         style="fill:none;fill-opacity:1;stroke:#406090;stroke-width:2;stroke-dasharray:none;stroke-dashoffset:0;stroke-opacity:1"
         width="125.40824"
         height="74.824844"
         x="150.31445"
         y="48.436153"
         id="rect14" />
    </clipPath>
    <rect
       x="126.3012"
       y="549.19739"
       width="451.27847"
       height="137.65411"
       id="rect16" />
    <rect
       x="610.2193"
       y="227.18636"
       width="388.8374"
       height="153.13637"
       id="rect18" />
    <rect
       x="126.3012"
       y="549.19739"
       width="451.27847"
       height="137.65411"
       id="rect19" />
    <rect
       x="126.3012"
       y="549.19739"
       width="451.27847"
       height="137.65411"
       id="rect20" />
  </defs>
  <g
     inkscape:label="Layer 1"
     inkscape:groupmode="layer"
     id="layer1"
     transform="translate(-4.4341051,-42.469431)">
    <path
       style="fill:none;fill-opacity:1;stroke:#404040;stroke-width:2;stroke-dasharray:none;stroke-dashoffset:0;stroke-opacity:1"
       d="M 18.022756,48.436156 V 123.90645"
       id="path3"
       inkscape:path-effect="#path-effect3"
       inkscape:original-d="m 18.022756,48.436156 c 0,25.156763 0,75.470294 0,75.470294" />
    <path
       style="fill:none;fill-opacity:1;stroke:#404040;stroke-width:2;stroke-dasharray:none;stroke-dashoffset:0;stroke-opacity:1"
       d="M 18.022756,123.90645 H 124.65739"
       id="path4"
       inkscape:path-effect="#path-effect4"
       inkscape:original-d="m 18.022756,123.90645 c 35.795195,0 106.634634,0 106.634634,0"
       transform="matrix(1.1760563,0,0,1,-3.1730206,0)" />
    <path
       style="fill:none;fill-opacity:1;stroke:#406090;stroke-width:3;stroke-dasharray:none;stroke-dashoffset:0;stroke-opacity:1"
       d="m 18.0228,123.261 c 2.2001,-0.073 4.4002,-0.162 6.6004,-0.292 2.2001,-0.13 4.4003,-0.296 6.6004,-0.567 2.2002,-0.272 4.4003,-0.625 6.6005,-1.356 2.2001,-0.731 4.4003,-1.551 6.6004,-4.734 2.2002,-3.184 4.4003,-2.668 6.6004,-37.4804 2.2002,-34.8124 4.4003,-11.6219 6.6005,12.4828 2.2001,24.1046 4.4003,23.5756 6.6004,25.9936 2.2002,2.419 4.4003,3.093 6.6005,3.643 2.2001,0.549 4.4003,0.776 6.6004,0.898 2.2001,0.121 4.4003,0.121 6.6004,0 2.2002,-0.122 4.4003,-0.349 6.6005,-0.898 2.2001,-0.55 4.4003,-1.228 6.6004,-3.643 2.2002,-2.414 4.4,-1.954 6.6,-25.9936 2.201,-24.039 4.401,-47.3763 6.601,-12.4828 2.2,34.8934 4.4,34.2904 6.6,37.4804 2.2,3.189 4.401,4.003 6.601,4.734 2.2,0.732 4.4,1.084 6.6,1.356 2.2,0.271 4.401,0.437 6.601,0.567 2.2,0.13 4.4,0.219 6.6,0.292"
       title="1/((x-3)**2 + 0.1) + 1/((x+3)**2 + 0.1)"
       clip-path="url(#clipPath3036)"
       id="path5" />
    <text
       xml:space="preserve"
       transform="matrix(0,-0.49016106,0.49016106,0,-107.6219,422.1798)"
       id="text5"
       style="font-style:normal;font-variant:normal;font-weight:600;font-stretch:normal;font-size:21.5915px;line-height:1;font-family:Lato;-inkscape-font-specification:'Lato, Semi-Bold';font-variant-ligatures:normal;font-variant-caps:normal;font-variant-numeric:normal;font-variant-east-asian:normal;text-align:start;text-decoration-color:#000000;writing-mode:lr-tb;direction:ltr;white-space:pre;shape-inside:url(#rect6);display:inline;fill:none;fill-opacity:1;stroke:#406090;stroke-width:7.55906;stroke-dasharray:none;stroke-dashoffset:0;stroke-opacity:1"><tspan
         x="610.21875"
         y="244.5667"
         id="tspan3"><tspan
           style="fill:#404040;stroke:none"
           id="tspan2">Wavefunction</tspan></tspan></text>
    <text
       xml:space="preserve"
       transform="matrix(0.26458333,0,0,0.26458333,32.245534,-13.653247)"
       id="text6"
       style="font-style:normal;font-variant:normal;font-weight:600;font-stretch:normal;font-size:40px;line-height:1;font-family:Lato;-inkscape-font-specification:'Lato, Semi-Bold';font-variant-ligatures:normal;font-variant-caps:normal;font-variant-numeric:normal;font-variant-east-asian:normal;text-align:start;text-decoration-color:#000000;writing-mode:lr-tb;direction:ltr;white-space:pre;shape-inside:url(#rect7);display:inline;fill:#404040;fill-opacity:1;stroke:none;stroke-width:7.55906;stroke-dasharray:none;stroke-dashoffset:0;stroke-opacity:1"><tspan
         x="126.30078"
         y="581.39727"
         id="tspan4">Position</tspan></text>
    <path
       style="fill:none;fill-opacity:1;stroke:#404040;stroke-width:2;stroke-dasharray:none;stroke-dashoffset:0;stroke-opacity:1"
       d="M 18.022756,48.436156 V 123.90645"
       id="path7"
       inkscape:path-effect="#path-effect12"
       inkscape:original-d="m 18.022756,48.436156 c 0,25.156763 0,75.470294 0,75.470294"
       transform="translate(142.87503)" />
    <path
       style="fill:none;fill-opacity:1;stroke:#404040;stroke-width:2;stroke-dasharray:none;stroke-dashoffset:0;stroke-opacity:1"
       d="M 18.022756,123.90645 H 124.65739"
       id="path8"
       inkscape:path-effect="#path-effect14"
       inkscape:original-d="m 18.022756,123.90645 c 35.795195,0 106.634634,0 106.634634,0"
       transform="matrix(1.1760563,0,0,1,139.70201,0)" />
    <path
       style="fill:none;fill-opacity:1;stroke:#d83a3a;stroke-width:3;stroke-dasharray:none;stroke-dashoffset:0;stroke-opacity:1"
       d="m 150.314,123.172 c 2.201,-0.005 4.401,-0.01 6.601,-0.015 2.2,-0.006 4.4,-0.012 6.6,-0.019 2.2,-0.007 4.401,-0.015 6.601,-0.024 2.2,-0.01 4.4,-0.02 6.6,-0.033 2.2,-0.012 4.4,-0.027 6.601,-0.044 2.2,-0.017 4.4,-0.038 6.6,-0.063 2.2,-0.025 4.4,-0.055 6.6,-0.093 2.201,-0.039 4.401,-0.086 6.601,-0.148 2.2,-0.063 4.4,-0.141 6.6,-0.255 2.2,-0.113 4.401,-0.258 6.601,-0.492 2.2,-0.235 4.4,-0.541 6.6,-1.153 2.2,-0.612 4.401,-1.337 6.601,-3.79 2.2,-2.452 4.4,-2.023 6.6,-26.0871 2.2,-24.0642 4.4,-47.4218 6.601,-12.5457 2.2,34.8758 4.4,34.2588 6.6,37.4358 2.2,3.177 4.4,3.98 6.6,4.702 2.201,0.723 4.401,1.066 6.601,1.331 2.2,0.265 4.4,0.424 6.6,0.549 2.2,0.124 4.401,0.209 6.601,0.277"
       title="1/((x-3)**2 + 0.1)"
       clip-path="url(#clipPath9779)"
       id="path15"
       transform="translate(10.583333)" />
    <text
       xml:space="preserve"
       transform="scale(0.26458333)"
       id="text15"
       style="font-style:normal;font-variant:normal;font-weight:600;font-stretch:normal;font-size:40px;line-height:1;font-family:Lato;-inkscape-font-specification:'Lato, Semi-Bold';font-variant-ligatures:normal;font-variant-caps:normal;font-variant-numeric:normal;font-variant-east-asian:normal;text-align:start;text-decoration-color:#000000;writing-mode:lr-tb;direction:ltr;white-space:pre;shape-inside:url(#rect15);display:inline;fill:none;fill-opacity:1;stroke:#406090;stroke-width:7.55906;stroke-dasharray:none;stroke-dashoffset:0;stroke-opacity:1" />
    <text
       xml:space="preserve"
       transform="matrix(0.26458333,0,0,0.26458333,11.078866,-103.61159)"
       id="text16"
       style="font-style:normal;font-variant:normal;font-weight:600;font-stretch:normal;font-size:40px;line-height:1;font-family:Lato;-inkscape-font-specification:'Lato, Semi-Bold';font-variant-ligatures:normal;font-variant-caps:normal;font-variant-numeric:normal;font-variant-east-asian:normal;text-align:start;text-decoration-color:#000000;writing-mode:lr-tb;direction:ltr;white-space:pre;shape-inside:url(#rect16);display:inline;fill:#404040;fill-opacity:1;stroke:none;stroke-width:7.55906;stroke-dasharray:none;stroke-dashoffset:0;stroke-opacity:1"><tspan
         x="126.30078"
         y="581.39727"
         id="tspan5">Before Measurement</tspan></text>
    <text
       xml:space="preserve"
       transform="matrix(0,-0.49016106,0.49016106,0,38.428109,422.1798)"
       id="text17"
       style="font-style:normal;font-variant:normal;font-weight:600;font-stretch:normal;font-size:21.5915px;line-height:1;font-family:Lato;-inkscape-font-specification:'Lato, Semi-Bold';font-variant-ligatures:normal;font-variant-caps:normal;font-variant-numeric:normal;font-variant-east-asian:normal;text-align:start;text-decoration-color:#000000;writing-mode:lr-tb;direction:ltr;white-space:pre;shape-inside:url(#rect18);display:inline;fill:none;fill-opacity:1;stroke:#406090;stroke-width:7.55906;stroke-dasharray:none;stroke-dashoffset:0;stroke-opacity:1"><tspan
         x="610.21875"
         y="244.5667"
         id="tspan7"><tspan
           style="fill:#404040;stroke:none"
           id="tspan6">Wavefunction</tspan></tspan></text>
    <text
       xml:space="preserve"
       transform="matrix(0.26458333,0,0,0.26458333,178.29557,-13.653247)"
       id="text18"
       style="font-style:normal;font-variant:normal;font-weight:600;font-stretch:normal;font-size:40px;line-height:1;font-family:Lato;-inkscape-font-specification:'Lato, Semi-Bold';font-variant-ligatures:normal;font-variant-caps:normal;font-variant-numeric:normal;font-variant-east-asian:normal;text-align:start;text-decoration-color:#000000;writing-mode:lr-tb;direction:ltr;white-space:pre;shape-inside:url(#rect19);display:inline;fill:#404040;fill-opacity:1;stroke:none;stroke-width:7.55906;stroke-dasharray:none;stroke-dashoffset:0;stroke-opacity:1"><tspan
         x="126.30078"
         y="581.39727"
         id="tspan8">Position</tspan></text>
    <text
       xml:space="preserve"
       transform="matrix(0.26458333,0,0,0.26458333,148.66223,-103.61159)"
       id="text19"
       style="font-style:normal;font-variant:normal;font-weight:600;font-stretch:normal;font-size:40px;line-height:1;font-family:Lato;-inkscape-font-specification:'Lato, Semi-Bold';font-variant-ligatures:normal;font-variant-caps:normal;font-variant-numeric:normal;font-variant-east-asian:normal;text-align:start;text-decoration-color:#000000;writing-mode:lr-tb;direction:ltr;white-space:pre;shape-inside:url(#rect20);display:inline;fill:#404040;fill-opacity:1;stroke:none;stroke-width:7.55906;stroke-dasharray:none;stroke-dashoffset:0;stroke-opacity:1"><tspan
         x="126.30078"
         y="581.39727"
         id="tspan9">After Measurement</tspan></text>
  </g>
</svg>
