<?xml version="1.0" encoding="UTF-8" standalone="no"?>
<!-- Created with Inkscape (http://www.inkscape.org/) -->

<svg
   width="147.44699mm"
   height="52.916664mm"
   viewBox="0 0 147.44699 52.916663"
   version="1.1"
   id="svg1"
   inkscape:version="1.4.1 (93de688d07, 2025-03-30)"
   sodipodi:docname="bannerText.svg"
   inkscape:export-filename="bannerText.png"
   inkscape:export-xdpi="51.68"
   inkscape:export-ydpi="51.68"
   xmlns:inkscape="http://www.inkscape.org/namespaces/inkscape"
   xmlns:sodipodi="http://sodipodi.sourceforge.net/DTD/sodipodi-0.dtd"
   xmlns="http://www.w3.org/2000/svg"
   xmlns:svg="http://www.w3.org/2000/svg">
  <sodipodi:namedview
     id="namedview1"
     pagecolor="#ffffff"
     bordercolor="#000000"
     borderopacity="0.25"
     inkscape:showpageshadow="2"
     inkscape:pageopacity="0.0"
     inkscape:pagecheckerboard="0"
     inkscape:deskcolor="#d1d1d1"
     inkscape:document-units="mm"
     inkscape:zoom="0.53820958"
     inkscape:cx="581.55784"
     inkscape:cy="58.527386"
     inkscape:window-width="1914"
     inkscape:window-height="1044"
     inkscape:window-x="0"
     inkscape:window-y="30"
     inkscape:window-maximized="1"
     inkscape:current-layer="layer1"
     showgrid="false" />
  <defs
     id="defs1">
    <rect
       x="353.05765"
       y="-129.50587"
       width="661.40497"
       height="277.56204"
       id="rect32" />
    <rect
       x="353.05765"
       y="-129.50587"
       width="661.40497"
       height="277.56204"
       id="rect32-8" />
    <filter
       style="color-interpolation-filters:sRGB"
       inkscape:label="Roughen"
       id="filter1773"
       x="-0.021722052"
       y="-0.30254933"
       width="1.0434442"
       height="1.6050987">
      <feTurbulence
         type="fractalNoise"
         numOctaves="1"
         seed="64"
         baseFrequency="0.001 3.80264"
         result="turbulence"
         id="feTurbulence1773" />
      <feDisplacementMap
         in="SourceGraphic"
         in2="turbulence"
         scale="4.06125"
         yChannelSelector="G"
         xChannelSelector="R"
         id="feDisplacementMap1773" />
    </filter>
    <inkscape:path-effect
       effect="spiro"
       id="path-effect1766"
       is_visible="true"
       lpeversion="1" />
    <rect
       x="353.05765"
       y="-129.50587"
       width="661.40497"
       height="277.56204"
       id="rect32-5" />
    <rect
       x="353.05765"
       y="-129.50587"
       width="661.40497"
       height="277.56204"
       id="rect32-8-6" />
    <filter
       style="color-interpolation-filters:sRGB"
       inkscape:label="Roughen"
       id="filter1773-2"
       x="-0.021722052"
       y="-0.30254933"
       width="1.0434442"
       height="1.6050987">
      <feTurbulence
         type="fractalNoise"
         numOctaves="1"
         seed="64"
         baseFrequency="0.001 3.80264"
         result="turbulence"
         id="feTurbulence1773-9" />
      <feDisplacementMap
         in="SourceGraphic"
         in2="turbulence"
         scale="4.06125"
         yChannelSelector="G"
         xChannelSelector="R"
         id="feDisplacementMap1773-1" />
    </filter>
    <inkscape:path-effect
       effect="spiro"
       id="path-effect1766-2"
       is_visible="true"
       lpeversion="1" />
    <rect
       x="260.97641"
       y="-277.60104"
       width="577.40668"
       height="277.60104"
       id="rect43" />
    <rect
       x="260.97641"
       y="-277.60104"
       width="577.40668"
       height="277.60104"
       id="rect43-91" />
    <filter
       style="color-interpolation-filters:sRGB"
       inkscape:label="Roughen"
       id="filter1773-7-6"
       x="0"
       y="0"
       width="1"
       height="1">
      <feTurbulence
         type="fractalNoise"
         numOctaves="1"
         seed="64"
         baseFrequency="0.001 3.80264"
         result="turbulence"
         id="feTurbulence1773-2-2" />
      <feDisplacementMap
         in="SourceGraphic"
         in2="turbulence"
         scale="4.06125"
         yChannelSelector="G"
         xChannelSelector="R"
         id="feDisplacementMap1773-7-6" />
    </filter>
    <inkscape:path-effect
       effect="spiro"
       id="path-effect1766-2-1"
       is_visible="true"
       lpeversion="1" />
    <rect
       x="260.97641"
       y="-277.60104"
       width="577.40668"
       height="277.60104"
       id="rect43-7" />
  </defs>
  <g
     inkscape:label="Layer 1"
     inkscape:groupmode="layer"
     id="layer1"
     transform="translate(-77.258335,28.310411)">
    <path
       id="rect1"
       style="fill:#202020"
       d="m 77.258331,-28.310411 h 37.361529 v 52.91666 H 77.258331 Z" />
    <g
       id="g102"
       transform="matrix(0.26458333,0,0,0.26458333,-186.64536,-49.660093)">
      <path
         d="m 328.33656,-256.08736 c 0,-11.36 -1.12,-26.56 -16,-26.56 -14.56,0 -31.68,19.36 -37.28,31.68 -3.36,7.36 -5.92,15.52 -5.92,23.52 0,4.16 0.48,14.56 6.4,14.56 2.08,0 3.2,-1.44 3.2,-3.52 0,-3.52 -3.04,-5.44 -3.04,-11.84 0,-6.72 2.08,-15.52 5.12,-21.44 3.84,-7.36 16.64,-22.4 25.6,-22.4 5.92,0 6.88,8.64 6.88,12.96 0,19.68 -12,97.28 -37.76,97.28 -7.36,0 -8.64,-4.8 -11.84,-4.8 -1.12,0 -2.72,0.96 -2.72,2.24 0,5.92 9.92,8.64 14.56,8.64 39.2,0 52.8,-70.72 52.8,-100.32 z m 9.1199,99.84 c 3.04,0 5.28,-2.56 6.56,-5.12 3.68,-8 7.36,-15.84 12,-23.36 3.84,-6.24 8.64,-13.6 13.92,-18.72 0.8,-0.8 2.56,-2.56 3.68,-2.56 1.28,0 1.44,2.4 1.44,3.2 l -0.64,18.24 c 0,0.8 0,1.6 0,2.4 0,8 1.76,18.72 11.68,18.72 12,0 26.08,-17.28 30.72,-27.2 0.32,-0.8 1.12,-2.4 1.12,-3.2 0,-1.44 -1.12,-3.2 -2.72,-3.2 -1.76,0 -3.04,2.24 -3.84,3.68 -3.68,7.04 -13.6,22.08 -22.08,22.08 -4.96,0 -5.12,-5.92 -5.12,-9.6 v -22.4 c 0,-4.64 -0.16,-15.52 -6.4,-15.52 -8.32,0 -27.84,28.48 -27.84,28.48 0.8,-6.24 2.08,-12.48 4.32,-18.4 1.92,-5.12 4.16,-11.68 4.16,-17.12 0,-3.36 -1.12,-5.44 -4.8,-5.44 -4,0 -8.48,3.84 -9.28,7.68 -1.12,4.96 -1.92,10.08 -2.88,15.04 -3.2,15.36 -7.36,32.64 -7.36,48.32 0,2.08 1.12,4 3.36,4 z"
         id="text5-53"
         style="font-size:160px;line-height:1.2;font-family:'Black Jack';-inkscape-font-specification:'Black Jack, Normal';white-space:pre;fill:#f0f0f0;stroke-width:3.77953"
         transform="translate(736.45474,384.61907)"
         aria-label="In" />
      <path
         d="m 276.65656,-181.04736 c 0,-4.8 0.48,-9.6 1.44,-14.24 1.12,-4.8 4.8,-12.64 4.8,-16.96 0,-2.56 -1.28,-3.52 -3.68,-3.52 -6.72,0 -9.6,4.48 -11.52,10.24 -1.76,5.6 -3.36,13.76 -3.36,19.68 0,9.28 1.92,27.36 14.56,27.36 11.36,0 24.96,-16.96 31.04,-25.6 1.28,-1.76 4.32,-6.08 4.32,-8.16 0,-1.6 0,-3.52 -2.08,-3.52 -1.76,0 -3.04,1.92 -4,3.36 -4.8,7.52 -17.28,25.92 -25.92,25.92 -5.44,0 -5.6,-10.88 -5.6,-14.56 z m 6.4,-59.2 c -4.32,0 -7.52,4.48 -7.52,8.48 0,3.2 2.08,6.08 5.44,6.08 4.32,0 7.68,-4.32 7.68,-8.48 0,-3.2 -2.24,-6.08 -5.6,-6.08 z m 69.76008,20.64 c 5.92,0 10.72,4.48 12.8,4.48 0.8,0 1.76,-0.64 1.76,-1.6 0,-5.92 -12.96,-8.8 -17.44,-8.8 -11.36,0 -21.76,4.64 -29.76,12.64 -8.16,8.16 -15.04,21.12 -15.04,32.8 0,7.68 2.88,15.04 11.68,15.04 12.96,0 27.52,-19.2 33.6,-29.44 0.48,4.32 0.48,8.64 0.48,12.96 0,15.52 -8.16,71.04 -28.64,71.04 -5.92,0 -4.64,-6.88 -8.64,-6.88 -2.08,0 -3.52,1.92 -3.52,3.84 0,1.12 0.48,2.08 0.96,3.04 2.56,4.48 6.72,6.56 11.84,6.56 39.36,0 41.92,-76 41.92,-103.52 0,-3.68 -2.08,-6.24 -5.92,-6.24 -4.48,0 -7.84,4.64 -9.44,8.32 -3.52,8.64 -21.28,32 -31.2,32 -3.84,0 -4.96,-2.88 -4.96,-6.24 0,-8.96 8.16,-21.12 14.08,-27.36 6.56,-6.88 15.52,-12.64 25.44,-12.64 z m 77.12002,1.44 c 1.6,0 1.6,2.88 1.6,3.84 -1.12,12.8 -2.56,24.32 -2.56,35.84 0,7.04 0,21.92 8.48,21.92 15.04,0 31.04,-18.88 37.28,-31.2 0.32,-0.8 0.96,-1.6 0.96,-2.56 0,-1.6 -0.48,-3.2 -2.4,-3.2 -1.76,0 -2.88,2.08 -3.84,3.52 -5.6,8.32 -16,23.84 -25.92,23.84 -4.16,0 -4.32,-4.16 -4.32,-7.2 l 3.04,-40.16 c 0,-5.76 -1.92,-14.4 -9.12,-14.4 -15.04,0 -34.24,35.2 -40.16,47.84 0.64,-4.32 3.52,-23.68 4.8,-26.24 2.56,-4.96 5.44,-9.76 8,-14.88 10.56,-20.96 18.72,-43.84 18.72,-67.68 0,-5.28 -1.6,-15.04 -8.64,-15.04 -23.68,0 -31.52,104.64 -33.76,122.4 -0.64,5.44 -1.76,11.04 -1.76,16.48 0,3.52 0.8,9.6 5.44,9.6 4.64,0 7.2,-5.28 8.96,-8.96 l 0.16,-0.48 c 3.84,-8.16 28,-53.28 35.04,-53.28 z m -13.28,-77.6 c 1.92,0 1.92,6.08 1.92,7.52 0,19.84 -12.16,50.56 -21.76,68 0.64,-10.88 9.92,-75.52 19.84,-75.52 z m 85.7601,57.92 c 2.4,-0.48 11.52,-2.72 13.12,-3.68 1.28,-0.8 2.08,-1.44 2.08,-3.04 0,-1.6 -0.8,-2.08 -2.24,-2.08 -3.68,0 -7.2,0.8 -10.88,1.28 2.4,-8 3.52,-16.8 3.52,-25.12 0,-4.8 -0.48,-14.4 -7.2,-14.4 -15.04,0 -24.32,31.84 -27.84,43.36 -3.36,0.32 -8.16,0.96 -8.16,5.28 0,2.56 1.28,3.84 3.84,3.84 1.12,0 2.24,-0.16 3.36,-0.48 -2.08,10.24 -2.72,20.96 -2.72,31.36 0,12 3.2,45.92 19.84,45.92 12.96,0 27.2,-18.88 33.28,-29.12 1.28,-2.08 2.56,-4.16 2.56,-6.56 0,-1.28 -0.96,-2.4 -2.24,-2.4 -1.76,0 -3.36,2.24 -4.16,3.68 -4.8,7.68 -16.48,24.64 -26.4,24.64 -8.64,0 -10.08,-24 -10.08,-30.4 0,-0.8 0.16,-2.72 0.32,-3.52 0,0 4.8,-6.4 6.72,-9.76 5.28,-8.64 10.72,-19.04 13.28,-28.8 z m -1.92,-39.04 c 1.6,0 1.6,3.84 1.6,4.8 0,8.48 -1.92,19.36 -4.48,27.52 -4.32,0.96 -8.8,1.12 -13.12,1.76 0.8,-6.4 8.64,-34.08 16,-34.08 z m -16.96,42.72 c 3.68,-1.12 7.52,-1.12 11.36,-1.92 -2.08,7.52 -9.28,21.44 -14.08,27.52 0.64,-8.48 0.8,-17.28 2.72,-25.6 z"
         id="text5-09"
         style="font-size:160px;line-height:1.2;font-family:'Black Jack';-inkscape-font-specification:'Black Jack, Normal';white-space:pre;fill:#202020;stroke-width:3.77953"
         transform="translate(1029.7345,384.61907)"
         aria-label="ight" />
      <path
         id="path88"
         style="opacity:1;fill:#bd2033;stroke-width:3.77953"
         d="m 1322.0358,151.00661 a 10.462351,10.462351 0 0 1 -10.4623,10.46235 10.462351,10.462351 0 0 1 -10.4624,-10.46235 10.462351,10.462351 0 0 1 10.4624,-10.46235 10.462351,10.462351 0 0 1 10.4623,10.46235 z" />
      <g
         id="path1766-5"
         style="opacity:1;filter:url(#filter1773-7-6)"
         transform="matrix(3.9775242,1.0657744,-1.8360551,6.8522507,816.23324,-231.57388)">
        <path
           style="baseline-shift:baseline;display:inline;overflow:visible;vector-effect:none;fill:#bd2033;enable-background:accumulate;stop-color:#000000;stop-opacity:1"
           d="m 158.61708,29.286837 17.87255,-4.788934"
           id="path1" />
        <path
           style="baseline-shift:baseline;display:inline;overflow:visible;vector-effect:none;fill:#bd2033;enable-background:accumulate;stop-color:#000000;stop-opacity:1"
           d="m 176.10156,23.048828 -17.87304,4.789063 0.77734,2.898437 17.87109,-4.789062 z"
           id="path2" />
      </g>
      <path
         d="m 328.97656,-252.72736 c 0,2.4 1.76,4 4.16,4 4.32,0 11.52,-4.48 14.56,-7.36 2.88,-2.72 4.8,-6.72 4.8,-10.72 0,-8 -11.36,-9.28 -17.28,-9.28 -18.88,0 -56.48,4.8 -56.48,30.08 0,28.8 48.16,43.84 48.16,61.76 0,15.84 -33.6,19.36 -45.12,19.36 -5.28,0 -10.4,-2.08 -15.68,-2.08 -2.88,0 -5.12,0 -5.12,3.52 0,4.16 9.28,4.32 12,4.64 2.88,0.32 5.6,0.48 8.48,0.48 18.24,0 56.96,-4.64 56.96,-29.28 0,-25.12 -44.64,-40.48 -44.64,-60.32 0,-12 16.96,-20.32 27.04,-22.08 3.52,-0.64 7.2,-0.8 10.88,-0.8 2.08,0 7.84,0 7.84,3.2 0,4.96 -10.56,9.6 -10.56,14.88 z m 45.11988,94.24 c 18.88,0 35.2,-13.44 44.16,-29.6 0.64,-1.12 1.28,-2.24 1.28,-3.36 0,-1.44 -1.12,-2.56 -2.56,-2.56 -2.08,0 -3.84,2.56 -4.8,4.16 -6.88,11.52 -18.24,22.56 -32.48,22.56 -9.6,0 -12.8,-8.48 -12.8,-16.64 0,-9.44 6.72,-35.2 18.88,-35.2 3.68,0 3.84,3.36 3.84,6.24 0,4.64 -2.88,8.48 -2.88,10.88 0,1.12 0.8,1.6 1.76,1.6 6.56,0 7.84,-8.64 7.84,-13.6 0,-8.48 -4.96,-12.16 -12.96,-12.16 -19.36,0 -29.92,23.84 -29.92,40.48 0,12.64 5.92,27.2 20.64,27.2 z"
         id="text5-5"
         style="font-size:160px;line-height:1.2;font-family:'Black Jack';-inkscape-font-specification:'Black Jack, Normal';white-space:pre;fill:#bd2033;stroke-width:3.77953"
         transform="translate(881.57467,386.37826)"
         aria-label="Sc" />
    </g>
  </g>
</svg>
