<?xml version="1.0" encoding="UTF-8" standalone="no"?>
<svg
   id="visual"
   viewBox="0 0 1505.9839 601"
   width="1505.9839"
   height="601"
   version="1.1"
   sodipodi:docname="background-waves.svg"
   inkscape:version="1.3.2 (091e20ef0f, 2023-11-25, custom)"
   xml:space="preserve"
   xmlns:inkscape="http://www.inkscape.org/namespaces/inkscape"
   xmlns:sodipodi="http://sodipodi.sourceforge.net/DTD/sodipodi-0.dtd"
   xmlns="http://www.w3.org/2000/svg"
   xmlns:svg="http://www.w3.org/2000/svg"><defs
     id="defs12" /><sodipodi:namedview
     id="namedview12"
     pagecolor="#505050"
     bordercolor="#eeeeee"
     borderopacity="1"
     inkscape:showpageshadow="0"
     inkscape:pageopacity="0"
     inkscape:pagecheckerboard="0"
     inkscape:deskcolor="#505050"
     showgrid="false"
     inkscape:zoom="0.53902898"
     inkscape:cx="710.53693"
     inkscape:cy="-86.266233"
     inkscape:window-width="1920"
     inkscape:window-height="1000"
     inkscape:window-x="0"
     inkscape:window-y="0"
     inkscape:window-maximized="1"
     inkscape:current-layer="visual" /><g
     id="g13"
     transform="scale(1.6733154,1)"><rect
       x="0"
       y="0"
       width="900"
       height="600"
       fill="#000a11"
       id="rect1" /><path
       d="m 0,76 15,31.5 c 15,31.5 45,94.5 75,124.2 30,29.6 60,26 90,48.6 30,22.7 60,71.7 90,53.7 30,-18 60,-103 90,-123.3 30,-20.4 60,24 90,15.5 30,-8.5 60,-69.9 90,-81.2 30,-11.3 60,27.3 90,44.2 30,16.8 60,11.8 90,-10.2 30,-22 60,-61 90,-82.5 C 840,75 870,71 885,69 l 15,-2 v 534 h -15 c -15,0 -45,0 -75,0 -30,0 -60,0 -90,0 -30,0 -60,0 -90,0 -30,0 -60,0 -90,0 -30,0 -60,0 -90,0 -30,0 -60,0 -90,0 -30,0 -60,0 -90,0 -30,0 -60,0 -90,0 -30,0 -60,0 -90,0 -30,0 -60,0 -75,0 H 0 Z"
       fill="#000713"
       id="path1" /><path
       d="m 0,252 15,6.5 c 15,6.5 45,19.5 75,22.2 30,2.6 60,-5 90,-35.7 30,-30.7 60,-84.3 90,-73.2 30,11.2 60,87.2 90,102.4 30,15.1 60,-30.5 90,-24.7 30,5.8 60,63.2 90,45.8 30,-17.3 60,-109.3 90,-132 30,-22.6 60,24 90,55.5 30,31.5 60,47.9 90,77.5 30,29.7 60,72.7 75,94.2 l 15,21.5 v 189 h -15 c -15,0 -45,0 -75,0 -30,0 -60,0 -90,0 -30,0 -60,0 -90,0 -30,0 -60,0 -90,0 -30,0 -60,0 -90,0 -30,0 -60,0 -90,0 -30,0 -60,0 -90,0 -30,0 -60,0 -90,0 -30,0 -60,0 -90,0 -30,0 -60,0 -75,0 H 0 Z"
       fill="#060f1b"
       id="path2" /><path
       d="m 0,266 15,11.2 c 15,11.1 45,33.5 75,38.6 30,5.2 60,-6.8 90,15.5 30,22.4 60,79 90,73.2 30,-5.8 60,-74.2 90,-90.8 30,-16.7 60,18.3 90,25 30,6.6 60,-15 90,2.6 30,17.7 60,74.7 90,103 30,28.4 60,28 90,20.5 30,-7.5 60,-22.1 90,-40 30,-17.8 60,-38.8 75,-49.3 L 900,365 v 236 h -15 c -15,0 -45,0 -75,0 -30,0 -60,0 -90,0 -30,0 -60,0 -90,0 -30,0 -60,0 -90,0 -30,0 -60,0 -90,0 -30,0 -60,0 -90,0 -30,0 -60,0 -90,0 -30,0 -60,0 -90,0 -30,0 -60,0 -90,0 -30,0 -60,0 -75,0 H 0 Z"
       fill="#0b1522"
       id="path3" /><path
       d="m 0,459 15,-37.7 c 15,-37.6 45,-113 75,-135.6 30,-22.7 60,7.3 90,7.8 30,0.5 60,-28.5 90,-47.5 30,-19 60,-28 90,-26.3 30,1.6 60,14 90,53.3 30,39.3 60,105.7 90,129.3 30,23.7 60,4.7 90,7.5 30,2.9 60,27.5 90,13.9 30,-13.7 60,-65.7 90,-74.5 30,-8.9 60,25.5 75,42.6 l 15,17.2 v 192 h -15 c -15,0 -45,0 -75,0 -30,0 -60,0 -90,0 -30,0 -60,0 -90,0 -30,0 -60,0 -90,0 -30,0 -60,0 -90,0 -30,0 -60,0 -90,0 -30,0 -60,0 -90,0 -30,0 -60,0 -90,0 -30,0 -60,0 -90,0 -30,0 -60,0 -75,0 H 0 Z"
       fill="#0c1a2a"
       id="path4" /><path
       d="m 0,221 15,30.5 c 15,30.5 45,91.5 75,122.7 30,31.1 60,32.5 90,38.1 30,5.7 60,15.7 90,22.2 30,6.5 60,9.5 90,11.3 30,1.9 60,2.5 90,-35.3 30,-37.8 60,-114.2 90,-138.2 30,-24 60,4.4 90,43.5 30,39.2 60,89.2 90,114.2 30,25 60,25 90,2.3 30,-22.6 60,-68 75,-90.6 L 900,319 v 282 h -15 c -15,0 -45,0 -75,0 -30,0 -60,0 -90,0 -30,0 -60,0 -90,0 -30,0 -60,0 -90,0 -30,0 -60,0 -90,0 -30,0 -60,0 -90,0 -30,0 -60,0 -90,0 -30,0 -60,0 -90,0 -30,0 -60,0 -90,0 -30,0 -60,0 -75,0 H 0 Z"
       fill="#0d1f32"
       id="path5" /><path
       d="m 0,295 15,36 c 15,36 45,108 75,105.2 30,-2.9 60,-80.5 90,-99.7 30,-19.2 60,20.2 90,29.2 30,9 60,-12.4 90,3.3 30,15.7 60,68.3 90,81.7 30,13.3 60,-12.7 90,-16.2 30,-3.5 60,15.5 90,-7.7 30,-23.1 60,-88.5 90,-88.6 30,-0.2 60,64.8 90,80.6 30,15.9 60,-17.5 75,-34.1 L 900,368 v 233 h -15 c -15,0 -45,0 -75,0 -30,0 -60,0 -90,0 -30,0 -60,0 -90,0 -30,0 -60,0 -90,0 -30,0 -60,0 -90,0 -30,0 -60,0 -90,0 -30,0 -60,0 -90,0 -30,0 -60,0 -90,0 -30,0 -60,0 -90,0 -30,0 -60,0 -75,0 H 0 Z"
       fill="#0e243a"
       id="path6" /><path
       d="m 0,404 15,15.7 c 15,15.6 45,47 75,43.3 30,-3.7 60,-42.3 90,-64.7 30,-22.3 60,-28.3 90,-23.6 30,4.6 60,20 90,33.8 30,13.8 60,26.2 90,28 30,1.8 60,-6.8 90,-30.5 30,-23.7 60,-62.3 90,-75.7 30,-13.3 60,-1.3 90,19.4 30,20.6 60,50 90,49 30,-1 60,-32.4 75,-48 L 900,335 v 266 h -15 c -15,0 -45,0 -75,0 -30,0 -60,0 -90,0 -30,0 -60,0 -90,0 -30,0 -60,0 -90,0 -30,0 -60,0 -90,0 -30,0 -60,0 -90,0 -30,0 -60,0 -90,0 -30,0 -60,0 -90,0 -30,0 -60,0 -90,0 -30,0 -60,0 -75,0 H 0 Z"
       fill="#0e2a42"
       id="path7" /><path
       d="m 0,416 15,10.3 c 15,10.4 45,31 75,45.9 30,14.8 60,23.8 90,19.5 30,-4.4 60,-22 90,-43.2 30,-21.2 60,-45.8 90,-53 30,-7.2 60,3.2 90,0.3 30,-2.8 60,-18.8 90,-5.3 30,13.5 60,56.5 90,72 30,15.5 60,3.5 90,-14.5 30,-18 60,-42 90,-37.5 30,4.5 60,37.5 75,54 l 15,16.5 v 120 h -15 c -15,0 -45,0 -75,0 -30,0 -60,0 -90,0 -30,0 -60,0 -90,0 -30,0 -60,0 -90,0 -30,0 -60,0 -90,0 -30,0 -60,0 -90,0 -30,0 -60,0 -90,0 -30,0 -60,0 -90,0 -30,0 -60,0 -90,0 -30,0 -60,0 -75,0 H 0 Z"
       fill="#0e2f4b"
       id="path8" /><path
       d="m 0,417 15,6.2 c 15,6.1 45,18.5 75,38.6 30,20.2 60,48.2 90,61.7 30,13.5 60,12.5 90,6.7 30,-5.9 60,-16.5 90,-14 30,2.5 60,18.1 90,17 30,-1.2 60,-19.2 90,-20.4 30,-1.1 60,14.5 90,10.7 30,-3.8 60,-27.2 90,-27.3 30,-0.2 60,22.8 90,27.8 30,5 60,-8 75,-14.5 l 15,-6.5 v 98 h -15 c -15,0 -45,0 -75,0 -30,0 -60,0 -90,0 -30,0 -60,0 -90,0 -30,0 -60,0 -90,0 -30,0 -60,0 -90,0 -30,0 -60,0 -90,0 -30,0 -60,0 -90,0 -30,0 -60,0 -90,0 -30,0 -60,0 -90,0 -30,0 -60,0 -75,0 H 0 Z"
       fill="#0c3553"
       id="path9" /><path
       d="m 0,558 15,-13.7 c 15,-13.6 45,-41 75,-49.1 30,-8.2 60,2.8 90,12.6 30,9.9 60,18.5 90,7.4 30,-11.2 60,-42.2 90,-50.7 30,-8.5 60,5.5 90,24.5 30,19 60,43 90,51 30,8 60,0 90,-0.5 30,-0.5 60,6.5 90,-8.5 30,-15 60,-52 90,-51 30,1 60,40 75,59.5 l 15,19.5 v 42 h -15 c -15,0 -45,0 -75,0 -30,0 -60,0 -90,0 -30,0 -60,0 -90,0 -30,0 -60,0 -90,0 -30,0 -60,0 -90,0 -30,0 -60,0 -90,0 -30,0 -60,0 -90,0 -30,0 -60,0 -90,0 -30,0 -60,0 -90,0 -30,0 -60,0 -75,0 H 0 Z"
       fill="#0a3a5c"
       id="path10" /><path
       d="m 0,528 15,7.7 c 15,7.6 45,23 75,23.5 30,0.5 60,-13.9 90,-30.5 30,-16.7 60,-35.7 90,-40.7 30,-5 60,4 90,10 30,6 60,9 90,16.5 30,7.5 60,19.5 90,28.3 30,8.9 60,14.5 90,19.4 30,4.8 60,8.8 90,-4.5 30,-13.4 60,-44 90,-59.7 30,-15.7 60,-16.3 75,-16.7 l 15,-0.3 v 120 h -15 c -15,0 -45,0 -75,0 -30,0 -60,0 -90,0 -30,0 -60,0 -90,0 -30,0 -60,0 -90,0 -30,0 -60,0 -90,0 -30,0 -60,0 -90,0 -30,0 -60,0 -90,0 -30,0 -60,0 -90,0 -30,0 -60,0 -90,0 -30,0 -60,0 -75,0 H 0 Z"
       fill="#064065"
       id="path11" /><path
       d="m 0,581 15,-9.5 C 30,562 60,543 90,544 c 30,1 60,22 90,24.7 30,2.6 60,-13 90,-23.4 30,-10.3 60,-15.3 90,-13.1 30,2.1 60,11.5 90,22 30,10.5 60,22.1 90,22.1 30,0 60,-11.6 90,-12.6 30,-1 60,8.6 90,9.1 30,0.5 60,-8.1 90,-7 30,1.2 60,12.2 75,17.7 l 15,5.5 v 12 h -15 c -15,0 -45,0 -75,0 -30,0 -60,0 -90,0 -30,0 -60,0 -90,0 -30,0 -60,0 -90,0 -30,0 -60,0 -90,0 -30,0 -60,0 -90,0 -30,0 -60,0 -90,0 -30,0 -60,0 -90,0 -30,0 -60,0 -90,0 -30,0 -60,0 -75,0 H 0 Z"
       fill="#00466e"
       id="path12" /></g></svg>
