<?xml version="1.0" encoding="UTF-8" standalone="no"?>
<!-- Created with Inkscape (http://www.inkscape.org/) -->

<svg
   width="529.89563mm"
   height="195.65155mm"
   viewBox="0 0 529.89564 195.65155"
   version="1.1"
   id="svg1"
   xml:space="preserve"
   inkscape:version="1.3.2 (091e20ef0f, 2023-11-25, custom)"
   sodipodi:docname="banner.svg"
   xmlns:inkscape="http://www.inkscape.org/namespaces/inkscape"
   xmlns:sodipodi="http://sodipodi.sourceforge.net/DTD/sodipodi-0.dtd"
   xmlns="http://www.w3.org/2000/svg"
   xmlns:svg="http://www.w3.org/2000/svg"><sodipodi:namedview
     id="namedview1"
     pagecolor="#505050"
     bordercolor="#eeeeee"
     borderopacity="1"
     inkscape:showpageshadow="0"
     inkscape:pageopacity="0"
     inkscape:pagecheckerboard="0"
     inkscape:deskcolor="#505050"
     inkscape:document-units="mm"
     inkscape:zoom="0.43022428"
     inkscape:cx="1326.0525"
     inkscape:cy="528.79396"
     inkscape:window-width="1920"
     inkscape:window-height="1019"
     inkscape:window-x="0"
     inkscape:window-y="0"
     inkscape:window-maximized="1"
     inkscape:current-layer="layer1"
     showgrid="false" /><defs
     id="defs1" /><g
     inkscape:label="Layer 1"
     inkscape:groupmode="layer"
     id="layer1"
     transform="translate(255.19788,-21.111883)"><path
       class="st0"
       d="M -255.19788,215.82673 V 21.625856 c 0,-0.411249 0.18648,-0.47979 1.30539,-0.47979 h 528.43485 c 0.24865,0.15993 0.12434,0.342707 0.12434,0.525485 V 215.27839 c 0,0.66257 0.18653,0.59403 -1.61621,0.59403 H -253.706 c -0.4973,0 -0.99459,0.0457 -1.49188,-0.0457 z"
       id="path1"
       style="fill:#deffec;fill-opacity:1;stroke-width:0.376856" /><path
       d="m 44.45672,102.3291 c 0.185208,-0.47625 0.238125,-0.84667 0.185208,-1.24355 -0.105833,-1.00541 0.291042,-2.010828 0,-3.016245 -0.02646,-0.05292 0,-0.105833 -0.02646,-0.15875 -0.05292,-0.211667 -0.291042,-0.449792 -0.05292,-0.661458 0.238125,-0.238125 0.502708,-0.05292 0.740833,0 1.137709,0.291041 2.248959,0.767291 3.33375,1.217083 0.343958,0.132292 0.502708,0.05292 0.661458,-0.238125 1.005417,-1.957917 2.090209,-3.915833 3.042709,-5.900208 1.11125,-2.354792 2.54,-4.497917 4.1275,-6.561667 1.666875,-2.143125 3.413125,-4.233333 5.344583,-6.138333 3.757083,-3.677708 7.884583,-6.852708 12.408958,-9.498542 3.862917,-2.248958 7.884583,-4.074583 12.117917,-5.476875 3.360208,-1.11125 6.773333,-1.931458 10.265833,-2.434166 2.566458,-0.370417 5.132921,-0.555625 7.699381,-0.714375 1.82562,-0.105834 3.62479,0 5.45042,0.07937 2.69875,0.132291 5.3975,0.502708 8.06979,1.005416 3.04271,0.582084 6.0325,1.402292 8.94291,2.407709 3.22792,1.137708 6.32355,2.566458 9.31333,4.206875 1.90501,1.031875 3.75709,2.196041 5.55626,3.413125 0.34395,0.238125 0.55562,0.185208 0.76729,-0.15875 0.89957,-1.42875 1.74625,-1.693334 3.38666,-1.243542 2.19605,0.608542 4.02167,1.905 5.82084,3.201458 2.14312,1.561042 4.07458,3.360209 5.84729,5.318125 2.51354,2.778125 4.86833,5.688542 6.85271,8.89 1.21708,1.957917 2.01083,4.074583 2.56646,6.270625 0.26458,1.031875 -0.0265,1.957917 -0.71438,2.778125 -0.74083,0.846667 -1.37583,1.719792 -1.77271,2.778115 -0.15875,0.39688 -0.15875,0.7673 0,1.13771 1.34938,3.43959 2.38125,6.985 3.06917,10.60979 0.39687,2.0373 0.635,4.10105 0.84667,6.1648 0.29104,2.96333 0.26458,5.92666 0.15875,8.89 -0.10584,2.67229 -0.4498,5.34458 -0.9525,8.01687 -0.55563,3.01625 -1.29646,5.97958 -2.30188,8.86354 -0.79375,2.32834 -1.71979,4.60375 -2.80458,6.79979 -0.74084,1.56105 -1.50813,3.09563 -2.43417,4.5773 -0.44979,0.74083 -0.44979,1.50812 -0.34396,2.32833 0.10584,0.76729 0.18521,1.56104 0.29104,2.32833 0.15875,1.50813 -0.58208,2.72521 -1.37583,3.88938 -0.92604,1.34937 -1.95792,2.61937 -3.12208,3.75708 -2.46063,2.35479 -5.02709,4.63021 -8.01688,6.29708 -1.34937,0.7673 -2.75166,1.48167 -4.2598,1.905 -0.39687,0.10584 -0.76729,0.10584 -1.13771,-0.0794 -0.3704,-0.21167 -0.71437,-0.15875 -1.08479,0.10583 -2.72521,1.905 -5.66208,3.4925 -8.67832,4.89479 -4.86833,2.27542 -10.00125,3.86292 -15.29292,4.84188 -2.09021,0.39687 -4.20687,0.66146 -6.32354,0.84667 -2.40771,0.21166 -4.78896,0.26458 -7.19667,0.1852 -3.06916,-0.13229 -6.138334,-0.47625 -9.181043,-1.05833 -2.936875,-0.58208 -5.847291,-1.29646 -8.678333,-2.27542 -5.926667,-2.03729 -11.456458,-4.86833 -16.536458,-8.54604 -2.010833,-1.45521 -3.942292,-3.01625 -5.794375,-4.68312 -2.672292,-2.40771 -5.08,-5.08 -7.276042,-7.9375 -2.8575,-3.70417 -5.23875,-7.67292 -7.223125,-11.90625 -2.116666,-4.52438 -3.624791,-9.23396 -4.550833,-14.12875 -0.423333,-2.19604 -0.687916,-4.41854 -0.926041,-6.6675 -0.264584,-2.67229 -0.211667,-5.34459 -0.185209,-8.04334 0,-0.55562 0.07937,-1.11125 0.105834,-1.66687 0.02646,-0.37042 -0.105834,-0.52917 -0.47625,-0.60854 -1.561042,-0.3175 -3.069167,-0.79375 -4.497917,-1.56104 -0.740833,-0.39688 -1.42875,-0.84667 -1.957917,-1.48167 -0.449791,-0.52917 -0.370416,-0.68792 0.211667,-1.05833 1.217083,-0.7673 2.248958,-1.79917 3.280833,-2.83105 0.15875,-0.15875 0.185209,-0.29104 -0.05292,-0.37041 -0.714375,-0.3175 -0.846667,-0.97896 -0.873125,-1.64042 -0.02646,-0.82021 -0.105834,-1.64042 0.105833,-2.46062 0.05292,-0.23813 -0.02646,-0.37042 -0.238125,-0.52917 -0.661458,-0.44979 -1.296458,-0.9525 -1.931458,-1.42875 -0.370417,-0.29104 -0.396875,-0.68792 -0.15875,-1.05833 0.264583,-0.37042 0.185208,-0.9525 0.661458,-1.13771 0.423333,-0.15875 0.767292,0.29104 1.190625,0.37041 0.15875,0.0265 0.291042,0.0794 0.423333,0.10584 1.137709,0.26458 1.164167,0.23812 1.772709,-0.74084 0.582083,-0.9525 1.455208,-1.61395 2.434166,-2.11666 0.423334,-0.21167 0.767292,-0.0265 1.005417,0.34396 0.105833,0.10583 0.211667,0.3175 0.370417,0.635 z"
       id="path2"
       style="stroke-width:0.264583" /><path
       d="m 142.40547,211.94597 c 0.15875,-0.89958 0.34396,-1.95792 0.50271,-3.01625 0.0794,-0.50271 0.1852,-0.97896 0.13229,-1.50812 -0.15875,-1.13771 -1.05834,-1.69334 -1.77271,-2.38125 -0.60854,-0.55563 -1.21708,-1.11125 -1.71979,-1.77271 -0.55563,-0.74084 -0.37042,-1.21709 0.52917,-1.45521 1.37583,-0.34396 2.77812,-0.635 4.10104,-1.13771 0.44979,-0.15875 0.89958,-0.39687 1.34937,-0.52917 0.76729,-0.23812 0.97896,-0.89958 1.21708,-1.50812 0.4498,-1.21708 1.21709,-2.32833 1.53459,-3.62479 0.0529,-0.23813 0.21166,-0.39688 0.47625,-0.39688 0.21166,0 0.34396,0.0794 0.44979,0.26459 0.37042,0.79375 0.92604,1.48166 1.45521,2.19604 0.47625,0.68791 0.92604,1.37583 1.21708,2.14312 0.52917,1.34938 1.5875,1.77271 2.91042,1.905 1.11125,0.13229 2.24896,0.10584 3.33375,0.34396 1.11125,0.23813 1.29646,0.92604 0.50271,1.74625 -0.79375,0.84667 -1.69334,1.5875 -2.40771,2.51354 -0.55563,0.71438 -0.84667,1.53459 -0.84667,2.46063 0,1.48166 0.15875,2.96333 0.23813,4.41854 v 0.50271 c -0.0794,0.60854 -0.4498,0.84666 -1.03188,0.66146 -1.05833,-0.34396 -2.11667,-0.66146 -3.09562,-1.19063 -0.58209,-0.3175 -1.21709,-0.55562 -1.82563,-0.87312 -0.39687,-0.21167 -0.74083,-0.0529 -1.08479,0.10583 -1.08479,0.50271 -2.16958,1.00542 -3.28083,1.50812 -0.23813,0.10584 -0.47625,0.21167 -0.74084,0.29105 -1.32291,0.47625 -2.16958,-0.1323 -2.14312,-1.66688 z"
       id="path3"
       style="stroke-width:0.264583" /><path
       d="m 26.385678,62.350555 c 0.185208,-0.926041 0.370417,-2.06375 0.608542,-3.201458 0.15875,-0.767292 0.02646,-1.481667 -0.396875,-2.143125 -0.687917,-1.058333 -1.561042,-1.905 -2.54,-2.672292 -0.555625,-0.423333 -1.137709,-0.899583 -1.164167,-1.693333 -0.02646,-0.79375 0.343958,-1.164166 1.137708,-1.296458 1.42875,-0.211667 2.910417,-0.291042 4.312709,-0.661458 0.846666,-0.238125 1.561041,-0.687917 1.957916,-1.534584 0.582084,-1.190625 1.190625,-2.38125 1.640417,-3.624791 0.132292,-0.343959 0.264583,-0.767292 0.714375,-0.79375 0.423333,-0.02646 0.661458,0.3175 0.899583,0.608541 0.529167,0.714375 0.79375,1.561042 1.137709,2.38125 0.608541,1.455209 1.5875,2.566459 3.01625,3.254375 0.502708,0.238125 1.031875,0.370417 1.561041,0.370417 0.846667,-0.02646 1.640417,0.132292 2.434167,0.3175 0.502708,0.105833 0.978958,0.264583 1.058333,0.846667 0.07938,0.529166 -0.291041,0.846666 -0.661458,1.164166 -0.608542,0.502708 -1.190625,1.031875 -1.825625,1.508125 -1.375833,1.058333 -1.402292,2.513542 -1.27,4.074583 0.132292,1.296459 0.502708,2.592917 0.185208,3.889375 -0.15875,0.635 -0.423333,0.846667 -1.084791,0.820209 -1.084792,-0.05292 -2.010834,-0.555625 -2.8575,-1.164167 -0.370417,-0.264583 -0.714375,-0.555625 -1.137709,-0.714375 -0.873125,-0.370417 -1.719791,-0.291042 -2.54,0.132292 -1.031875,0.502708 -2.06375,1.005416 -3.095625,1.481666 -0.343958,0.15875 -0.687916,0.291042 -1.084791,0.211667 -0.740834,-0.185208 -1.005417,-0.502708 -1.005417,-1.561042 z"
       id="path4"
       style="stroke-width:0.264583" /><path
       d="m 157.27505,33.775556 c -0.47625,-0.185209 -1.11125,-0.343959 -1.66687,-0.635 -0.89959,-0.47625 -1.74625,-0.582084 -2.72521,-0.185209 -0.87313,0.370417 -1.77271,0.740834 -2.69875,0.978959 -0.29104,0.07937 -0.55563,0.132291 -0.79375,-0.105834 -0.21167,-0.238125 -0.13229,-0.529166 -0.0529,-0.79375 0.29104,-0.846666 0.47625,-1.693333 0.50271,-2.566458 0.0265,-0.608542 -0.23813,-1.058333 -0.60854,-1.508125 -0.60854,-0.687917 -1.27,-1.296458 -1.95792,-1.931458 -0.21167,-0.211667 -0.47625,-0.396875 -0.37042,-0.767292 0.10584,-0.343958 0.42334,-0.502708 0.7673,-0.582083 1.11125,-0.3175 2.24895,-0.555625 3.33375,-0.926042 0.3175,-0.105833 0.47625,-0.264583 0.60854,-0.582083 0.39687,-0.873125 0.82021,-1.74625 1.27,-2.566458 0.34396,-0.661459 0.66146,-0.635 1.11125,-0.05292 0.52916,0.661458 0.84666,1.455208 1.34937,2.116667 0.74084,1.005416 1.74625,1.42875 2.91042,1.561041 0.52917,0.05292 1.08479,0.07937 1.61396,0.132292 0.39687,0.02646 0.71437,0.211667 0.82021,0.582083 0.0794,0.343959 -0.18521,0.555625 -0.42334,0.79375 -0.71437,0.635 -1.45521,1.217083 -2.03729,1.984375 -0.635,0.846667 -0.58208,1.825625 -0.47625,2.804583 0.0529,0.555625 0.13229,1.11125 0.18521,1.666875 0.0529,0.343959 -0.13229,0.555625 -0.66146,0.582084 z"
       id="path5"
       style="stroke-width:0.264583" /><path
       d="m 33.053178,179.58743 c 0.15875,-0.71438 0.105833,-1.56104 0.105833,-2.38125 0,-0.3175 -0.07937,-0.52917 -0.3175,-0.74083 -0.582083,-0.55563 -1.137708,-1.13771 -1.719791,-1.7198 -0.238125,-0.23812 -0.449792,-0.47625 -0.291042,-0.84666 0.132292,-0.37042 0.449792,-0.44979 0.820208,-0.47625 1.190625,-0.0529 2.2225,-0.635 3.307292,-1.03188 0.423333,-0.15875 0.555625,-0.66146 0.714375,-1.03187 0.238125,-0.47625 0.449792,-0.97896 0.502708,-1.53459 0.02646,-0.23812 0.15875,-0.39687 0.370417,-0.42333 0.238125,-0.0529 0.396875,0.10583 0.502708,0.29104 0.291042,0.55563 0.661459,1.05834 0.846667,1.64042 0.3175,0.89958 0.9525,1.32292 1.825625,1.56104 0.846667,0.23813 1.74625,0.18521 2.592917,0.50271 0.291041,0.10583 0.661458,0.15875 0.714375,0.52917 0.05292,0.37041 -0.264584,0.47625 -0.502709,0.68791 -0.396875,0.34396 -0.767291,0.71438 -1.190625,1.03188 -0.529166,0.42333 -0.661458,0.97896 -0.661458,1.5875 0,0.79375 0.02646,1.56104 0.105833,2.35479 0.07938,0.97896 -0.238125,1.16417 -1.11125,0.74083 -0.47625,-0.23812 -0.9525,-0.44979 -1.402291,-0.71437 -0.370417,-0.21167 -0.687917,-0.21167 -1.084792,-0.0794 -1.005417,0.37042 -2.037292,0.635 -3.042708,1.00542 -0.714375,0.29104 -1.084792,0.0265 -1.084792,-0.9525 z"
       id="path6"
       style="stroke-width:0.264583" /><path
       class="st1"
       d="m 121.2388,41.263264 c 0,1.481667 -1.19062,2.645833 -2.69875,2.672292 -1.56104,0 -2.8575,-1.217084 -2.8575,-2.725209 0,-1.508125 1.21709,-2.69875 2.72521,-2.69875 1.56104,0 2.83104,1.217084 2.83104,2.751667 z"
       id="path7"
       style="stroke-width:0.264583" /><path
       d="m 161.11151,186.86347 c -0.0265,-0.3175 0.10583,-0.58208 0.15875,-0.87312 0.15875,-0.74084 -0.0529,-1.37584 -0.68792,-1.82563 -0.21166,-0.15875 -0.44979,-0.29104 -0.635,-0.44979 -0.44979,-0.44979 -0.34396,-0.84667 0.26459,-1.03188 0.39687,-0.10583 0.79375,-0.26458 1.19062,-0.34395 0.68792,-0.1323 1.11125,-0.55563 1.37583,-1.16417 0.0794,-0.23813 0.18521,-0.44979 0.29105,-0.66146 0.10583,-0.18521 0.23812,-0.42333 0.5027,-0.39687 0.23813,0.0264 0.3175,0.21166 0.37042,0.42333 0.0265,0.10583 0.0794,0.21167 0.10583,0.3175 0.42334,1.11125 0.92605,1.48167 2.11667,1.48167 0.39688,0 0.79375,-0.0265 1.16417,0.13229 0.52916,0.26458 0.58208,0.68791 0.0794,1.03187 -0.0794,0.0529 -0.15875,0.0794 -0.23812,0.13229 -0.92604,0.50271 -1.13771,0.89959 -0.9525,1.905 0.0794,0.42334 0.0794,0.84667 0.0794,1.29646 0,0.58209 -0.29104,0.74084 -0.79375,0.44979 -0.39687,-0.21166 -0.82021,-0.44979 -1.21708,-0.71437 -0.23813,-0.13229 -0.39688,-0.18521 -0.635,0.0265 -0.52917,0.42333 -1.19063,0.635 -1.82563,0.87312 -0.5027,0.21167 -0.74083,0 -0.71437,-0.60854 z"
       id="path8"
       style="stroke-width:0.264583" /><path
       d="m 51.997344,188.79493 c 0.02646,-0.23813 -0.105833,-0.39688 -0.238125,-0.52917 -0.343958,-0.3175 -0.661458,-0.66146 -0.978958,-1.00541 -0.185208,-0.21167 -0.3175,-0.4498 -0.211667,-0.71438 0.105834,-0.29104 0.370417,-0.3175 0.661459,-0.34396 1.296458,-0.0794 2.143125,-0.74083 2.566458,-2.01083 0.05292,-0.18521 0.05292,-0.42333 0.3175,-0.44979 0.264583,-0.0265 0.423333,0.15875 0.529167,0.34396 0.370416,0.52916 0.767291,1.03187 1.243541,1.42875 0.396875,0.3175 0.846667,0.44979 1.349375,0.47625 0.291042,0.0264 0.635,0.0264 0.740834,0.39687 0.07937,0.34396 -0.185209,0.47625 -0.396875,0.66146 -0.635,0.55562 -1.164167,1.16417 -0.873125,2.14312 0.105833,0.37042 0.05292,0.82021 0.185208,1.21709 0.05292,0.21166 0.05292,0.39687 -0.132292,0.50271 -0.211666,0.10583 -0.396875,0.0529 -0.555625,-0.10584 -0.291041,-0.29104 -0.608541,-0.58208 -0.978958,-0.76729 -0.264583,-0.13229 -0.47625,-0.15875 -0.79375,0.0529 -0.661458,0.42333 -1.455208,0.66146 -2.169583,1.03187 -0.449792,0.23813 -0.820209,-0.18521 -0.687917,-0.74083 0.105833,-0.44979 0.264583,-0.89958 0.396875,-1.34938 0,-0.10583 0,-0.1852 0.02646,-0.23812 z"
       id="path9"
       style="stroke-width:0.264583" /><path
       d="m 196.03651,139.50305 c 0.0265,-0.1852 0.0529,-0.52916 0.15875,-0.8202 0.18521,-0.60855 0.13229,-1.13771 -0.42333,-1.56105 -0.1323,-0.10583 -0.23813,-0.29104 -0.34396,-0.44979 -0.21167,-0.29104 -0.66146,-0.42333 -0.58209,-0.82021 0.0794,-0.52916 0.58209,-0.21166 0.89959,-0.3175 1.13771,-0.39687 2.19604,-0.89958 2.43416,-2.27541 0.0265,-0.21167 0.1323,-0.39688 0.39688,-0.39688 0.29104,0 0.34396,0.15875 0.44979,0.39688 0.26458,0.55562 0.55563,1.11125 0.9525,1.5875 0.37042,0.47625 1.03188,0.34396 1.56104,0.50271 0.26459,0.0794 0.55563,0.0794 0.82021,0.1852 0.44979,0.15875 0.50271,0.55563 0.13229,0.84667 -0.10583,0.0794 -0.21166,0.15875 -0.3175,0.21167 -0.92604,0.44979 -1.05833,1.21708 -0.84666,2.11666 0.0794,0.29105 0.0529,0.55563 0.0529,0.84667 0,0.60854 -0.3175,0.79375 -0.89958,0.52917 -0.37042,-0.18521 -0.74083,-0.37042 -1.08479,-0.60854 -0.37042,-0.23813 -0.66146,-0.21167 -1.03188,0 -0.47625,0.29104 -1.00541,0.52916 -1.50812,0.71437 -0.635,0.23813 -0.82021,0.10583 -0.82021,-0.68792 z"
       id="path10"
       style="stroke-width:0.264583" /><path
       class="st1"
       d="m 77.053386,63.54118 c -1.375834,0 -2.354792,-0.714375 -2.54,-1.772708 -0.185209,-1.11125 0.47625,-2.116667 1.613958,-2.513542 1.058333,-0.370416 2.143125,-0.07937 2.751667,0.687917 0.555625,0.687917 0.635,1.666875 0.15875,2.434167 -0.47625,0.79375 -1.243542,1.11125 -1.984375,1.164166 z"
       id="path11"
       style="stroke-width:0.264583" /><path
       d="m 35.064011,204.5641 c -0.529166,0 -0.978958,-0.29105 -1.375833,-0.58209 -0.264583,-0.21166 -0.47625,-0.18521 -0.767292,-0.0794 -0.608541,0.21166 -1.217083,0.37041 -1.825625,0.50271 -0.370416,0.0794 -0.687916,-0.1323 -0.502708,-0.47625 0.608542,-1.27 0.105833,-2.24896 -0.687917,-3.20146 l -0.15875,-0.23813 c -0.15875,-0.18521 -0.370416,-0.34396 -0.264583,-0.635 0.132292,-0.29104 0.396875,-0.3175 0.661458,-0.29104 0.714375,0.0794 1.322917,-0.34396 1.957917,-0.55562 0.529167,-0.18521 0.767292,-0.82021 0.820208,-1.45521 0,-0.21167 -0.05292,-0.50271 0.238125,-0.55563 0.291042,-0.0265 0.343959,0.23813 0.449792,0.47625 0.396875,0.89959 0.978958,1.64042 2.010833,1.85209 0.423334,0.0794 0.846667,0.15875 1.217084,0.39687 0.423333,0.23813 0.47625,0.55563 0.15875,0.89958 -0.185209,0.18521 -0.396875,0.34396 -0.608542,0.50271 -0.79375,0.52917 -0.926042,0.82021 -0.714375,1.74625 0.07937,0.34396 0.07937,0.66146 0.07937,1.00542 0,0.52917 -0.15875,0.66146 -0.687917,0.68792 z"
       id="path12"
       style="stroke-width:0.264583" /><path
       d="m 4.3458867,107.96472 c -0.5027083,0.23813 -1.1377083,0.39688 -1.74625,0.60854 -0.9260416,0.3175 -1.1906249,0.0794 -1.0054166,-0.87312 0.1852083,-0.89959 0.052917,-1.66688 -0.71437501,-2.24896 l -0.238125,-0.23813 c -0.55562499,-0.55562 -0.47624999,-0.84666 0.26458333,-1.08479 0.23812498,-0.0794 0.47624998,-0.15875 0.71437498,-0.18521 1.031875,-0.15875 1.4552083,-0.89958 1.6933333,-1.79916 0.052917,-0.23813 0.079375,-0.52917 0.3439584,-0.58209 0.3175,-0.0529 0.5027083,0.21167 0.5556249,0.4498 0.3704167,1.34937 1.3229167,1.85208 2.619375,1.93145 0.2910417,0.0265 0.7408333,-0.0264 0.79375,0.37042 0.052917,0.39688 -0.2645833,0.68792 -0.5820833,0.89958 -0.555625,0.37042 -0.7408333,0.87313 -0.635,1.53459 0.079375,0.50271 0,1.00541 0.079375,1.50812 0.052917,0.3175 -0.4497917,0.47625 -0.8466667,0.26459 -0.2116666,-0.10584 -0.396875,-0.26459 -0.6085416,-0.39688 -0.1852084,-0.0794 -0.3704167,-0.18521 -0.6879167,-0.15875 z"
       id="path13"
       style="stroke-width:0.264583" /><path
       class="st2"
       d="m 161.11151,51.317431 c -0.0265,-0.185209 0.10583,-0.370417 0.18521,-0.582084 0.29104,-0.661458 0.18521,-1.243541 -0.34396,-1.74625 -0.29104,-0.264583 -0.58208,-0.529166 -0.79375,-0.873125 -0.29104,-0.47625 -0.15875,-0.740833 0.34396,-0.820208 0.3175,-0.05292 0.66146,-0.132292 0.97896,-0.211667 1.05833,-0.291041 1.5875,-1.031875 1.74625,-2.090208 0.0264,-0.185208 0.0529,-0.343958 0.26458,-0.370417 0.18521,-0.02646 0.3175,0.132292 0.37042,0.291042 0.0794,0.15875 0.10583,0.370417 0.1852,0.529167 0.29105,0.714375 0.79375,1.137708 1.56105,1.296458 0.52916,0.105833 1.05833,0.238125 1.53458,0.502708 0.37042,0.185209 0.44979,0.423334 0.18521,0.767292 -0.29104,0.370417 -0.60854,0.714375 -0.89959,1.084792 -0.26458,0.3175 -0.3175,0.687916 -0.23812,1.11125 0.0794,0.423333 0.0794,0.846666 0.0529,1.296458 -0.0265,0.423333 -0.3175,0.529167 -0.68792,0.423333 -0.15875,-0.05292 -0.3175,-0.132291 -0.44979,-0.185208 -0.87313,-0.396875 -1.74625,-0.3175 -2.59292,0.02646 -0.26458,0.105834 -0.58208,0.15875 -0.87312,0.185209 -0.34396,0 -0.52917,-0.211667 -0.52917,-0.635 z"
       id="path14"
       style="stroke-width:0.264583" /><path
       class="st1"
       d="m 176.4838,169.93014 c 0,0.9525 -0.76729,1.69333 -1.71979,1.69333 -1.00542,0 -1.82563,-0.84667 -1.82563,-1.82562 0,-0.9525 0.7673,-1.69334 1.7198,-1.69334 1.03187,0 1.82562,0.82021 1.82562,1.82563 z"
       id="path15"
       style="stroke-width:0.264583" /><path
       class="st3"
       d="m 120.49797,191.20264 c 0.92604,0.0265 1.61396,0.66146 1.5875,1.48166 -0.0265,0.79375 -0.68792,1.4023 -1.53458,1.37584 -0.87313,-0.0265 -1.5875,-0.71438 -1.56105,-1.53459 0.0265,-0.76729 0.66146,-1.34937 1.50813,-1.32291 z"
       id="path16"
       style="stroke-width:0.264583" /><path
       class="st4"
       d="m 182.48984,38.934931 c -0.92604,0.02646 -1.71979,-0.582084 -1.74625,-1.349375 -0.0265,-0.687917 0.52917,-1.243542 1.24354,-1.27 0.82021,-0.02646 1.53459,0.714375 1.53459,1.561041 0,0.608542 -0.42334,1.031875 -1.03188,1.058334 z"
       id="path17"
       style="stroke-width:0.264583" /><path
       class="st5"
       d="m 72.846511,183.26514 c -0.687917,0 -1.217083,-0.50271 -1.217083,-1.13771 0,-0.74083 0.687916,-1.37583 1.508125,-1.34938 0.687916,0 1.243541,0.52917 1.243541,1.19063 0,0.68792 -0.687916,1.29646 -1.534583,1.29646 z"
       id="path18"
       style="stroke-width:0.264583" /><path
       class="st6"
       d="m 112.26943,205.96639 c 0,0.58208 -0.44979,1.03187 -1.03188,1.03187 -0.635,0.0265 -1.29646,-0.60854 -1.29646,-1.21708 -0.0264,-0.55563 0.4498,-0.97896 1.0848,-0.97896 0.68791,0 1.27,0.52917 1.24354,1.16417 z"
       id="path19"
       style="stroke-width:0.264583" /><path
       class="st5"
       d="m 19.427137,140.77305 c -0.555625,0 -0.926042,-0.3175 -0.926042,-0.8202 0,-0.60855 0.740833,-1.24355 1.42875,-1.24355 0.582083,0 1.031875,0.39688 1.031875,0.9525 0.02646,0.66146 -0.608542,1.11125 -1.534583,1.11125 z"
       id="path20"
       style="stroke-width:0.264583" /><path
       class="st5"
       d="m 23.581095,115.2143 c 0,0.18521 -0.05292,0.37042 -0.15875,0.52917 -0.291042,0.39688 -0.846667,0.47625 -1.296459,0.21167 -0.740833,-0.44979 -1.058333,-1.00542 -0.820208,-1.48167 0.05292,-0.10583 0.132292,-0.23812 0.238125,-0.29104 0.502708,-0.34396 0.978958,-0.0529 1.42875,0.13229 0.396875,0.13229 0.608542,0.47625 0.608542,0.89958 z"
       id="path21"
       style="stroke-width:0.264583" /><path
       class="st7"
       d="m 82.318594,195.72701 c 0.02646,0.66146 -0.291042,1.03188 -0.820208,1.05834 -0.529167,0.0265 -0.9525,-0.42334 -0.9525,-1.03188 -0.02646,-0.58208 0.423333,-1.08479 0.9525,-1.11125 0.555625,-0.0265 0.79375,0.29104 0.820208,1.08479 z"
       id="path22"
       style="stroke-width:0.264583" /><path
       class="st8"
       d="m 89.885677,208.34764 c 0,0.52916 -0.396875,0.92604 -0.926041,0.92604 -0.529167,0 -0.978959,-0.47625 -0.978959,-1.03188 0,-0.52916 0.396875,-0.92604 0.926042,-0.92604 0.555625,0.0265 1.005417,0.47625 0.978958,1.03188 z"
       id="path23"
       style="stroke-width:0.264583" /><path
       class="st9"
       d="m 64.062344,215.09451 c 0.291042,0.0265 0.555625,0.0794 0.79375,0.21167 0.423334,0.23812 0.582084,0.71437 0.370417,1.08479 -0.211667,0.37042 -0.661458,0.47625 -1.084792,0.26458 -0.185208,-0.10583 -0.343958,-0.23812 -0.502708,-0.34395 -0.291042,-0.18521 -0.47625,-0.42334 -0.343958,-0.79375 0.105833,-0.29105 0.396875,-0.42334 0.767291,-0.42334 z"
       id="path24"
       style="stroke-width:0.264583" /><path
       class="st7"
       d="m 190.26859,118.04535 c 0.0265,0.42333 -0.3175,0.79375 -0.76729,0.79375 -0.60854,0.0264 -1.19062,-0.42334 -1.21708,-0.92605 0,-0.42333 0.29104,-0.74083 0.71437,-0.76729 0.66146,0 1.24354,0.42334 1.27,0.89959 z"
       id="path25"
       style="stroke-width:0.264583" /><path
       class="st10"
       d="m 40.038178,145.90597 c 0,0.42333 -0.343958,0.74083 -0.767292,0.71438 -0.449791,-0.0265 -0.767291,-0.37042 -0.740833,-0.82021 0.02646,-0.42334 0.343958,-0.76729 0.767292,-0.74084 0.423333,0.0529 0.740833,0.42334 0.740833,0.84667 z"
       id="path26"
       style="stroke-width:0.264583" /><path
       class="st11"
       d="m 177.88609,78.992847 c 0.42334,-0.02646 0.71438,0.05292 0.84667,0.423333 0.0794,0.211667 0.0265,0.423333 -0.13229,0.555625 -0.26459,0.238125 -0.55563,0.185208 -0.82021,0.02646 -0.0265,0 -0.0265,-0.02646 -0.0529,-0.02646 -0.23812,-0.15875 -0.71437,-0.185208 -0.60854,-0.608541 0.0794,-0.396875 0.50271,-0.3175 0.76729,-0.370417 z"
       id="path27"
       style="stroke-width:0.264583" /><path
       class="st12"
       d="m 167.96422,154.18743 c -0.42334,0 -0.79375,-0.3175 -0.76729,-0.71438 0.0264,-0.37041 0.23812,-0.58208 0.60854,-0.60854 0.42333,-0.0265 0.79375,0.29104 0.79375,0.68792 0.0265,0.37042 -0.26459,0.635 -0.635,0.635 z"
       id="path28"
       style="stroke-width:0.264583" /><path
       class="st13"
       d="m 30.96297,89.920138 c -0.211667,-0.02646 -0.396875,-0.02646 -0.582084,-0.05292 -0.238125,-0.02646 -0.449791,-0.07937 -0.47625,-0.370417 0,-0.264583 0.185209,-0.396875 0.423334,-0.47625 0.185208,-0.05292 0.370416,-0.07937 0.555625,-0.105833 0.370416,-0.05292 0.714375,0.05292 0.740833,0.47625 0.02646,0.449791 -0.3175,0.555625 -0.661458,0.529166 z"
       id="path29"
       style="stroke-width:0.264583" /><path
       class="st14"
       d="m 127.11255,58.487639 c -0.44979,0 -0.76729,-0.132292 -0.76729,-0.582084 0,-0.396875 0.29104,-0.555625 0.635,-0.555625 0.39688,0.02646 0.87313,0.02646 0.89958,0.555625 0,0.502709 -0.44979,0.529167 -0.76729,0.582084 z"
       id="path30"
       style="stroke-width:0.264583" /><path
       class="st15"
       d="m 193.33776,91.904513 c -0.34396,-0.02646 -0.66146,-0.132291 -0.66146,-0.529166 0.0265,-0.396875 0.3175,-0.635 0.71438,-0.661459 0.37041,-0.02646 0.60854,0.211667 0.60854,0.582084 0,0.423333 -0.29104,0.555625 -0.66146,0.608541 z"
       id="path31"
       style="stroke-width:0.264583" /><path
       class="st16"
       d="m 65.808594,45.126181 c 0.264584,0.05292 0.582084,0.132291 0.714375,0.47625 0.07937,0.185208 -0.07937,0.396875 -0.211666,0.396875 -0.370417,0 -0.714375,0.396875 -1.084792,0.02646 -0.15875,-0.15875 -0.211667,-0.370417 -0.105833,-0.555625 0.132291,-0.238125 0.370416,-0.343958 0.687916,-0.343958 z"
       id="path32"
       style="stroke-width:0.264583" /><path
       class="st17"
       d="m 187.94026,167.0991 c 0.34396,0.0794 0.55562,0.3175 0.55562,0.74083 0,0.3175 -0.21166,0.44979 -0.52916,0.42333 -0.42334,-0.0529 -0.74084,-0.37041 -0.71438,-0.71437 0.0529,-0.29104 0.3175,-0.47625 0.68792,-0.44979 z"
       id="path33"
       style="stroke-width:0.264583" /><path
       class="st18"
       d="m 151.56005,53.592847 c -0.34396,-0.05292 -0.55562,-0.238125 -0.55562,-0.582083 0,-0.343958 0.21166,-0.555625 0.58208,-0.529167 0.34396,0 0.52917,0.238125 0.52917,0.582084 -0.0265,0.343958 -0.23813,0.476249 -0.55563,0.529166 z"
       id="path34"
       style="stroke-width:0.264583" /><path
       class="st19"
       d="m 55.569219,79.601389 c -0.3175,-0.05292 -0.555625,-0.185209 -0.555625,-0.529167 0,-0.370417 0.211667,-0.555625 0.582084,-0.555625 0.3175,0 0.555625,0.15875 0.555625,0.502708 0,0.396875 -0.238125,0.529167 -0.582084,0.582084 z"
       id="path35"
       style="stroke-width:0.264583" /><path
       class="st20"
       d="m 27.285261,169.6391 c -0.264583,-0.1323 -0.529166,-0.26459 -0.502708,-0.55563 0,-0.3175 0.3175,-0.47625 0.582083,-0.47625 0.291042,0.0265 0.608542,0.13229 0.608542,0.50271 -0.02646,0.47625 -0.502708,0.3175 -0.687917,0.52917 z"
       id="path36"
       style="stroke-width:0.264583" /><path
       class="st21"
       d="m 191.45922,62.985555 c -0.34396,-0.05292 -0.55563,-0.291041 -0.60854,-0.635 -0.0265,-0.264583 0.13229,-0.423333 0.39687,-0.396875 0.34396,0.02646 0.60854,0.185209 0.635,0.555625 0.0529,0.291042 -0.13229,0.449792 -0.42333,0.47625 z"
       id="path37"
       style="stroke-width:0.264583" /><path
       class="st22"
       d="m 124.57255,201.04514 c 0.26459,0.13229 0.71438,0.0529 0.74084,0.50271 0.0264,0.26458 -0.21167,0.37041 -0.42334,0.29104 -0.3175,-0.0794 -0.71437,-0.13229 -0.74083,-0.55563 0,-0.21166 0.21167,-0.23812 0.42333,-0.23812 z"
       id="path38"
       style="stroke-width:0.264583" /><path
       class="st23"
       d="m 182.33109,150.56264 c 0.29104,0.0265 0.47625,0.15875 0.47625,0.44979 0,0.26458 -0.18521,0.42333 -0.42333,0.42333 -0.29104,0 -0.52917,-0.15875 -0.50271,-0.47625 0,-0.26458 0.21167,-0.39687 0.44979,-0.39687 z"
       id="path39"
       style="stroke-width:0.264583" /><path
       class="st24"
       d="m 14.955678,65.12868 c -0.132291,0.264584 -0.185208,0.661459 -0.608541,0.687917 -0.238125,0.02646 -0.291042,-0.185208 -0.264584,-0.396875 0.07937,-0.343958 0.264584,-0.582083 0.635,-0.608542 0.185209,-0.02646 0.264584,0.105834 0.238125,0.3175 z"
       id="path40"
       style="stroke-width:0.264583" /><path
       class="st25"
       d="m 56.389428,171.94097 c -0.05292,0.26458 -0.211667,0.37042 -0.47625,0.37042 -0.238125,0 -0.449792,-0.10584 -0.449792,-0.39688 0,-0.26458 0.211667,-0.39687 0.449792,-0.37041 0.291041,0 0.449791,0.13229 0.47625,0.39687 z"
       id="path41"
       style="stroke-width:0.264583" /><path
       class="st26"
       d="m 97.955469,207.44805 c 0.264583,0.0265 0.502708,0.1323 0.529167,0.4498 0.02646,0.21166 -0.132292,0.34395 -0.343959,0.34395 -0.291041,0 -0.502708,-0.13229 -0.555625,-0.44979 -0.02646,-0.23812 0.105834,-0.34396 0.370417,-0.34396 z"
       id="path42"
       style="stroke-width:0.264583" /><path
       class="st27"
       d="m 178.60047,105.45118 c 0,0.26458 -0.10584,0.44979 -0.34396,0.44979 -0.26458,0 -0.42333,-0.13229 -0.42333,-0.39687 0,-0.26459 0.15875,-0.42334 0.42333,-0.42334 0.21167,0 0.3175,0.18521 0.34396,0.37042 z"
       id="path43"
       style="stroke-width:0.264583" /><path
       class="st28"
       d="m 127.82693,188.8743 c 0.21166,0.0265 0.44979,0.0794 0.47625,0.37042 0,0.21167 -0.13229,0.3175 -0.3175,0.29104 -0.23813,-0.0529 -0.52917,-0.10583 -0.52917,-0.39687 -0.0265,-0.23813 0.15875,-0.26459 0.37042,-0.26459 z"
       id="path44"
       style="stroke-width:0.264583" /><path
       class="st29"
       d="m 193.44359,107.51493 c 0,0.23812 -0.15875,0.34396 -0.37041,0.37042 -0.21167,0.0264 -0.37042,-0.0529 -0.39688,-0.29105 -0.0265,-0.23812 0.13229,-0.34395 0.34396,-0.34395 0.18521,-0.0265 0.34396,0.0529 0.42333,0.26458 z"
       id="path45"
       style="stroke-width:0.264583" /><path
       class="st23"
       d="m 174.07609,137.2541 c 0.21167,0.0265 0.39688,0.13229 0.42334,0.34395 0.0265,0.21167 -0.10584,0.3175 -0.29105,0.3175 -0.23812,0 -0.44979,-0.10583 -0.47625,-0.37041 -0.0265,-0.21167 0.1323,-0.26459 0.34396,-0.29104 z"
       id="path46"
       style="stroke-width:0.264583" /><path
       class="st30"
       d="m 42.128386,156.96555 c -0.185208,-0.0265 -0.370416,-0.0794 -0.396875,-0.3175 -0.02646,-0.21166 0.105834,-0.3175 0.291042,-0.34395 0.238125,-0.0265 0.423333,0.0794 0.423333,0.3175 0.02646,0.21166 -0.132291,0.3175 -0.3175,0.34395 z"
       id="path47"
       style="stroke-width:0.264583" /><path
       class="st31"
       d="m 180.13505,121.96118 c 0,0.21167 -0.10583,0.34396 -0.29104,0.34396 -0.21167,0.0265 -0.34396,-0.13229 -0.37042,-0.34396 -0.0265,-0.21167 0.10584,-0.3175 0.29104,-0.34396 0.23813,0 0.34396,0.13229 0.37042,0.34396 z"
       id="path48"
       style="stroke-width:0.264583" /><path
       class="st32"
       d="m 105.54901,195.43597 c -0.18521,0 -0.3175,-0.10583 -0.34396,-0.29104 -0.0265,-0.21167 0.10584,-0.3175 0.29104,-0.3175 0.18521,0 0.3175,0.10583 0.34396,0.29104 0.0265,0.18521 -0.10583,0.29104 -0.29104,0.3175 z"
       id="path49"
       style="stroke-width:0.264583" /><path
       class="st33"
       d="m 83.615052,38.829097 c -0.211666,-0.02646 -0.370416,-0.15875 -0.396875,-0.396875 -0.02646,-0.15875 0.05292,-0.264583 0.211667,-0.238125 0.211667,0.05292 0.423333,0.07937 0.449792,0.343959 0.02646,0.185208 -0.105834,0.264583 -0.264584,0.291041 z"
       id="path50"
       style="stroke-width:0.264583" /><path
       class="st34"
       d="m 173.38818,58.090764 c -0.0265,0.211666 -0.1323,0.3175 -0.29105,0.291041 -0.1852,0 -0.3175,-0.132291 -0.3175,-0.343958 0,-0.185208 0.10584,-0.264583 0.29105,-0.264583 0.21166,0.02646 0.29104,0.15875 0.3175,0.3175 z"
       id="path51"
       style="stroke-width:0.264583" /><path
       class="st35"
       d="m 56.019011,56.106389 c -0.238125,-0.02646 -0.423333,-0.07937 -0.423333,-0.370417 0,-0.185208 0.15875,-0.185208 0.291041,-0.132292 0.211667,0.05292 0.449792,0.105834 0.449792,0.343959 0.02646,0.238125 -0.185208,0.132291 -0.3175,0.15875 z"
       id="path52"
       style="stroke-width:0.264583" /><path
       class="st36"
       d="m 135.73797,74.124514 c -0.39688,0.343958 -0.37042,0.582083 0.13229,0.820208 0.52917,0.238125 1.11125,0.291042 1.66688,0.423333 0.60854,-0.02646 1.03187,0.3175 1.48166,0.687917 5.15938,4.550833 9.68375,9.68375 13.46729,15.451666 2.01084,3.095625 3.67771,6.376459 5.18584,9.736662 2.03729,4.63021 3.57187,9.41917 4.65666,14.34042 0.71438,3.25438 1.13771,6.53521 1.48167,9.8425 0.44979,4.18042 0.47625,8.38729 0.39687,12.59417 -0.0265,1.50812 -0.0794,3.04271 -0.5027,4.52437 -0.55563,2.09021 -1.37584,4.07459 -2.2225,6.08542 -0.58209,1.34937 -1.24355,2.67229 -1.93146,4.02167 -0.0529,-0.4498 -0.10584,-0.87313 -0.15875,-1.29646 -0.0265,-0.15875 -0.10584,-0.3175 -0.26459,-0.3175 -0.15875,0 -0.26458,0.13229 -0.3175,0.29104 -0.0794,0.23812 -0.15875,0.47625 -0.15875,0.71437 -0.23812,2.64584 -0.3175,5.26521 0.66146,7.83167 -2.38125,0.26458 -4.36562,1.45521 -6.35,2.61938 -4.1275,2.43416 -7.54062,5.63562 -10.02771,9.76312 -0.44979,0.76729 -0.76729,1.5875 -0.89958,2.46063 -1.66687,-0.60855 -3.30729,-0.3175 -4.94771,-0.0265 -0.21166,0.0265 -0.39687,0.0529 -0.60854,0.0794 -1.87854,0.3175 -3.73062,0 -5.58271,-0.21166 -1.7727,-0.18521 -3.51895,-0.55563 -5.23875,-0.97896 -1.08479,-0.13229 -2.06375,-0.52917 -3.09562,-0.84667 -6.16479,-1.95792 -11.93271,-4.81542 -17.40958,-8.22854 -3.59834,-2.24896 -6.958546,-4.78896 -10.107088,-7.62 -4.392083,-3.91583 -8.228541,-8.33438 -11.58875,-13.14979 -1.005416,-1.42875 -1.984375,-2.88396 -2.910416,-4.36563 -0.15875,-0.23812 -0.449792,-0.60854 0.15875,-0.68791 0.291041,0.0265 0.47625,0.21166 0.687916,0.34395 0.343959,0.23813 0.529167,0.15875 0.661459,-0.23812 0.05292,-0.15875 0.05292,-0.34396 0.05292,-0.50271 -0.05292,-2.54 0.370417,-5.05354 0.635,-7.56708 0.185209,-1.905 0.211667,-3.83646 -0.449791,-5.66209 -0.661459,-1.85208 -1.984375,-2.96333 -3.942292,-3.25437 -0.79375,-0.10583 -1.534583,0.13229 -2.2225,0.47625 -0.740833,0.39687 -1.455208,0.87312 -2.06375,1.45521 -0.15875,0.15875 -0.291041,0.34396 -0.555625,0.34396 -0.3175,-0.0794 -0.370416,-0.34396 -0.47625,-0.58209 -0.47625,-1.37583 -0.846666,-2.75166 -1.217083,-4.15396 -0.07937,-0.34395 -0.105833,-0.66145 0.185208,-0.9525 0.767292,-0.47625 1.666875,-0.66145 2.513542,-0.97895 1.508125,-0.55563 3.069166,-0.97896 4.60375,-1.50813 0.396875,-0.13229 0.820208,-0.26458 1.190625,-0.50271 0.185208,-0.13229 0.396875,-0.26458 0.3175,-0.52916 -0.07937,-0.23813 -0.3175,-0.3175 -0.529167,-0.34396 -0.291042,-0.0529 -0.555625,0 -0.846667,0.0794 -2.354791,0.52917 -4.656666,1.29646 -6.905624,2.24896 -0.264584,0.10583 -0.502709,0.26458 -0.820209,0.18521 -0.370416,-0.13229 -0.396875,-0.47625 -0.47625,-0.79375 -0.423333,-1.98438 -0.740833,-3.99521 -0.9525,-6.00604 -0.264583,-2.46063 -0.423333,-4.92125 -0.343958,-7.40834 0.105833,-3.57187 0.529167,-7.090828 1.322917,-10.583328 0.02646,-0.15875 0.07937,-0.3175 0.15875,-0.47625 0.105833,-0.370417 0.396875,-0.529167 0.687916,-0.687917 3.148542,-1.852083 6.19125,-3.915833 9.181042,-6.0325 1.402291,-0.978958 2.778125,-1.984375 3.889375,-3.33375 0.423333,-0.529167 0.820208,-1.058333 1.164166,-1.666875 0.370417,-0.661458 0.502709,-0.687916 1.084792,-0.15875 0.343958,0.291042 0.687917,0.582083 1.084792,0.820208 0.15875,0.105834 0.343958,0.185209 0.529166,0.211667 0.211667,0.05292 0.47625,0.132292 0.582084,-0.05292 0.105833,-0.238125 -0.211667,-0.3175 -0.370417,-0.396875 -0.740833,-0.449791 -1.375833,-1.031874 -1.984375,-1.640416 -0.185208,-0.185208 -0.370417,-0.396875 -0.15875,-0.687917 0.15875,-0.211666 -0.05292,-0.264583 -0.15875,-0.291041 -0.370417,-0.132292 -0.767292,-0.211667 -1.164167,-0.211667 -2.910416,-0.15875 -5.741458,0.264583 -8.387291,1.508125 -0.238125,0.105833 -0.502709,0.264583 -0.79375,0.15875 -0.185209,-0.264583 0,-0.449792 0.132291,-0.661458 0.687917,-1.137709 1.349375,-2.248959 2.143125,-3.307292 0.185209,-0.15875 0.396875,-0.185208 0.635,-0.211667 1.852084,-0.370416 3.4925,-1.190625 5.000625,-2.301875 0.343959,-0.238125 0.635,-0.529166 0.873125,-0.873125 0.3175,-0.449791 0.264584,-0.740833 -0.211666,-1.005416 -0.370417,-0.238125 -0.79375,-0.185209 -1.190625,-0.132292 -0.211667,0.02646 -0.449792,0.07937 -0.661459,0.05292 -0.449791,-0.05292 -0.502708,-0.264584 -0.238125,-0.582084 1.058334,-1.296458 2.301875,-2.407708 3.4925,-3.598333 0.211667,-0.211667 0.502709,-0.264583 0.740834,-0.396875 2.328333,-0.846667 4.736041,-1.42875 7.170208,-1.878542 10.186457,-1.905 20.214167,-1.27 30.083117,1.878542 0.18521,0.05292 0.34396,0.132292 0.52917,0.211667 3.88938,1.772708 7.35542,4.28625 10.76854,6.82625 0.0529,0.05292 0.13229,0.07937 0.18521,0.132291 0.13229,0.132292 0.34396,0.238125 0.3175,0.449792 -0.0265,0.291042 -0.3175,0.05292 -0.44979,0.211667 z"
       id="path53"
       style="stroke-width:0.264583" /><path
       class="st37"
       d="m 71.470678,91.692847 c -0.555625,2.354791 -0.926042,4.736041 -1.217084,7.117291 -0.05292,0.47625 -0.07938,0.978959 -0.105833,1.455212 -0.15875,1.93145 -0.211667,3.86291 -0.105833,5.79437 0.15875,2.8575 0.370416,5.68854 0.9525,8.49313 0.132291,0.66145 0.264583,1.32291 0.370416,1.98437 0.02646,0.23813 0.07937,0.39688 0.343959,0.44979 0.02646,0.29104 -0.238125,0.3175 -0.396875,0.39688 -0.608542,0.3175 -1.217084,0.66146 -1.799167,1.05833 -0.15875,0.10583 -0.343958,0.18521 -0.396875,0.42333 0.211667,0.1323 0.423333,0.10584 0.635,0.0529 0.582083,-0.10583 1.190625,-0.18521 1.772708,-0.37042 0.211667,-0.0794 0.423334,-0.15875 0.635,0.0265 -0.185208,0.15875 -0.264583,0.34396 -0.185208,0.58209 0.423333,1.56104 0.846667,3.12208 1.375833,4.65666 0.02646,0.10584 0.132292,0.18521 0.185209,0.26459 0.07937,0.23812 -0.07937,0.42333 -0.185209,0.60854 -1.11125,1.85208 -1.561041,3.91583 -1.772708,6.0325 -0.211667,1.95791 -0.05292,3.88937 0.343958,5.82083 0.02646,0.15875 0.05292,0.34396 0.05292,0.50271 -0.02646,0.66146 0,0.66146 0.635,0.50271 0.9525,-0.23813 1.905,-0.18521 2.8575,-0.13229 1.561041,0.13229 3.095625,0.3175 4.550833,0.92604 0.238125,0.10583 0.555625,0.13229 0.635,0.47625 -0.343958,0.13229 -0.105833,0.29104 -0.02646,0.42333 1.27,2.03729 2.619375,4.02167 4.048125,5.95313 1.719791,2.30187 3.4925,4.52437 5.450416,6.61458 2.010834,2.16958 4.101042,4.20687 6.35,6.11187 2.566459,2.2225 5.291667,4.23334 8.149167,6.08542 3.01625,1.93146 6.13833,3.67771 9.39271,5.21229 3.62479,1.71979 7.38187,3.09563 11.27125,4.20688 0.0794,0.0265 0.15875,0.0265 0.21166,0.0265 2.61938,0.74083 5.29167,1.16416 7.96396,1.5875 0.26459,0.0529 0.58209,0.0265 0.74084,0.3175 -0.37042,0.21166 -0.79375,0.23812 -1.11125,0.5027 -0.15875,0.1323 -0.37042,0.26459 -0.3175,0.50271 0.0794,0.23813 0.3175,0.23813 0.52916,0.23813 0.635,0 1.21709,-0.18521 1.82563,-0.29104 0.79375,-0.1323 1.56104,-0.29105 2.38125,-0.3175 -0.18521,0.10583 -0.37042,0.23812 -0.55563,0.34395 -10.4775,6.21771 -21.80166,8.99584 -33.94604,8.36084 -13.996457,-0.74084 -26.32604,-5.63563 -36.856456,-14.89604 -7.699375,-6.77334 -13.335,-14.97542 -16.906875,-24.5798 l -0.3175,-0.9525 c -0.185209,-0.79375 -0.370417,-1.5875 -0.529167,-2.4077 -0.555625,-3.09563 -0.396875,-6.19125 0,-9.28688 0.370417,-2.83104 1.349375,-5.42396 2.778125,-7.85812 0.740833,-1.27 1.666875,-2.40771 2.619375,-3.51896 0.132292,-0.15875 0.291042,-0.34396 0.502708,-0.26459 0.15875,0.0529 0.105834,0.21167 0.02646,0.34396 -0.05292,0.26459 -0.211667,0.47625 -0.396875,0.66146 -0.661459,0.84667 -1.190625,1.77271 -1.666875,2.72521 -0.07937,0.18521 -0.185209,0.37042 -0.02646,0.74083 0.978959,-1.40229 1.984375,-2.67229 2.513542,-4.23333 0.529167,0.13229 0.661458,0.37042 0.502708,0.92604 -0.185208,0.635 -0.3175,1.29646 -0.396875,1.98438 0.3175,-0.74084 0.396875,-1.53459 0.502709,-2.30188 0.02646,-0.23812 -0.132292,-0.39687 -0.291042,-0.50271 -0.291042,-0.21166 -0.343958,-0.47625 -0.211667,-0.79375 0.05292,-0.10583 0.07937,-0.21166 0.132292,-0.34396 0.687917,-0.97895 1.481667,-1.82562 2.592917,-2.35479 0.105833,0.0265 0.211666,0.0794 0.3175,0.10584 0.423333,0.0794 0.582083,0.3175 0.370416,0.71437 -0.396875,0.76729 -0.79375,1.53458 -1.190625,2.30188 -0.07937,0.13229 -0.264583,0.29104 -0.07937,0.52916 0.291042,-0.29104 0.449792,-0.66146 0.820209,-0.9525 0.185208,0.47625 0.370416,0.9525 0.555625,1.40229 0.07937,0.21167 -0.07937,0.34396 -0.15875,0.50271 -0.449792,0.74084 -0.767292,1.56104 -0.978959,2.40771 0.264584,0.0794 0.291042,-0.0794 0.343959,-0.18521 0.185208,-0.37041 0.3175,-0.76729 0.555625,-1.11125 0.767291,-1.03187 0.582083,-2.09021 0.132291,-3.14854 -0.132291,-0.3175 -0.132291,-0.55562 0.02646,-0.84667 0.132291,-0.23812 0.238125,-0.5027 0.370416,-0.76729 0.211667,-0.42333 0.211667,-0.82021 -0.132291,-1.13771 -0.238125,-0.21166 -0.15875,-0.34395 0.02646,-0.52916 0.608542,-0.60854 1.190625,-1.21709 1.613958,-1.93146 0.502709,0.55562 0.502709,0.74083 0.105834,1.29646 -0.555625,0.74083 -0.9525,1.50812 -0.926042,2.51354 0.02646,0.87312 -0.185208,1.74625 -0.264583,2.61937 -0.02646,0.18521 -0.02646,0.37042 0,0.55563 0,0.13229 -0.02646,0.34396 0.15875,0.37042 0.185208,0.0264 0.185208,-0.18521 0.211666,-0.34396 0.291042,-1.29646 0.47625,-2.59292 0.396875,-3.91584 -0.02646,-0.23812 0,-0.44979 0.132292,-0.635 0.185208,-0.29104 1.058333,-0.68791 1.375833,-0.58208 0.185209,0.0529 0.132292,0.26458 0.15875,0.39688 0.105834,0.635 0.185209,1.27 0.264584,1.905 0.02646,0.15875 0.07937,0.34395 0.105833,0.5027 0.02646,0.15875 0.07937,0.3175 0.264583,0.29105 0.211667,-0.0265 0.15875,-0.21167 0.15875,-0.37042 0.02646,-1.00542 -0.105833,-2.01083 -0.3175,-3.01625 -0.07937,-0.26458 0.02646,-0.3175 0.264584,-0.34396 0.185208,0 0.370416,0.0529 0.529166,-0.0529 0.529167,-0.10583 1.031875,0.0794 1.534584,0.23813 0.291041,0.10583 0.555625,0.29104 0.978958,0.18521 -0.820208,-0.635 -1.666875,-1.00542 -2.619375,-0.9525 -0.343958,0.0265 -0.555625,-0.0794 -0.79375,-0.29104 -0.291042,-0.26459 -0.47625,-0.635 -1.005417,-0.66146 -0.185208,0 -0.370416,-0.42334 -0.238125,-0.74084 0.132292,-0.3175 0.264584,-0.60854 0.396875,-0.92604 0.211667,-0.55562 0.661459,-0.68791 1.164167,-0.34396 0.02646,0 0.02646,0.0265 0.05292,0.0265 0.661458,0.79375 1.375833,0.68792 2.169583,0.18521 1.058333,-0.66146 2.196042,-1.24354 3.280833,-1.85208 0.291042,-0.18521 0.608542,-0.37042 0.79375,-0.68792 -0.211666,-0.15875 -0.343958,-0.0265 -0.47625,0.0529 -1.508125,0.87312 -3.148541,1.50812 -4.656666,2.38125 -0.3175,0.18521 -0.423334,-0.13229 -0.608542,-0.21167 -0.185208,-0.0794 -0.211667,-0.21167 -0.105833,-0.42333 0.3175,-0.58209 0.635,-1.19063 0.9525,-1.79917 0.105833,-0.21167 0.343958,-0.29104 0.529166,-0.37042 0.635,-0.29104 1.243542,-0.635 1.799167,-1.03187 0.132292,-0.10583 0.423333,-0.21167 0.3175,-0.39688 -0.132292,-0.23812 -0.3175,0.0265 -0.47625,0.0794 -0.185208,0.0529 -0.343958,0.18521 -0.502708,0.23812 -1.322917,0.47625 -2.275417,1.34938 -2.831042,2.64584 -0.15875,0.39687 -0.449792,0.50271 -0.899583,0.44979 0.211666,-0.635 0.291041,-1.29646 0.396875,-1.93146 0.02646,-0.15875 0.07937,-0.29104 0.264583,-0.39687 0.582083,-0.3175 1.137708,-0.66146 1.719792,-0.97896 0.211666,-0.10584 0.396875,-0.23813 0.370416,-0.50271 -0.05292,-0.74083 -0.132291,-1.45521 -0.211666,-2.19604 0,-0.0529 -0.07937,-0.13229 -0.132292,-0.26459 -0.264583,0.4498 -0.291042,0.92605 -0.238125,1.32292 0.105833,0.87313 -0.185208,1.48167 -1.005417,1.79917 -0.978958,0.37041 -1.296458,1.16416 -1.402291,2.11666 -0.02646,0.18521 0.07937,0.52917 -0.291042,0.47625 -0.396875,-0.0529 -0.291042,-0.34395 -0.264583,-0.60854 0.132291,-1.11125 0.07938,-2.2225 -0.211667,-3.30729 -0.05292,-0.21167 -0.105833,-0.42333 -0.264583,-0.55562 -0.211667,-0.21167 -0.07938,-0.42334 -0.05292,-0.66146 0.105833,-0.92604 0.608542,-1.48167 1.402292,-1.85209 0.291041,-0.13229 0.47625,-0.44979 0.555625,-0.8202 -0.687917,0.58208 -1.693334,0.71437 -2.143125,1.5875 -0.132292,-0.26459 -0.105834,-0.58209 -0.132292,-0.89959 -0.02646,-0.3175 -0.07937,-0.635 -0.07937,-0.9525 -0.02646,-0.74083 -0.02646,-1.45521 -0.05292,-2.19604 0,-0.13229 0.05292,-0.34396 -0.15875,-0.37042 -0.185208,0 -0.211666,0.21167 -0.211666,0.34396 -0.05292,0.92604 -0.185209,1.87854 -0.105834,2.80459 0.05292,0.58208 0.07937,1.16416 0.132292,1.74625 -0.238125,0.0529 -0.264583,-0.1323 -0.370417,-0.21167 -2.328333,-2.67229 -5.08,-4.84188 -8.334375,-6.323542 -0.185208,-0.07937 -0.502708,-0.07937 -0.3175,-0.47625 1.534584,-3.122083 2.936875,-6.35 5.053542,-9.154583 7.831667,-10.4775 17.541875,-18.494375 30.00375,-22.886458 0.529166,-0.185208 1.058333,-0.343958 1.613958,-0.502708 -1.534583,1.243541 -2.8575,2.672291 -4.180417,4.1275 -0.264583,0.291041 -0.02646,0.264583 0.15875,0.3175 -0.105833,0.3175 -0.396875,0.3175 -0.635,0.396875 -1.455208,0.502708 -2.831041,1.190625 -4.074583,2.116666 -0.3175,0.238125 -0.635,0.529167 -0.873125,0.873125 -0.396875,0.582084 -0.238125,0.926042 0.423333,1.11125 0.264584,0.05292 0.582084,-0.02646 0.820209,0.185209 -0.449792,0.714375 -0.926042,1.42875 -1.349375,2.169583 -0.343959,0.555625 -0.767292,1.11125 -0.978959,1.74625 -0.07937,0.370417 -0.396875,0.396875 -0.661458,0.555625 -2.328333,1.27 -4.709583,2.513541 -6.746875,4.28625 -1.825625,1.5875 -3.466041,3.33375 -4.497916,5.582708 -0.211667,0.47625 -0.396875,0.978958 -0.502709,1.481667 -0.105833,0.47625 -0.05292,0.926041 0.132292,1.375833 0.529167,1.190625 0.529167,2.434167 0.502708,3.704167 -0.02646,0.608541 -0.02646,1.243541 -0.105833,1.852083 -0.02646,0.185208 -0.05292,0.47625 0.185208,0.555625 0.238125,0.07937 0.343959,-0.185208 0.423334,-0.370417 0.370416,-0.714375 0.423333,-1.508125 0.47625,-2.301875 0.02646,-0.555625 0.02646,-1.137708 -0.05292,-1.693333 -0.05292,-0.370417 0.105833,-0.635 0.502708,-0.661458 1.719792,-0.15875 3.148542,-1.058334 4.630209,-1.799167 0.291041,-0.132292 0.502708,-0.343958 0.79375,-0.185208 z"
       id="path54"
       style="stroke-width:0.264583" /><path
       class="st37"
       d="m 163.70443,142.57222 c 0.39687,-3.70417 0.37041,-7.40833 0.29104,-11.1125 -0.0265,-1.93146 -0.21167,-3.83646 -0.39688,-5.76792 -0.15875,-1.66687 -0.37041,-3.33375 -0.58208,-5.00062 -0.39688,-2.93688 -1.03188,-5.82083 -1.77271,-8.67833 -0.87312,-3.3073 -1.98437,-6.53521 -3.30729,-9.6573 -1.13771,-2.698745 -2.43417,-5.31812 -3.86292,-7.85812 -1.40229,-2.460625 -2.96333,-4.815417 -4.68312,-7.064375 -1.11125,-1.455208 -2.30188,-2.8575 -3.4925,-4.233333 -1.53459,-1.825625 -3.25438,-3.466042 -4.94771,-5.159375 -0.76729,-0.740833 -1.5875,-1.42875 -2.38125,-2.143125 -0.29104,-0.264583 -0.66146,-0.396875 -1.03187,-0.529167 2.01083,0.15875 3.54541,-0.873125 4.97416,-2.090208 0.3175,2.8575 2.11667,4.947708 3.75708,7.064375 2.51355,3.254375 5.15938,6.429375 8.01688,9.36625 2.61937,2.69875 5.50333,5.053541 8.83708,6.799791 0.34396,0.185209 0.71438,0.3175 1.08479,0.47625 0.37042,0.15875 0.74084,0.15875 1.16417,0.211667 -2.67229,2.93687 -3.25437,6.58812 -3.70417,10.29229 -0.0794,0.71438 -0.0529,1.42875 0.15875,2.11667 0.0794,0.21166 0.10584,0.58208 0.37042,0.55562 0.29104,-0.0265 0.26458,-0.39687 0.29104,-0.60854 0.0794,-0.97896 0.10584,-1.98437 0.26459,-2.96333 0.1852,-1.05834 0.37041,-2.14313 0.74083,-3.14854 -0.26458,1.24354 0.18521,2.32833 0.52917,3.46604 3.41312,11.7475 3.3602,23.46854 -0.15875,35.18958 -0.0265,0.18521 -0.0794,0.34396 -0.15875,0.47625 z"
       id="path55"
       style="stroke-width:0.264583" /><path
       class="st38"
       d="m 144.65443,71.584514 c 1.42875,0.185208 2.88395,0.820208 4.28625,1.666875 4.15395,2.592916 7.56708,6.006041 10.58333,9.842499 1.905,2.407709 3.78354,4.815417 5.15937,7.567084 0.68792,1.349375 1.0848,2.804583 1.61396,4.206875 0.0794,0.185208 0.10584,0.396875 0.10584,0.608541 0,0.502709 -0.34396,0.846667 -0.84667,0.820209 -0.82021,-0.02646 -1.50813,-0.343959 -2.19604,-0.767292 -4.445,-2.778125 -8.22854,-6.35 -11.69459,-10.239375 -2.24895,-2.513542 -4.47145,-5.08 -6.48229,-7.77875 -0.635,-0.846666 -1.21708,-1.719791 -1.66687,-2.672291 -0.34396,-0.714375 -0.50271,-1.455209 -0.3175,-2.248959 0.10583,-0.687916 0.55562,-1.031875 1.45521,-1.005416 z"
       id="path56"
       style="stroke-width:0.264583" /><path
       class="st39"
       d="m 54.352136,121.2468 c 0,-0.0794 0,-0.1852 -0.02646,-0.21166 -0.15875,-0.10584 -0.211667,0.0794 -0.291042,0.15875 -0.608542,0.79375 -1.27,1.53458 -1.852083,2.32833 -2.116667,2.96333 -3.307292,6.27063 -3.730625,9.86896 -0.264584,2.11667 -0.343959,4.25979 -0.185209,6.37646 0.105834,1.34937 0.396875,2.69875 0.608542,4.04812 0.02646,0.13229 0.02646,0.29104 0.02646,0.44979 -0.767291,-1.905 -1.296458,-3.86291 -1.772708,-5.84729 -1.455208,-5.82083 -1.931458,-11.7475 -1.666875,-17.75354 0,-0.15875 0.05292,-0.34396 0.05292,-0.50271 0,-0.34396 0.15875,-0.39687 0.47625,-0.34396 1.957916,0.3175 3.942291,0.0794 5.900208,-0.0794 0.820208,-0.0529 1.640417,-0.0794 2.460625,-0.26458 0.15875,-0.0265 0.3175,-0.0794 0.291042,0.1852 -0.105834,0.52917 -0.02646,1.0848 -0.291042,1.5875 z"
       id="path57"
       style="stroke-width:0.264583" /><path
       class="st38"
       d="m 142.96109,175.16889 c -0.0265,-0.84667 0.26459,-1.5875 0.66146,-2.24896 0.82021,-1.34938 1.71979,-2.61938 2.75167,-3.83646 2.91041,-3.43958 6.40291,-6.08542 10.53041,-7.9375 0.60855,-0.26458 1.21709,-0.47625 1.85209,-0.68792 0.18521,-0.0794 0.39687,-0.13229 0.58208,0.0529 0.15875,0.18521 0.10583,0.39688 0.0265,0.58208 -0.26458,0.84667 -0.74083,1.56105 -1.27,2.24896 -3.28083,4.23334 -7.24958,7.69938 -11.90625,10.34521 -0.9525,0.52917 -1.95792,0.9525 -2.93688,1.42875 -0.10583,0.0265 -0.1852,0.0265 -0.29104,0.0529 z"
       id="path58"
       style="stroke-width:0.264583" /><path
       class="st1"
       d="m 59.908386,110.74285 c -1.561042,-0.74084 -2.989792,-1.45521 -4.365625,-2.30188 -1.613958,-0.97896 -3.280833,-1.87854 -4.947708,-2.77812 -1.719792,-0.92605 -3.280833,-2.11667 -4.894792,-3.20146 -0.132291,-0.0794 -0.15875,-0.15875 -0.132291,-0.3175 0.132291,-1.03188 0.238125,-2.03729 0.343958,-3.069168 0.05292,-0.449792 0.291042,-0.238125 0.449792,-0.15875 1.666874,0.555625 3.307291,1.243538 4.841874,2.090208 1.164167,0.635 2.328334,1.29646 3.439584,2.01083 1.984375,1.29646 3.466041,3.09563 4.815416,5.00063 0.529167,0.79375 0.3175,1.74625 0.449792,2.72521 z"
       id="path59"
       style="stroke-width:0.264583" /><path
       class="st1"
       d="m 37.63047,115.76993 c 1.164166,-0.84667 2.169583,-1.77271 3.148541,-2.77813 0.15875,-0.15875 0.291042,-0.13229 0.449792,-0.0794 4.497917,1.37583 9.075208,2.51354 13.467291,4.25979 0.635,0.26458 0.608542,0.23813 0.264584,0.76729 -0.3175,0.50271 -0.740834,0.68792 -1.296459,0.74084 -4.048125,0.37041 -8.096249,0.58208 -12.012083,-0.9525 -1.402291,-0.52917 -2.725208,-1.13771 -4.021666,-1.95792 z"
       id="path60"
       style="stroke-width:0.264583" /><path
       class="st40"
       d="m 47.393595,104.7368 c 0.793749,0.47625 1.561041,0.92605 2.354791,1.37584 0.132292,0.0794 0.132292,0.18521 0.132292,0.3175 -0.291042,2.72521 -1.481667,5.00062 -3.4925,6.85271 -0.185208,0.15875 -0.370417,0.23812 -0.608542,0.15875 -0.661458,-0.21167 -1.322916,-0.39688 -2.010833,-0.71438 2.460625,-2.06375 3.175,-4.94771 3.624792,-7.99042 z"
       id="path61"
       style="stroke-width:0.264583" /><path
       class="st37"
       d="m 135.73797,74.124514 c 0.13229,-0.07937 0.23812,-0.132292 0.42333,-0.238125 -1.03187,-0.740834 -2.01083,-1.481667 -3.01625,-2.196042 -2.56646,-1.825625 -5.21229,-3.518958 -8.01687,-4.974167 -0.0794,-0.05292 -0.13229,-0.132291 -0.18521,-0.185208 0.82021,0.185208 1.61396,0.502708 2.38125,0.820208 4.25979,1.5875 8.30792,3.65125 12.09146,6.164792 0.15875,0.105833 0.37041,0.185208 0.50271,0.423333 -1.4023,0.529167 -2.80459,0.05292 -4.18042,0.185209 z"
       id="path62"
       style="stroke-width:0.264583" /><path
       class="st41"
       d="m 46.785053,113.7591 c 2.196041,-1.98438 3.307291,-4.39209 3.518958,-7.3025 0.79375,0.47625 1.508125,0.87312 2.2225,1.29645 0.15875,0.10584 0.132292,0.23813 0.105833,0.39688 -0.370416,2.03729 -1.217083,3.86292 -2.460625,5.47687 -0.132291,0.15875 -0.291041,0.29105 -0.423333,0.4498 -0.3175,0.3175 -0.661458,0.44979 -1.137708,0.23812 -0.582084,-0.23812 -1.190625,-0.37042 -1.825625,-0.55562 z"
       id="path63"
       style="stroke-width:0.264583" /><path
       class="st40"
       d="m 50.145261,114.76451 c 1.402292,-1.93146 2.434167,-3.99521 2.989792,-6.29708 0.07937,-0.3175 0.185208,-0.29104 0.396875,-0.15875 0.555625,0.34396 1.137708,0.66146 1.719791,0.97896 0.238125,0.13229 0.291042,0.29104 0.238125,0.55562 -0.423333,2.06375 -1.42875,3.86292 -2.592916,5.58271 -0.15875,0.23813 -0.3175,0.18521 -0.529167,0.10583 -0.740833,-0.26458 -1.481667,-0.52916 -2.2225,-0.76729 z"
       id="path64"
       style="stroke-width:0.264583" /><path
       class="st41"
       d="m 56.098386,109.84326 c 0.767292,0.44979 1.455208,0.84667 2.169583,1.24354 0.211667,0.1323 0.291042,0.26459 0.211667,0.50271 -0.449792,1.82563 -1.402292,3.38667 -2.513542,4.84188 -0.07937,0.10583 -0.185208,0.18521 -0.343958,0.13229 -0.767292,-0.23813 -1.534583,-0.47625 -2.328333,-0.71438 1.137708,-1.93145 2.354791,-3.75708 2.804583,-6.00604 z"
       id="path65"
       style="stroke-width:0.264583" /><path
       class="st42"
       d="m 45.356303,103.49326 c 0.502708,0.3175 0.899583,0.55563 1.296458,0.79375 0.132292,0.0794 0.211667,0.15875 0.185209,0.34396 -0.343959,2.56646 -1.084792,4.94771 -2.8575,6.90563 -0.264584,0.26458 -0.555625,0.5027 -0.846667,0.74083 -0.15875,0.13229 -0.3175,0.15875 -0.502708,0.0794 -0.635,-0.21166 -0.635,-0.1852 -0.238125,-0.74083 1.481666,-1.98437 2.143125,-4.31271 2.725208,-6.6675 0.07937,-0.42333 0.211667,-0.87312 0.238125,-1.45521 z"
       id="path66"
       style="stroke-width:0.264583" /><path
       class="st43"
       d="m 43.715886,103.41389 c -0.05292,1.05833 -0.264583,2.11666 -0.635,3.14854 -0.47625,1.34937 -1.084791,2.67229 -1.931458,3.86292 -0.185208,0.29104 -0.423333,0.52916 -0.687917,0.74083 -0.449791,0.34396 -0.740833,0.23812 -0.899583,-0.3175 -0.238125,-0.79375 -0.211667,-1.61396 -0.02646,-2.40771 0.396875,-1.82562 1.164166,-3.51896 2.143125,-5.10646 0.291041,-0.47625 0.714375,-0.82021 1.11125,-1.19062 0.3175,-0.29104 0.608541,-0.18521 0.767291,0.23812 0.132292,0.3175 0.132292,0.66146 0.15875,1.03188 z"
       id="path67"
       style="stroke-width:0.264583" /><path
       class="st44"
       d="m 56.204219,116.69597 c 1.5875,-1.34937 2.407709,-3.04271 2.883959,-4.89479 0.05292,-0.23813 0.132291,-0.26458 0.343958,-0.15875 0.15875,0.0794 0.343958,0.13229 0.529167,0.21167 0.899583,0.37041 0.899583,0.37041 0.502708,1.27 -0.555625,1.32291 -1.322917,2.51354 -2.354792,3.54541 -0.343958,0.37042 -0.687916,0.52917 -1.164166,0.29104 -0.211667,-0.10583 -0.449792,-0.15875 -0.740834,-0.26458 z"
       id="path68"
       style="stroke-width:0.264583" /><path
       class="st45"
       d="m 44.403803,102.88472 c 0.3175,0.10583 0.529167,0.21167 0.47625,0.55563 -0.343958,2.8575 -1.031875,5.60916 -2.936875,7.88458 -0.15875,0.21167 -0.370417,0.37042 -0.582083,0.52917 -0.15875,0.10583 -0.343959,0.0264 -0.449792,-0.10584 -0.105833,-0.15875 0.05292,-0.23812 0.132292,-0.3175 1.508125,-1.69333 2.487083,-3.62479 2.910416,-5.84729 0.185209,-0.89958 0.396875,-1.77271 0.449792,-2.69875 z"
       id="path69"
       style="stroke-width:0.264583" /><path
       class="st46"
       d="m 134.17693,175.3541 c -1.29646,-0.23813 -2.59292,-0.42334 -3.88938,-0.68792 -1.48166,-0.3175 -2.96333,-0.71438 -4.445,-1.05833 -0.13229,-0.0265 -0.23812,-0.10584 -0.34396,-0.15875 0.9525,0.1852 1.905,0.39687 2.8575,0.58208 1.4023,0.26458 2.80459,0.42333 4.20688,0.55562 1.29646,0.1323 2.59292,0.21167 3.91583,0.23813 -0.79375,0.15875 -1.53458,0.34396 -2.30187,0.52917 z"
       id="path70"
       style="stroke-width:0.264583" /><path
       class="st47"
       d="m 57.632969,117.7543 c -0.926041,0.71438 -1.719791,1.56105 -2.592916,2.3548 0,-0.50271 0.132291,-0.9525 0.529166,-1.32292 0.185209,-0.18521 0.343959,-0.39688 0.502709,-0.60854 0.608541,-0.74084 0.608541,-0.74084 1.561041,-0.42334 z"
       id="path71"
       style="stroke-width:0.264583" /><path
       class="st7"
       d="m 39.641303,105.26597 c -0.132292,0.37042 -0.238125,0.71438 -0.396875,1.11125 -0.502708,-0.50271 -1.137708,-0.71437 -1.719792,-0.9525 -0.15875,-0.0794 -0.449791,-0.0794 -0.264583,-0.39687 0.132292,-0.21167 0.211667,-0.37042 0.502708,-0.23813 0.608542,0.26458 1.217084,0.37042 1.878542,0.47625 z"
       id="path72"
       style="stroke-width:0.264583" /><path
       class="st48"
       d="m 54.907761,120.45305 c -0.05292,0.3175 0.02646,0.58209 0.3175,0.74084 0.343958,0.18521 0.396875,0.50271 0.343958,0.87312 -0.105833,0.76729 -0.264583,1.50813 -0.502708,2.24896 -0.05292,0.13229 -0.07937,0.34396 -0.238125,0.3175 -0.185208,-0.0265 -0.132292,-0.23812 -0.132292,-0.37042 0.05292,-0.74083 0.15875,-1.4552 0.423334,-2.14312 0.185208,-0.44979 0.132291,-0.74083 -0.3175,-0.9525 0.02646,-0.23813 -0.07937,-0.50271 0.105833,-0.71438 z"
       id="path73"
       style="stroke-width:0.264583" /><path
       class="st49"
       d="m 62.818803,116.40493 c -0.185209,0.29104 -0.714375,-0.10583 -0.820209,0.39687 -0.132291,-0.29104 -0.343958,-0.34395 -0.635,-0.21166 -0.211666,0.0794 -0.423333,0.13229 -0.687916,0.10583 0.211666,-0.39687 0.449791,-0.74083 0.238125,-1.32292 0.635,0.50271 0.978958,1.32292 1.905,1.03188 z"
       id="path74"
       style="stroke-width:0.264583" /><path
       class="st1"
       d="m 140.42109,202.68555 c 1.03188,-0.37041 2.01084,-0.47625 2.98979,-0.68791 0.87313,-0.18521 1.7198,-0.42334 2.51355,-0.76729 0.89958,-0.39688 1.40229,-1.21709 1.82562,-2.06375 0.47625,-0.9525 0.87313,-1.95792 1.19063,-2.96334 0.1852,0 0.21166,0.13229 0.26458,0.23813 0.68792,1.21708 1.48167,2.38125 1.95792,3.73062 0.34395,0.9525 1.05833,1.53459 2.01083,1.82563 1.21708,0.37041 2.46062,0.47625 3.73062,0.55562 0.29105,0.0265 0.60855,-0.0265 0.89959,0.13229 -0.29104,0.4498 -0.635,0.84667 -1.05834,1.16417 -2.06375,1.64042 -2.7252,3.78354 -2.27541,6.32354 0.13229,0.68792 0.0794,1.37584 0.10583,2.09021 0,0.3175 -0.0529,0.42333 -0.39687,0.34396 -1.21709,-0.26458 -2.3548,-0.74083 -3.38667,-1.37583 -1.29646,-0.79375 -2.48708,-0.71438 -3.75708,0.0265 -0.89959,0.52917 -1.87855,0.9525 -2.83105,1.37584 -0.68791,0.3175 -0.89958,0.13229 -0.79375,-0.635 0.18521,-1.19063 0.34396,-2.38125 0.58209,-3.54542 0.29104,-1.42875 -0.0794,-2.56646 -1.19063,-3.51896 -0.79375,-0.71437 -1.61396,-1.40229 -2.38125,-2.24896 z"
       id="path75"
       style="stroke-width:0.264583" /><path
       class="st1"
       d="m 32.841511,45.575972 c 0.396875,0.555625 0.687917,1.031875 0.899584,1.5875 0.529166,1.375834 1.164166,2.672292 2.275416,3.704167 1.058334,1.005417 2.301875,1.481667 3.730625,1.481667 0.714375,0 1.375834,0.15875 2.116667,0.423333 -0.502708,0.555625 -1.031875,1.031875 -1.561042,1.481666 -0.3175,0.264584 -0.635,0.529167 -0.926041,0.820209 -1.084792,1.084791 -1.27,2.407708 -1.084792,3.862916 0.15875,1.137709 0.370417,2.275417 0.343958,3.413125 -0.02646,0.635 -0.07937,0.687917 -0.687916,0.582084 -0.820209,-0.132292 -1.534584,-0.502709 -2.2225,-0.926042 -0.343959,-0.238125 -0.687917,-0.47625 -1.058334,-0.661458 -1.084791,-0.529167 -2.196041,-0.687917 -3.360208,-0.15875 -1.031875,0.47625 -2.090208,0.846666 -3.042708,1.455208 -0.185209,0.105833 -0.449792,0.291042 -0.635,0.15875 -0.211667,-0.15875 -0.02646,-0.423333 0.02646,-0.608542 0.238125,-1.031875 0.47625,-2.037291 0.635,-3.095625 0.132292,-0.9525 -0.05292,-1.825625 -0.608542,-2.619375 -0.740833,-1.031875 -1.561041,-1.984375 -2.566458,-2.751666 -0.291042,-0.238125 -0.555625,-0.502708 -0.820208,-0.767292 -0.132292,-0.132291 -0.291042,-0.291041 -0.238125,-0.47625 0.07937,-0.238125 0.3175,-0.15875 0.47625,-0.185208 0.661458,-0.07937 1.296458,-0.132292 1.957916,-0.185208 2.883959,-0.264584 4.683125,-1.905 5.635625,-4.550834 0.238125,-0.608541 0.449792,-1.243541 0.714375,-1.984375 z"
       id="path76"
       style="stroke-width:0.264583" /><path
       class="st1"
       d="m 157.16922,32.532014 c -1.21709,-0.264583 -2.27542,-1.005417 -3.51896,-0.767292 -1.16417,0.211667 -2.2225,0.767292 -3.38667,1.217084 0.18521,-0.820209 0.3175,-1.5875 0.42334,-2.38125 0.10583,-0.820209 -0.10584,-1.481667 -0.66146,-2.06375 -0.58209,-0.608542 -1.16417,-1.243542 -1.71979,-1.852083 -0.0794,-0.07938 -0.21167,-0.15875 -0.23813,-0.3175 0.66146,-0.211667 1.32292,-0.47625 2.03729,-0.502709 0.13229,0 0.26459,-0.05292 0.39688,-0.07937 1.05833,-0.15875 1.82562,-0.661458 2.2225,-1.719791 0.26458,-0.687917 0.47625,-1.402292 0.74083,-2.169584 0.37042,0.343959 0.52917,0.767292 0.76729,1.137709 0.23813,0.370416 0.50271,0.740833 0.74084,1.137708 0.74083,1.190625 1.79916,1.799167 3.175,1.984375 0.3175,0.05292 0.68791,0.02646 1.03187,0.211667 -0.74083,0.899583 -1.77271,1.534583 -2.16958,2.698749 -0.37042,1.164167 0.18521,2.248959 0.15875,3.466042 z"
       id="path77"
       style="stroke-width:0.264583" /><path
       class="st1"
       d="m 36.757345,170.69743 c 0.687916,1.00542 0.873125,2.14312 1.957916,2.61937 0.9525,0.42334 1.984375,0.55563 3.01625,0.79375 -0.264583,0.39688 -0.661458,0.60855 -1.005416,0.89959 -0.555625,0.44979 -0.767292,1.00541 -0.740834,1.71979 0.05292,0.87312 0,1.74625 0,2.67229 -0.396875,-0.23812 -0.820208,-0.44979 -1.217083,-0.68792 -0.555625,-0.34395 -1.11125,-0.42333 -1.719792,-0.21166 -0.9525,0.29104 -1.905,0.58208 -2.883958,0.87312 0.02646,-1.00541 0.3175,-2.01083 -0.07937,-2.96333 -0.370417,-0.92604 -1.349375,-1.37583 -2.010833,-2.2225 2.248958,-0.23813 3.96875,-1.11125 4.683125,-3.4925 z"
       id="path78"
       style="stroke-width:0.264583" /><path
       class="st1"
       d="m 166.53547,183.21222 c -1.21709,0.74083 -1.19063,1.85208 -1.03188,3.04271 -0.42333,-0.13229 -0.74083,-0.34396 -1.05833,-0.52917 -0.39688,-0.23812 -0.76729,-0.23812 -1.13771,0.0529 -0.34396,0.26458 -0.74083,0.44979 -1.19062,0.58208 0.21166,-1.24354 -0.1323,-2.24896 -1.24355,-3.06916 1.16417,-0.29105 2.30188,-0.47625 2.61938,-1.82563 1.19062,1.37583 1.19062,1.37583 3.04271,1.74625 z"
       id="path79"
       style="stroke-width:0.264583" /><path
       class="st1"
       d="m 51.891511,186.99576 c 1.27,-0.23812 1.74625,-1.24354 2.407708,-2.06375 0.767292,0.74084 1.27,1.87854 2.725209,1.74625 -1.058334,0.76729 -1.508125,1.69334 -0.767292,2.96334 h -0.15875 c -0.3175,-0.18521 -0.608542,-0.37042 -0.926042,-0.55563 -0.423333,-0.23812 -0.79375,-0.26458 -1.137708,0.18521 -0.291042,0.39687 -0.820208,0.3175 -1.375833,0.635 0.47625,-1.24354 0.291041,-2.19604 -0.767292,-2.91042 z"
       id="path80"
       style="stroke-width:0.264583" /><path
       class="st1"
       d="m 196.98901,139.21201 c 0.13229,-1.82562 0.13229,-1.82562 -0.92604,-3.09562 1.32291,-0.15875 2.09021,-0.97896 2.56646,-2.14313 0.52916,0.47625 0.55562,1.24354 1.08479,1.5875 0.55562,0.37042 1.24354,0.23813 1.905,0.50271 -0.42334,0.44979 -1.00542,0.68792 -1.08479,1.37583 -0.0529,0.58209 -0.0529,1.16417 0.0265,1.77271 -0.68791,-0.15875 -1.11125,-0.84666 -1.79916,-0.79375 -0.66146,0.0265 -1.13771,0.58209 -1.77271,0.79375 z"
       id="path81"
       style="stroke-width:0.264583" /><path
       class="st1"
       d="m 31.333386,203.39993 c 0.820209,-1.34938 -0.07938,-2.2225 -0.820208,-3.12208 2.06375,-0.87313 2.06375,-0.87313 2.8575,-1.93146 0.555625,1.34937 1.693333,1.77271 3.201458,1.82562 -0.687916,0.55563 -1.402291,0.79375 -1.5875,1.50813 -0.185208,0.68791 0.238125,1.34937 0.185209,2.09021 -0.396875,-0.1323 -0.767292,-0.29105 -1.058334,-0.55563 -0.423333,-0.37042 -0.846666,-0.42333 -1.349375,-0.18521 -0.396875,0.18521 -0.820208,0.26459 -1.217083,0.39688 -0.105833,0 -0.15875,-0.0265 -0.211667,-0.0265 z"
       id="path82"
       style="stroke-width:0.264583" /><path
       class="st1"
       d="m 1.1973451,104.63097 c 0.635,-0.21167 1.190625,-0.37042 1.7197916,-0.60854 0.555625,-0.26458 0.6614584,-0.87313 0.9525,-1.53458 0.396875,1.61395 1.5610417,1.85208 2.8839583,2.01083 -1.4022916,0.71437 -1.0583333,1.93146 -0.9525,3.04271 -0.079375,0 -0.1322916,0.0265 -0.1322916,0.0265 -0.6879167,-0.52917 -1.4022917,-0.635 -2.1960417,-0.18521 -0.2910416,0.18521 -0.6614583,0.23812 -1.11125,0.37041 0.3439584,-1.32291 -0.1322916,-2.30187 -1.1641666,-3.12208 z"
       id="path83"
       style="stroke-width:0.264583" /><path
       class="st1"
       d="m 161.00568,47.851389 c 1.74625,-0.635 1.74625,-0.635 2.61937,-2.38125 0.42333,1.74625 1.74625,1.984375 3.175,2.06375 -0.0265,0.291042 -0.23812,0.370417 -0.39687,0.529167 -0.635,0.661458 -1.19063,1.322916 -0.79375,2.328333 0.10583,0.291042 0.0794,0.582083 -0.37042,0.396875 -0.9525,-0.343958 -1.905,-0.264583 -2.8575,0.132292 -0.29104,0.105833 -0.52917,0.185208 -0.37042,-0.291042 0.26459,-0.820208 0.0794,-1.561042 -0.52916,-2.169583 -0.15875,-0.185209 -0.29105,-0.370417 -0.47625,-0.608542 z"
       id="path84"
       style="stroke-width:0.264583" /><path
       class="st50"
       d="m 132.72172,79.178055 c 0.29104,0.47625 0.82021,0.661458 1.24354,1.031875 0.82021,0.714375 1.64042,1.402292 2.48708,2.090208 0.42334,0.343959 0.66146,0.767292 0.79375,1.27 0.26459,0 0.3175,0.238125 0.42334,0.370417 0.23812,0.343958 0.47625,0.661458 0.82021,0.899583 0.21166,0.15875 0.44979,0.264584 0.71437,0.05292 0.0529,-0.02646 0.10583,-0.02646 0.15875,-0.02646 0.0794,0.02646 0.13229,0.05292 0.13229,0.15875 0.58209,0.635 1.13771,1.296458 1.71979,1.905 2.19604,2.275416 4.20688,4.656666 6.00604,7.276041 1.77271,2.566459 3.38667,5.212292 4.73605,8.016871 2.35479,4.84188 4.10104,9.89542 5.08,15.18709 0.29104,1.53458 0.39687,3.06916 0.52916,4.6302 0.13229,1.53459 0.0265,3.04271 -0.0529,4.55084 -0.10584,1.77271 -0.47625,3.51896 -0.82021,5.26521 -0.26459,1.37583 -0.74084,2.67229 -1.27,3.94229 -0.37042,0.87312 -0.89959,1.19062 -1.85209,1.11125 -0.55562,-0.0529 -1.11125,-0.55563 -1.29645,-1.24354 -0.0265,-0.0794 -0.0529,-0.15875 -0.0529,-0.21167 0.29104,-1.05833 -0.29104,-1.93146 -0.52917,-2.88396 -0.0529,-0.23812 -0.18521,-0.44979 -0.13229,-0.71437 0,-0.0794 0,-0.15875 0.0529,-0.23813 0.42333,-0.60854 0.55562,-1.29646 0.47625,-2.01083 -0.0265,-0.29104 -0.0794,-0.58209 -0.39688,-0.68792 -0.29104,-0.0794 -0.39687,0.21167 -0.55562,0.39688 -0.0529,0.0794 -0.10584,0.1852 -0.26459,0.15875 -0.34395,-0.47625 -0.47625,-1.05834 -0.66145,-1.5875 -0.3175,-0.89959 -0.66146,-1.82563 -1.03188,-2.69875 1.66688,-1.24355 1.66688,-2.9898 1.37583,-4.81542 -0.0529,-0.34396 -0.21166,-0.635 -0.39687,-0.92604 -0.47625,-0.76729 -1.27,-0.82021 -1.85208,-0.10584 -0.23813,0.26459 -0.39688,0.58209 -0.52917,0.92605 -0.0794,0.1852 -0.10583,0.42333 -0.37042,0.42333 -0.3175,-0.15875 -0.37041,-0.50271 -0.50271,-0.79375 -1.69333,-3.70417 -3.4925,-7.35542 -5.52979,-10.87438 -1.27,-2.19604 -2.54,-4.36562 -3.91583,-6.50875 -1.74625,-2.751661 -3.59833,-5.423952 -5.52979,-8.069786 -1.77271,-2.407708 -3.59833,-4.7625 -5.45042,-7.117291 -1.53458,-1.957917 -3.14854,-3.836459 -4.70958,-5.767917 -1.53458,-1.878541 -3.22792,-3.598333 -4.94771,-5.291666 -0.9525,-0.9525 -2.03729,-1.772709 -3.09562,-2.592917 -0.7673,-0.582083 -1.24355,-1.27 -1.27,-2.301875 -0.0265,-0.926042 0.76729,-1.508125 1.53458,-1.534583 1.08479,-0.02646 2.06375,0.370416 3.04271,0.767291 2.59291,1.031875 5.10646,2.196042 7.56708,3.466042 0.47625,0.238125 0.89958,0.635 1.45521,0.714375 0.26458,-0.02646 0.42333,0.15875 0.55562,0.3175 1.5875,1.772708 3.54542,2.989792 5.76792,3.757083 0.0794,0.05292 0.29104,0.07937 0.34396,0.3175 z"
       id="path85"
       style="stroke-width:0.264583" /><path
       d="m 71.470678,91.692847 c -0.846667,0.449791 -1.693334,0.899583 -2.54,1.322916 -0.873125,0.449792 -1.799167,0.767292 -2.778125,0.820209 -0.396875,0.02646 -0.396875,0.15875 -0.370417,0.47625 0.15875,1.164166 0.105833,2.328333 -0.185208,3.466041 -0.105834,0.423334 -0.238125,0.846667 -0.582084,1.137709 -0.264583,0.211666 -0.47625,0.211666 -0.555625,-0.185209 -0.07937,-0.3175 -0.05292,-0.635 0,-0.9525 0.132292,-1.322916 0.15875,-2.672291 -0.07937,-3.995208 -0.05292,-0.264583 -0.07937,-0.529167 -0.211666,-0.740833 -0.449792,-0.79375 -0.423334,-1.613959 -0.132292,-2.460625 0.582083,-1.772709 1.640417,-3.254375 2.8575,-4.60375 1.561042,-1.719792 3.386667,-3.148542 5.3975,-4.312709 1.375833,-0.820208 2.778125,-1.5875 4.180416,-2.328333 1.957917,-0.846666 3.96875,-1.5875 6.111875,-1.772708 1.296459,-0.105833 2.592917,-0.15875 3.862917,0.05292 0.211667,0.02646 0.396875,0.105833 0.582083,0.185208 0.185209,0.07937 0.423334,0.185208 0.396875,0.423333 -0.05292,0.238125 -0.3175,0.02646 -0.529166,0.185209 0.740833,0.767291 1.455208,1.534583 2.407708,2.063749 0.238125,0.132292 0.635,0.238125 0.529167,0.555625 -0.132292,0.343959 -0.555625,0.264584 -0.846667,0.211667 -0.635,-0.132292 -1.137708,-0.555625 -1.640417,-0.9525 -0.238125,-0.185208 -0.449791,-0.396875 -0.687916,-0.635 -1.322917,2.8575 -3.836459,4.524375 -6.244167,6.244167 -2.804583,2.010833 -5.715,3.889375 -8.678333,5.635625 -0.07937,0 -0.185208,0.07937 -0.264583,0.15875 z"
       id="path86"
       style="stroke-width:0.264583" /><path
       d="m 80.651719,138.81514 c -1.349375,-0.68792 -2.804583,-0.92604 -4.259792,-1.11125 -1.42875,-0.18521 -2.883958,-0.29104 -4.286249,0.18521 -0.15875,0.0529 -0.343959,0.0529 -0.449792,-0.1323 -0.07937,-0.13229 -0.07937,-0.3175 0.05292,-0.42333 0.211666,-0.18521 0.105833,-0.34396 0.07937,-0.55562 -0.740834,-3.12209 -0.661459,-6.21771 0.15875,-9.28688 0.3175,-1.24354 0.873125,-2.38125 1.5875,-3.43958 0.687916,-0.74084 1.481666,-1.37584 2.381249,-1.85209 2.116667,-1.11125 4.471459,-0.52916 5.87375,1.42875 0.820209,1.13771 1.084792,2.46063 1.217084,3.81 0.185208,1.74625 -0.105834,3.4925 -0.264584,5.2123 -0.185208,1.87854 -0.502708,3.73062 -0.423333,5.60916 v 0.34396 c -0.05292,0.29104 0.02646,0.66146 -0.343958,0.82021 -0.370417,0.15875 -0.582084,-0.13229 -0.820209,-0.34396 -0.185208,-0.10583 -0.3175,-0.23812 -0.502708,-0.26458 z"
       id="path87"
       style="stroke-width:0.264583" /><path
       class="st51"
       d="m 141.29422,138.3918 c -0.0794,0 -0.18521,-0.0264 -0.26459,-0.0264 -0.8202,-1.16417 -1.48166,-2.3548 -1.66687,-3.81 -0.34396,-2.77813 -0.0265,-5.47688 1.00542,-8.0698 0.26458,-0.66145 0.60854,-1.27 1.05833,-1.79916 0.92604,-1.11125 2.09021,-1.03188 2.8575,0.21166 0.66146,1.0848 0.92604,2.30188 1.03187,3.54542 0.18521,2.43417 -0.0529,4.81542 -1.00541,7.06438 -0.37042,0.84666 -0.79375,1.66687 -1.50813,2.27541 -0.47625,0.37042 -0.92604,0.66146 -1.50812,0.60854 z"
       id="path88"
       style="stroke-width:0.264583" /><path
       d="m 110.84068,139.23847 c 0.0529,-3.33375 0.635,-6.58812 1.95791,-9.65729 0.89959,-2.09021 2.32834,-3.73063 4.68313,-4.31271 1.19062,-0.29104 2.27542,-0.0794 3.33375,0.55563 1.56104,0.89958 2.67229,2.0902 3.04271,3.91583 0.23812,1.16417 0.10583,2.32833 0.10583,3.4925 -0.0265,2.14312 -0.635,4.18042 -0.89958,6.29708 -0.10584,0.87313 -0.3175,1.74625 -0.3175,2.61938 0,0.15875 -0.0265,0.34396 -0.0794,0.50271 -0.15875,0.66145 -0.37041,0.76729 -0.97896,0.47625 -2.24895,-1.11125 -4.57729,-1.905 -7.11729,-1.905 -0.71437,0 -1.37583,0.13229 -2.03729,0.34395 -1.66687,0.50271 -1.66687,0.47625 -1.69333,-1.24354 z"
       id="path89"
       style="stroke-width:0.264583" /><path
       d="m 141.29422,138.3918 c 1.79916,-0.60854 2.51354,-2.0902 3.06916,-3.70416 0.89959,-2.64584 1.03188,-5.31813 0.42334,-8.04334 -0.15875,-0.76729 -0.44979,-1.48166 -0.9525,-2.06375 -0.55563,-0.66145 -1.19063,-0.71437 -1.87854,-0.1852 -0.55563,0.44979 -0.92605,1.03187 -1.21709,1.66687 -1.03187,2.24896 -1.37583,4.63021 -1.29645,7.06438 0.0265,1.00541 0.15875,1.98437 0.47625,2.93687 0.21166,0.58208 0.44979,1.11125 0.92604,1.53458 0.26458,0.21167 0.29104,0.47625 0.1852,0.7673 -0.44979,0.37041 -0.76729,0.13229 -1.03187,-0.23813 -0.82021,-1.11125 -1.19062,-2.43417 -1.37583,-3.75708 -0.37042,-2.72521 -0.15875,-5.3975 0.87312,-7.96396 0.34396,-0.87313 0.79375,-1.66688 1.45521,-2.32833 1.24354,-1.24355 2.64583,-1.13771 3.65125,0.3175 0.71437,1.05833 1.00542,2.24895 1.13771,3.4925 0.29104,2.7252 0.0529,5.3975 -0.9525,7.96395 -0.29104,0.79375 -0.71438,1.53459 -1.29646,2.16959 -0.39688,0.42333 -0.87313,0.76729 -1.48167,0.82021 -0.37041,0.0265 -0.68791,-0.0265 -0.71437,-0.4498 z"
       id="path90"
       style="stroke-width:0.264583" /><path
       d="m 94.701094,148.52535 c -1.852083,-0.0529 -4.101042,-0.79375 -5.662083,-3.01625 -0.396875,-0.58209 -0.714375,-1.19063 -0.873125,-1.87855 -0.07937,-0.3175 -0.15875,-0.68791 0.238125,-0.8202 0.370416,-0.1323 0.529166,0.21166 0.635,0.5027 0.767291,1.82563 2.169583,2.91042 3.995208,3.54542 1.561042,0.52917 3.148542,0.55563 4.709583,0.10583 1.825625,-0.52916 3.492498,-1.32291 4.762498,-2.83104 0.3175,-0.39687 0.82021,-0.42333 1.13771,-0.13229 0.3175,0.29104 0.3175,0.79375 -0.0529,1.13771 -2.32833,2.11667 -4.974163,3.41312 -8.889996,3.38667 z"
       id="path91"
       style="stroke-width:0.264583" /><path
       class="st51"
       d="m 134.60026,77.934514 c 0.15875,0.185208 -0.42333,0.238125 -0.10583,0.47625 -0.58209,0.423333 -1.21709,0.343958 -1.82563,0.15875 -0.89958,-0.264584 -1.71979,-0.767292 -2.48708,-1.27 -1.50813,-1.005417 -2.98979,-2.090209 -4.15396,-3.518959 -0.13229,-0.185208 -0.26458,-0.343958 -0.37042,-0.555625 -0.3175,-0.635 -0.0794,-1.031875 0.635,-1.058333 0.50271,-0.02646 0.9525,0.132292 1.42875,0.3175 1.32292,0.502708 2.51355,1.27 3.65125,2.06375 1.11125,0.873125 2.2225,1.772708 2.88396,3.069167 0.0529,0.15875 0.18521,0.264583 0.34396,0.3175 z"
       id="path92"
       style="stroke-width:0.264583" /><path
       d="m 72.158594,118.54805 c -0.926041,0.23813 -1.825625,0.52917 -2.778125,0.55563 -0.211666,0 -0.502708,0.10583 -0.582083,-0.18521 -0.07937,-0.26458 0.211667,-0.3175 0.343958,-0.44979 0.79375,-0.60854 1.666875,-1.03188 2.54,-1.48167 2.354792,-0.9525 4.736042,-1.82562 7.223125,-2.43416 0.423333,-0.10584 0.846667,-0.21167 1.27,-0.15875 0.343958,0.0529 0.635,0.1852 0.714375,0.52916 0.07937,0.34396 -0.185208,0.50271 -0.423333,0.66146 -0.423334,0.29104 -0.926042,0.42333 -1.402292,0.58208 -2.2225,0.74084 -4.445,1.42875 -6.641041,2.24896 z"
       id="path93"
       style="stroke-width:0.264583" /><path
       class="st2"
       d="m 126.34526,122.11993 c -1.32292,-0.0529 -2.56646,-0.26458 -3.75708,-0.66146 -1.45521,-0.47625 -2.91042,-1.00542 -4.31271,-1.5875 -0.3175,-0.13229 -0.66146,-0.29104 -0.9525,-0.47625 -0.29104,-0.18521 -0.47625,-0.44979 -0.3175,-0.82021 0.15875,-0.34396 0.44979,-0.42333 0.79375,-0.37041 0.15875,0.0264 0.29104,0.0529 0.42333,0.10583 2.64584,1.00542 5.31813,1.87854 7.91104,3.06917 0.10584,0.0529 0.21167,0.0794 0.29105,0.15875 0.1852,0.10583 0.52916,0.13229 0.47625,0.39687 -0.0794,0.34396 -0.42334,0.10583 -0.55563,0.18521 z"
       id="path94"
       style="stroke-width:0.264583" /><path
       class="st52"
       d="m 131.34589,74.706597 c -1.11125,-0.740833 -2.24896,-1.508125 -3.51896,-1.984375 -0.52917,-0.211667 -1.05834,-0.396875 -1.64042,-0.396875 -0.50271,0 -0.635,0.211667 -0.47625,0.687917 0.10583,0.291041 0.3175,0.555625 0.52917,0.79375 1.74625,1.905 3.78354,3.413125 6.11187,4.524375 0.71438,0.343958 1.40229,0.291041 2.14313,0.132291 0.34396,0.423334 0.0794,0.635 -0.29104,0.79375 -0.50271,0.211667 -1.00542,0 -1.50813,-0.02646 -2.67229,-0.820208 -4.92125,-2.301875 -6.74687,-4.392083 -0.3175,-0.529167 -0.68792,-1.031875 -0.84667,-1.640417 -0.21167,-0.820208 0.10583,-1.296458 0.92604,-1.349375 0.50271,-0.02646 0.97896,0.105833 1.42875,0.238125 1.45521,0.47625 2.69875,1.322917 3.86292,2.301875 0.10583,0.07937 0.26458,0.132292 0.21166,0.3175 0,0.05292 -0.10583,0.05292 -0.1852,0 z"
       id="path95"
       style="stroke-width:0.264583" /><path
       class="st52"
       d="m 78.799636,75.44743 c -0.343959,0 -0.661459,0.05292 -1.005417,-0.02646 -0.608542,-0.15875 -0.820208,-0.582083 -0.502708,-1.137708 0.264583,-0.47625 0.661458,-0.846667 1.11125,-1.164167 1.296458,-0.9525 2.725208,-1.693333 4.28625,-2.169583 l 0.47625,-0.15875 c 0.396875,-0.05292 0.820208,-0.07937 1.217083,-0.132292 0.502708,-0.07937 0.846667,0.238125 1.164167,0.529167 0.238125,0.211666 0.132291,0.47625 0,0.714375 -0.291042,0.47625 -0.687917,0.846666 -1.137709,1.164166 -1.693333,1.217084 -3.545416,2.06375 -5.609166,2.38125 z"
       id="path96"
       style="stroke-width:0.264583" /><path
       class="st53"
       d="m 147.35318,120.69118 c 0.23812,-0.50271 0.39687,-1.05833 0.76729,-1.48167 0.71437,-0.82021 1.5875,-0.76729 2.16958,0.15875 0.84667,1.34938 0.71438,4.04813 -0.26458,5.29167 -0.23813,0.29104 -0.52917,0.47625 -0.89959,0.52917 -0.60854,0.3175 -0.9525,0.23812 -1.34937,-0.4498 -0.66146,-1.1377 -0.74083,-2.35479 -0.50271,-3.62479 0.0265,-0.13229 0.0529,-0.29104 0.0794,-0.42333 z"
       id="path97"
       style="stroke-width:0.264583" /><path
       class="st52"
       d="m 89.965052,73.70118 c -0.3175,0 -0.635,-0.02646 -0.9525,-0.132291 -0.529166,-0.185209 -0.687916,-0.582084 -0.396875,-1.058334 0.47625,-0.767291 2.354792,-1.508125 3.201459,-1.243541 0.3175,0.105833 0.635,0.3175 0.846666,0.555625 0.264584,0.291041 0.05292,0.608541 -0.185208,0.820208 -0.687917,0.714375 -1.561042,1.031875 -2.513542,1.058333 z"
       id="path98"
       style="stroke-width:0.264583" /><path
       class="st54"
       d="m 139.46859,85.051805 -0.10583,-0.105833 c -0.42333,-0.423334 -0.92604,-0.740834 -1.27,-1.243542 0.21167,0.3175 0.47625,0.582083 0.79375,0.79375 0.15875,0.105833 0.34396,0.238125 0.34396,0.47625 -0.0794,0.449792 -0.34396,0.343958 -0.60854,0.211667 -0.66146,-0.343959 -1.03188,-0.9525 -1.40229,-1.561042 0,-0.132292 -0.0265,-0.264583 -0.0265,-0.396875 0,-0.529167 0.34396,-0.820208 0.84666,-0.608542 0.92605,0.370417 1.48167,1.137709 1.905,1.984375 0.18521,0.3175 -0.0794,0.502709 -0.47625,0.449792 z"
       id="path99"
       style="stroke-width:0.264583" /><path
       class="st55"
       d="m 150.84568,129.47535 c 0,-0.0265 0.0265,-0.0265 0.0265,-0.0529 0.21167,-0.3175 0.29105,-0.82021 0.79375,-0.71438 0.47625,0.10584 0.52917,0.58209 0.55563,1.00542 0.0265,0.74083 0,1.45521 -0.60854,2.01083 -0.44979,0.1323 -0.44979,-0.10583 -0.29104,-0.39687 0.26458,-0.50271 0.39687,-1.00542 0.34395,-1.56104 0,-0.13229 0,-0.26459 -0.15875,-0.39688 -0.29104,0.34396 -0.26458,0.76729 -0.23812,1.16417 0.0265,0.23812 0.10583,0.47625 0.0265,0.71437 -0.0529,0.26459 -0.18521,0.39688 -0.47625,0.21167 -0.39688,-0.66146 -0.10584,-1.32292 0.0265,-1.98437 z"
       id="path100"
       style="stroke-width:0.264583" /><path
       class="st56"
       d="m 150.84568,131.45972 c 0.42333,0.0529 0.39687,-0.21167 0.34395,-0.50271 -0.13229,-0.52916 -0.13229,-1.03187 0.0265,-1.53458 0.0529,-0.18521 0.13229,-0.44979 0.37042,-0.42333 0.26458,0.0265 0.26458,0.29104 0.29104,0.47625 0.0794,0.71437 0.0794,1.40229 -0.47625,1.98437 -0.18521,0.18521 -0.15875,0.21167 0.26458,0.29104 l -0.10583,0.10584 c -0.3175,-0.0265 -0.52917,-0.18521 -0.71437,-0.39688 z"
       id="path101"
       style="stroke-width:0.264583" /><path
       class="st57"
       d="m 131.34589,74.706597 c 0.37041,-0.105833 -0.0265,-0.238125 0,-0.343958 1.34937,0.9525 2.56645,2.037291 3.25437,3.598333 -0.18521,0.211667 -0.34396,0.15875 -0.42333,-0.05292 -0.55563,-1.42875 -1.74625,-2.275416 -2.83104,-3.201458 z"
       id="path102"
       style="stroke-width:0.264583" /><path
       class="st53"
       d="m 63.956511,155.24576 c 3.862917,0.82021 6.270625,4.25979 7.593542,8.04334 0.767291,-0.60855 1.640416,-0.87313 2.592916,-0.92605 0.291042,0 0.740833,-0.13229 0.767292,0.21167 0.02646,0.29104 -0.449792,0.18521 -0.714375,0.23813 -1.031875,0.21166 -2.06375,0.29104 -2.883958,1.08479 -0.529167,0.50271 -1.243542,0.39687 -1.905,0.13229 -1.137709,-0.47625 -2.037292,-1.27 -2.8575,-2.14313 -1.217084,-1.32291 -2.248959,-2.75166 -3.280834,-4.23333 -0.396875,-0.58208 -0.396875,-1.27 -0.555625,-1.905 -0.02646,-0.0794 0.05292,-0.21167 0.105834,-0.3175 0.608541,-0.97896 0.820208,-2.03729 0.767291,-3.175 0,-0.26458 -0.132291,-0.66146 0.211667,-0.71437 0.343958,-0.0529 0.449792,0.37041 0.502708,0.66145 0.264584,1.03188 0.07937,2.0373 -0.343958,3.04271 z"
       id="path103"
       style="stroke-width:0.264583" /><path
       class="st52"
       d="m 75.201302,172.31139 c 0.15875,-0.26459 0.396875,-0.21167 0.661459,-0.15875 0.582083,0.15875 1.084791,0.42333 1.5875,0.74083 1.137708,0.68792 2.116666,1.53458 2.936875,2.59292 0.291041,0.37041 0.555625,0.76729 0.661458,1.24354 0.132292,0.60854 -0.15875,1.00542 -0.767292,1.03187 -0.396875,0.0265 -0.79375,-0.0794 -1.137708,-0.23812 -1.693333,-0.74083 -3.122083,-1.79917 -4.233333,-3.25438 -0.264584,-0.37041 -0.502709,-0.74083 -0.555625,-1.21708 -0.05292,-0.50271 0.15875,-0.68792 0.661458,-0.71437 0.05292,0.0264 0.105833,0.0529 0.132292,0.10583 0.132291,1.53458 1.322916,2.32833 2.328333,3.22792 0.608542,0.55562 1.322917,0.97895 2.116667,1.24354 0.211666,0.0794 0.47625,0.18521 0.608541,-0.0265 0.132292,-0.18521 -0.05292,-0.39688 -0.15875,-0.55563 -1.11125,-1.4552 -2.460625,-2.56645 -4.180416,-3.22791 -0.370417,-0.15875 -0.846667,-0.21167 -0.661459,-0.79375 z"
       id="path104"
       style="stroke-width:0.264583" /><path
       class="st38"
       d="m 75.201302,172.31139 c -0.05292,0.37041 0.211667,0.47625 0.47625,0.55562 1.799167,0.60854 3.227917,1.71979 4.365625,3.20146 0.238125,0.29104 0.582084,0.68792 0.370417,0.97896 -0.264583,0.34396 -0.740833,0.0794 -1.084792,-0.0794 -1.5875,-0.71437 -2.883958,-1.79916 -3.942291,-3.175 -0.370417,-0.47625 -0.343959,-0.97895 -0.396875,-1.50812 0.05292,0.0265 0.132291,0.0265 0.211666,0.0265 z"
       id="path105"
       style="stroke-width:0.264583" /><path
       class="st52"
       d="m 75.889219,166.88743 c 0.02646,-0.50271 0.238125,-0.66146 0.661458,-0.42333 1.084792,0.635 1.957917,1.53458 2.434167,2.7252 0.264583,0.60855 -0.211667,1.0848 -0.846667,0.9525 -1.058333,-0.23812 -2.592916,-1.93145 -2.672291,-3.01625 0.238125,-0.3175 0.423333,-0.1852 0.635,0.0265 0.423333,0.37042 0.714375,0.87313 1.137708,1.21709 0.15875,0.13229 0.3175,0.26458 0.529167,0.39687 -0.529167,-0.76729 -1.349375,-1.16417 -1.878542,-1.87854 z"
       id="path106"
       style="stroke-width:0.264583" /><path
       class="st58"
       d="m 83.324011,172.86701 c 0.185208,-0.18521 0.370416,-0.10583 0.582083,0 0.79375,0.42334 1.508125,0.97896 2.06375,1.69334 0.185208,0.23812 0.3175,0.5027 0.132292,0.76729 -0.185209,0.26458 -0.47625,0.26458 -0.767292,0.15875 -1.005417,-0.3175 -1.799167,-0.89959 -2.434167,-1.71979 -0.105833,-0.1323 -0.185208,-0.29105 -0.132291,-0.4498 0.07937,-0.21166 0.291041,-0.0794 0.449791,-0.0794 0.740834,0.42333 1.27,1.19062 2.116667,1.48167 -0.423333,-0.42334 -0.926042,-0.7673 -1.455208,-1.05834 -0.291042,-0.15875 -0.740834,-0.26458 -0.555625,-0.79375 z"
       id="path107"
       style="stroke-width:0.264583" /><path
       class="st59"
       d="m 56.362969,145.3768 c 0.211667,0 0.15875,-0.44979 0.47625,-0.23812 0.423334,0.58208 1.005417,1.05833 1.349375,1.71979 0.02646,0.29104 0.582084,0.66146 -0.105833,0.87313 -1.005417,-0.37042 -1.375833,-1.27 -1.772708,-2.14313 -0.02646,-0.0794 0,-0.13229 0.05292,-0.21167 z"
       id="path108"
       style="stroke-width:0.264583" /><path
       class="st60"
       d="m 56.362969,145.3768 c 0.396875,0.92605 0.899584,1.74625 1.719792,2.3548 -0.02646,0.0794 -0.105833,0.13229 -0.185208,0.10583 -0.767292,-0.37042 -1.42875,-0.84667 -1.772709,-1.66688 -0.132291,-0.3175 -0.264583,-0.66145 0.238125,-0.79375 z"
       id="path109"
       style="stroke-width:0.264583" /><path
       class="st61"
       d="m 75.889219,166.88743 c 0.899583,0.58208 1.719792,1.21708 2.328333,2.30187 -0.502708,-0.15875 -0.767291,-0.44979 -1.058333,-0.68791 -0.423333,-0.37042 -0.767292,-0.82021 -1.11125,-1.24354 -0.15875,-0.21167 -0.3175,-0.39688 -0.582083,-0.1323 0,-0.3175 0.238125,-0.21166 0.423333,-0.23812 z"
       id="path110"
       style="stroke-width:0.264583" /><path
       class="st61"
       d="m 83.324011,172.86701 c -0.02646,0.3175 0.185208,0.44979 0.449791,0.55563 0.582084,0.23812 1.084792,0.58208 1.534584,1.03187 0.132291,0.13229 0.291041,0.29104 0.343958,0.55563 -1.058333,-0.34396 -1.772708,-1.00542 -2.434167,-1.77271 -0.02646,-0.13229 -0.05292,-0.29104 0.105834,-0.37042 z"
       id="path111"
       style="stroke-width:0.264583" /><path
       class="st62"
       d="m 58.188594,146.85847 c -0.47625,-0.50271 -0.978958,-1.00542 -1.455208,-1.50812 -0.07938,-0.0794 0,-0.15875 0.105833,-0.21167 0.608542,0.44979 1.190625,0.92604 1.349375,1.71979 z"
       id="path112"
       style="stroke-width:0.264583" /><path
       class="st63"
       d="m 43.160261,104.63097 c -0.105833,1.87854 -0.873125,3.51896 -2.037291,4.97417 -0.185209,0.23812 -0.449792,0.50271 -0.820209,0.34396 -0.343958,-0.15875 -0.396875,-0.50271 -0.343958,-0.82021 0.238125,-1.95792 0.820208,-3.75709 2.090208,-5.29167 0.211667,-0.26458 0.502709,-0.34396 0.79375,-0.26458 0.3175,0.0794 0.211667,0.39687 0.264584,0.60854 0.02646,0.15875 0.02646,0.29104 0.05292,0.44979 z"
       id="path113"
       style="stroke-width:0.264583" /><path
       class="st52"
       d="m 135.15589,86.295347 c -0.18521,0.291041 -0.42334,0.396875 -0.7673,0.238125 -1.32291,-0.582084 -2.46062,-1.42875 -3.28083,-2.645834 -0.0794,-0.132291 -0.15875,-0.264583 -0.21167,-0.396875 -0.13229,-0.3175 -0.23812,-0.661458 0,-0.9525 0.23813,-0.291041 0.58209,-0.3175 0.92605,-0.238125 1.71979,0.423334 3.01625,1.42875 3.9952,2.910417 0.1323,0.185208 0.18521,0.423333 0.15875,0.635 -0.0529,0.370417 -0.21166,0.582083 -0.60854,0.3175 -0.71437,-1.243542 -1.69333,-2.169583 -2.93687,-2.8575 -0.23813,-0.132292 -0.44979,-0.291042 -0.76729,-0.264583 0,0.264583 0.1852,0.396875 0.3175,0.555625 0.76729,0.820208 1.64041,1.481666 2.67229,1.905 0.37041,0.15875 0.74083,0.3175 0.50271,0.79375 z"
       id="path114"
       style="stroke-width:0.264583" /><path
       class="st64"
       d="m 135.15589,86.295347 c 0,-0.343959 -0.21167,-0.502709 -0.52917,-0.635 -1.24354,-0.47625 -2.24896,-1.27 -3.06917,-2.301875 -0.10583,-0.132292 -0.29104,-0.291042 -0.13229,-0.47625 0.13229,-0.15875 0.34396,-0.02646 0.47625,0.02646 1.50813,0.740833 2.93688,1.534583 3.4925,3.280833 -0.0794,0.02646 -0.15875,0.07937 -0.23812,0.105834 z"
       id="path115"
       style="stroke-width:0.264583" /><path
       class="st65"
       d="m 139.23047,84.945972 c -0.21167,-0.291042 -0.55563,-0.423334 -0.82021,-0.661459 -0.3175,-0.264583 -0.60854,-0.529166 -0.635,-1.084791 0.66146,0.529166 1.13771,1.11125 1.5875,1.719791 -0.0265,0 -0.0794,0.02646 -0.13229,0.02646 z"
       id="path116"
       style="stroke-width:0.264583" /><path
       class="st38"
       d="m 84.832136,78.199097 c 1.508125,0 1.534583,0 1.058333,1.084792 -0.635,1.481666 -1.719792,2.592916 -2.963333,3.545416 -4.524375,3.386667 -9.233958,6.482292 -14.181667,9.260417 -0.846666,0.47625 -1.719791,0.820208 -2.69875,0.899583 -0.343958,0.02646 -0.502708,-0.132292 -0.740833,-0.370417 -0.79375,-0.767291 -0.449792,-1.508125 -0.07937,-2.275416 1.164167,-2.460625 3.01625,-4.365625 5.132917,-5.953125 2.69875,-2.037292 5.609166,-3.677709 8.731249,-5.000625 1.931459,-0.846667 3.995209,-1.137708 5.741459,-1.190625 z"
       id="path117"
       style="stroke-width:0.264583" /><path
       class="st40"
       d="m 79.725677,122.88722 c -1.11125,1.05833 -1.455208,2.40771 -1.5875,3.81 -0.132291,1.48167 0.07937,2.93688 0.608542,4.31271 0.555625,1.48167 1.481667,2.64583 2.989792,3.22792 0.291041,0.10583 0.238125,0.29104 0.211666,0.5027 -0.07937,1.16417 -0.291041,2.30188 -0.47625,3.4925 -2.69875,-1.40229 -5.582708,-1.42875 -8.493124,-1.19062 -0.291042,0.0265 -0.449792,0 -0.502709,-0.34396 -0.370416,-3.14854 -0.343958,-6.24417 0.449792,-9.33979 0.529167,-2.03729 1.693333,-3.57188 3.624791,-4.47146 1.058334,-0.52917 2.090209,-0.55562 3.175,0 z"
       id="path118"
       style="stroke-width:0.264583" /><path
       class="st44"
       d="m 78.429219,126.61785 c 0.02646,-0.66146 0.15875,-1.27 0.635,-1.77271 0.370417,-0.39688 0.820208,-0.44979 1.217083,-0.15875 0.449792,0.34396 0.582084,0.84666 0.343959,1.27 -0.15875,0.3175 -0.15875,0.60854 0.02646,0.89958 0.370417,0.55563 0.264583,1.16417 -0.238125,1.50813 -0.47625,0.3175 -1.11125,0.21166 -1.481667,-0.3175 -0.343958,-0.39688 -0.502708,-0.87313 -0.502708,-1.42875 z"
       id="path119"
       style="stroke-width:0.264583" /><path
       class="st66"
       d="m 79.540469,130.95701 c -0.502708,0 -0.820208,-0.34396 -0.846667,-0.82021 -0.02646,-0.5027 0.264584,-0.89958 0.687917,-0.9525 0.238125,-0.0265 0.291042,0.0529 0.211667,0.29105 -0.105834,0.29104 -0.02646,0.55562 0.15875,0.79375 0.105833,0.13229 0.396875,0.13229 0.238125,0.42333 -0.07937,0.15875 -0.291042,0.23812 -0.449792,0.26458 z"
       id="path120"
       style="stroke-width:0.264583" /><path
       class="st40"
       d="m 119.59839,132.88847 c 0.34395,1.87854 1.1377,3.4925 2.88395,4.47146 0.21167,0.10583 0.21167,0.21167 0.18521,0.39687 -0.26458,1.48167 -0.52916,2.9898 -0.79375,4.49792 -3.30729,-1.53458 -6.61458,-2.46062 -10.23937,-1.24354 -0.0265,-1.05833 0,-2.03729 0.0794,-3.04271 0.23813,-2.59292 0.68792,-5.13292 1.5875,-7.56708 0.68792,-1.82563 1.82563,-3.25438 3.70417,-3.99521 1.21708,-0.47625 2.38125,-0.44979 3.4925,0.29104 0.34396,0.23813 0.68792,0.44979 1.08479,0.68792 -0.82021,0.42333 -1.37583,1.00541 -1.61396,1.85208 0.0265,0.55563 -0.13229,1.11125 -0.26458,1.64042 -0.18521,0.66146 -0.15875,1.32291 -0.10583,2.01083 z"
       id="path121"
       style="stroke-width:0.264583" /><path
       class="st44"
       d="m 120.07464,129.36951 c 0.55562,-0.82021 1.5875,-0.89958 2.01083,-0.13229 0.13229,0.23813 0.18521,0.39688 -0.13229,0.60854 -0.42334,0.26459 -0.50271,0.79375 -0.13229,1.11125 0.44979,0.39688 0.34395,0.79375 0.0794,1.16417 -0.29104,0.42333 -0.74083,0.58208 -1.24354,0.42333 -0.60854,-0.18521 -0.79375,-0.68791 -0.92604,-1.24354 -0.18521,-0.71437 0.0265,-1.32292 0.34396,-1.93146 z"
       id="path122"
       style="stroke-width:0.264583" /><path
       class="st67"
       d="m 120.78901,133.15305 c 0.37042,0 0.74083,0.4498 0.66146,0.9525 -0.0529,0.34396 -0.3175,0.55563 -0.66146,0.55563 -0.44979,0 -0.66146,-0.29104 -0.71437,-0.71438 -0.0265,-0.42333 0.3175,-0.79375 0.71437,-0.79375 z"
       id="path123"
       style="stroke-width:0.264583" /><path
       class="st68"
       d="m 120.07464,129.36951 c -0.18521,0.635 -0.37042,1.24354 -0.34396,1.93146 -0.26459,0.50271 -0.0265,1.05833 -0.13229,1.5875 -0.26459,-1.24354 -0.10584,-2.46062 0.34395,-3.65125 z"
       id="path124"
       style="stroke-width:0.264583" /><path
       class="st38"
       d="m 78.191094,74.97118 c -0.15875,0 -0.370417,0 -0.47625,-0.132291 -0.132292,-0.185209 0.05292,-0.370417 0.15875,-0.502709 0.15875,-0.185208 0.3175,-0.370416 0.529167,-0.529166 1.666875,-1.322917 3.545416,-2.196042 5.609166,-2.566459 0.105834,-0.02646 0.211667,-0.02646 0.343959,-0.02646 0.370416,-0.02646 0.449791,0.132292 0.238125,0.423333 -0.15875,0.211667 -0.3175,0.423334 -0.502709,0.582084 -1.561041,1.296458 -3.33375,2.143125 -5.291666,2.645833 -0.185209,0.07937 -0.396875,0.07937 -0.608542,0.105833 z"
       id="path125"
       style="stroke-width:0.264583" /><path
       class="st69"
       d="m 150.05193,121.59076 c -0.0265,0.89959 -0.15875,1.79917 -0.635,2.56646 -0.29105,0.47625 -0.50271,0.47625 -0.84667,0.0265 -0.10583,-0.13229 -0.18521,-0.29104 -0.23813,-0.44979 -0.34395,-1.29646 -0.26458,-2.56646 0.26459,-3.78354 0.13229,-0.29105 0.29104,-0.635 0.66146,-0.58209 0.34395,0.0265 0.44979,0.37042 0.55562,0.66146 0.18521,0.50271 0.26458,1.03188 0.23813,1.56104 z"
       id="path126"
       style="stroke-width:0.264583" /><path
       class="st70"
       d="m 89.144844,73.06618 c 0.714375,-0.767291 1.666875,-0.978958 2.645833,-1.031875 -0.740833,0.687917 -1.666875,0.9525 -2.645833,1.031875 z"
       id="path127"
       style="stroke-width:0.264583" /><path
       class="st38"
       d="m 64.194636,155.9866 c 0.264583,0 0.582083,0.13229 0.873125,0.29104 2.248958,1.03187 3.836458,2.72521 4.947708,4.89479 0.264584,0.55562 0.582084,1.11125 0.846667,1.66687 0.105833,0.21167 0.185208,0.50271 0,0.68792 -0.185208,0.23813 -0.47625,0.15875 -0.740833,0.10583 -0.529167,-0.15875 -0.978959,-0.47625 -1.42875,-0.79375 -1.42875,-1.05833 -2.566459,-2.43416 -3.65125,-3.81 -0.555625,-0.68791 -1.164167,-1.34937 -1.534584,-2.16958 -0.211666,-0.52917 0.02646,-0.87312 0.687917,-0.87312 z"
       id="path128"
       style="stroke-width:0.264583" /><path
       class="st71"
       d="m 42.525261,104.31347 c 0.07937,2.09021 -0.9525,3.62479 -1.905,5.29167 -0.3175,-0.87313 0.846667,-4.1275 1.905,-5.29167 z"
       id="path129"
       style="stroke-width:0.264583" /></g><style
     type="text/css"
     id="style1"> .st0{fill:#1A1A1A;} .st1{fill:#FFA659;} .st2{fill:#010000;} .st3{fill:#FEA659;} .st4{fill:#FDA458;} .st5{fill:#FCA458;} .st6{fill:#FAA358;} .st7{fill:#F9A257;} .st8{fill:#F29E56;} .st9{fill:#F5A056;} .st10{fill:#E49752;} .st11{fill:#E59752;} .st12{fill:#E99853;} .st13{fill:#F6A157;} .st14{fill:#E69752;} .st15{fill:#DE9250;} .st16{fill:#F6A056;} .st17{fill:#E49652;} .st18{fill:#C68349;} .st19{fill:#D38C4D;} .st20{fill:#EC9A54;} .st21{fill:#D1894C;} .st22{fill:#C18048;} .st23{fill:#BB7D47;} .st24{fill:#CB874B;} .st25{fill:#C28148;} .st26{fill:#D28A4C;} .st27{fill:#BA7C46;} .st28{fill:#B57945;} .st29{fill:#A97242;} .st30{fill:#8C6039;} .st31{fill:#96683D;} .st32{fill:#A26E40;} .st33{fill:#B17643;} .st34{fill:#8E613A;} .st35{fill:#B67A45;} .st36{fill:#F4E0C9;} .st37{fill:#D8C6B2;} .st38{fill:#81766A;} .st39{fill:#8E8275;} .st40{fill:#FCF6ED;} .st41{fill:#FF596D;} .st42{fill:#F9BF17;} .st43{fill:#F7BE17;} .st44{fill:#FBF5EC;} .st45{fill:#F6BD17;} .st46{fill:#EAD6BA;} .st47{fill:#8C8275;} .st48{fill:#100F0D;} .st49{fill:#CDBEAB;} .st50{fill:#F9EEE2;} .st51{fill:#B5A695;} .st52{fill:#010101;} .st53{fill:#010100;} .st54{fill:#030303;} .st55{fill:#1B1817;} .st56{fill:#E2D9CF;} .st57{fill:#161210;} .st58{fill:#040303;} .st59{fill:#B0A292;} .st60{fill:#0A0908;} .st61{fill:#796F64;} .st62{fill:#27201D;} .st63{fill:#020100;} .st64{fill:#E8DFD4;} .st65{fill:#A59B8E;} .st66{fill:#F0EBE2;} .st67{fill:#F5F0E7;} .st68{fill:#3D3C39;} .st69{fill:#80766A;} .st70{fill:#AA9E8E;} .st71{fill:#B78C11;} </style></svg>
