<?xml version="1.0" encoding="UTF-8" standalone="no"?>
<!-- Created with Inkscape (http://www.inkscape.org/) -->

<svg
   width="242.0645mm"
   height="285.75mm"
   viewBox="0 0 242.0645 285.75"
   version="1.1"
   id="svg1"
   xml:space="preserve"
   inkscape:version="1.3.2 (091e20ef0f, 2023-11-25, custom)"
   sodipodi:docname="placeholder.svg"
   xmlns:inkscape="http://www.inkscape.org/namespaces/inkscape"
   xmlns:sodipodi="http://sodipodi.sourceforge.net/DTD/sodipodi-0.dtd"
   xmlns="http://www.w3.org/2000/svg"
   xmlns:svg="http://www.w3.org/2000/svg"><sodipodi:namedview
     id="namedview1"
     pagecolor="#505050"
     bordercolor="#eeeeee"
     borderopacity="1"
     inkscape:showpageshadow="0"
     inkscape:pageopacity="0"
     inkscape:pagecheckerboard="0"
     inkscape:deskcolor="#505050"
     inkscape:document-units="mm"
     inkscape:zoom="0.4573167"
     inkscape:cx="343.30695"
     inkscape:cy="497.46708"
     inkscape:window-width="1920"
     inkscape:window-height="1000"
     inkscape:window-x="0"
     inkscape:window-y="0"
     inkscape:window-maximized="1"
     inkscape:current-layer="layer1" /><defs
     id="defs1"><style
       id="style1">.cls-1 { opacity: .12; } .cls-1, .cls-2, .cls-3 { fill: #fff; } .cls-4 { isolation: isolate; } .cls-2 { opacity: .3; } .cls-5 { fill: #0b8647; } .cls-6 { mix-blend-mode: darken; } .cls-6, .cls-7 { opacity: .15; } .cls-8 { fill: #faf7d4; } .cls-9 { fill: #b21810; } .cls-10 { fill: #cfd8bf; } .cls-7, .cls-11, .cls-12 { fill: #212121; } .cls-13 { fill: #e2deb5; } .cls-3, .cls-12 { opacity: .35; } .cls-14 { fill: #d31f11; } .cls-15 { fill: #204130; } .cls-16 { fill: #6f212f; } .cls-11 { opacity: .1; }</style></defs><g
     inkscape:label="Layer 1"
     inkscape:groupmode="layer"
     id="layer1"
     transform="translate(16.208717,-5.6250019)"><rect
       class="cls-10"
       width="242.0645"
       height="285.75"
       id="rect1"
       x="-16.208717"
       y="5.6250019"
       style="isolation:isolate;stroke-width:0.24352" /><ellipse
       class="cls-6"
       cx="104.82353"
       cy="225.73451"
       rx="73.723503"
       ry="5.2678542"
       id="ellipse1"
       style="isolation:isolate;stroke-width:0.264583" /><g
       data-name="Object"
       id="g22"
       transform="matrix(0.26458333,0,0,0.26458333,-38.051469,5.6250018)"
       style="isolation:isolate"><path
         class="cls-5"
         d="m 840.21,680.1 c -7.05,18.43 -16.05,34.05 -31.78,46.69 -11.07,8.9 -25.48,16.33 -44.9,22.23 -9.57,2.91 -20.36,5.45 -32.57,7.61 -30.12,5.33 -58.61,9.09 -85.52,11.5 -23.16,2.08 -45.16,3.16 -66.04,3.39 -49.76,0.53 -93.15,-3.8 -130.75,-11.08 -41.47,-8.02 -75.86,-19.63 -103.97,-32.27 h -0.01 c 0,0 -0.01,-0.01 -0.01,-0.01 -73.51,-33.06 -103.95,-73.12 -104.85,-74.33 0.71,0.59 12.41,10.2 34.94,22.78 4.42,2.47 9.26,5.06 14.52,7.71 10,5.05 21.5,10.34 34.5,15.57 14.31,5.75 30.44,11.43 48.37,16.61 1.03,0.3 2.06,0.59 3.1,0.88 h 0.01 c 5.82,1.64 11.83,3.23 18.03,4.75 20.53,5.05 43.09,9.35 67.69,12.4 15.14,1.88 29.71,3.15 43.68,3.91 4.28,0.23 8.5,0.42 12.67,0.55 h 0.01 c 2.63,0.1 5.23,0.17 7.81,0.22 30.47,0.64 57.72,-1.1 81.34,-4.02 h 0.01 c 20.49,-2.52 38.24,-5.92 52.99,-9.42 9.62,-2.28 17.96,-4.6 24.95,-6.74 9.98,-3.05 17.2,-5.75 21.44,-7.44 2.95,-1.18 4.47,-1.88 4.47,-1.88 l 50.89,-11.6 z"
         id="path1" /><path
         class="cls-8"
         d="m 710.35,709.71 c 0,0 -8.99,4.14 -25.91,9.32 -6.99,2.14 -15.33,4.46 -24.95,6.74 -31.76,7.53 -77.45,14.63 -134.34,13.44 -6.68,-0.14 -13.51,-0.39 -20.49,-0.77 -13.97,-0.76 -28.54,-2.03 -43.68,-3.91 -24.6,-3.05 -47.16,-7.35 -67.69,-12.4 -7.31,-1.79 -14.35,-3.68 -21.14,-5.63 -34.23,-9.89 -61.87,-21.58 -82.87,-32.18 -5.26,-2.65 -10.1,-5.24 -14.52,-7.71 C 251.5,663.62 239.79,653.8 239.79,653.8 l 30.39,-58.98 260.93,12.77 144.51,26.55 z"
         id="path2" /><path
         class="cls-14"
         d="M 270.17,594.82 488.73,228.18 679.71,642.82 c 0,0 -52.85,35.9 -219.57,22.47 -139.4,-11.23 -189.96,-70.47 -189.96,-70.47 z"
         id="path3" /><polygon
         class="cls-9"
         points="803.28,623.85 679.7,642.82 488.73,228.18 543.87,228.18 "
         id="polygon3" /><polygon
         class="cls-13"
         points="710.34,709.71 679.7,642.82 803.28,623.85 840.21,680.09 "
         id="polygon4" /><path
         class="cls-15"
         d="m 645.44,768.13 c -23.16,2.08 -45.16,3.16 -66.04,3.39 -0.52,-5.77 -8.54,-11.91 -35.07,-20.9 -12.07,-4.08 -20.81,-7.95 -27,-11.63 2.63,0.1 5.23,0.17 7.81,0.22 30.47,0.64 57.72,-1.1 81.34,-4.02 h 0.01 c 7.21,1.56 15.11,3.55 23.47,7.15 15.27,6.56 17.31,15.7 15.48,25.79 z"
         id="path4" /><path
         class="cls-15"
         d="m 448.65,760.44 c -41.47,-8.02 -75.86,-19.63 -103.97,-32.27 h -0.01 c 0,0 -0.01,-0.01 -0.01,-0.01 -14.16,-11.08 -19.99,-20.54 -20.89,-28.27 14.31,5.75 30.44,11.43 48.37,16.61 1.03,0.3 2.06,0.59 3.1,0.88 h 0.01 c 14.05,10.45 94.07,35.97 73.4,43.06 z"
         id="path5" /><path
         class="cls-15"
         d="m 808.44,726.79 c -11.07,8.9 -25.48,16.33 -44.9,22.23 -29.09,-3.14 -67.63,-6.48 -57.66,-37.43 2.95,-1.18 4.47,-1.88 4.47,-1.88 l 50.89,-11.6 9.88,-1.72 c -2.61,2.84 -4.08,6.25 -3.85,10.33 1.36,25.12 20.59,17.79 39.81,19.89 0.46,0.05 0.91,0.11 1.36,0.18 z"
         id="path6" /><path
         class="cls-16"
         d="m 470.08,335.02 c 0.09,-0.61 -0.93,-0.81 -1.48,-0.29 -5.49,5.16 -26.96,22.88 -13.52,28.16 13.78,5.42 14.22,-22.23 15,-27.87 z"
         id="path7" /><path
         class="cls-16"
         d="m 518.19,405.51 c -0.2,-0.59 -1.19,-0.31 -1.45,0.41 -2.59,7.08 -13.81,32.55 0.56,31.23 14.74,-1.35 2.72,-26.24 0.89,-31.64 z"
         id="path8" /><path
         class="cls-16"
         d="m 432.53,444.9 c -0.2,-0.59 -1.19,-0.31 -1.45,0.41 -2.59,7.08 -13.81,32.55 0.56,31.23 14.37,-1.32 2.72,-26.24 0.89,-31.64 z"
         id="path9" /><path
         class="cls-16"
         d="m 495.72,490.35 c -0.03,-0.62 -1.06,-0.63 -1.51,0 -4.44,6.09 -22.22,27.5 -8.04,30.19 14.54,2.76 9.83,-24.49 9.55,-30.18 z"
         id="path10" /><path
         class="cls-16"
         d="m 466.93,565.58 c -0.3,-0.54 -1.23,-0.1 -1.36,0.65 -1.33,7.42 -7.97,34.45 5.96,30.67 14.29,-3.88 -1.86,-26.32 -4.6,-31.32 z"
         id="path11" /><path
         class="cls-16"
         d="m 566.51,534.02 c -0.1,-0.61 -1.13,-0.49 -1.5,0.17 -3.67,6.58 -18.75,29.98 -4.35,30.94 14.4,0.96 6.81,-25.49 5.85,-31.11 z"
         id="path12" /><path
         class="cls-16"
         d="m 390.91,517.79 c -0.18,-0.59 -1.18,-0.36 -1.47,0.35 -2.87,6.97 -15.09,31.97 -0.68,31.23 14.78,-0.76 3.76,-26.12 2.15,-31.58 z"
         id="path13" /><g
         data-name="Shadow"
         id="g16"><path
           class="cls-12"
           d="m 840.21,680.1 c -7.05,18.43 -16.05,34.05 -31.78,46.69 -11.07,8.9 -25.48,16.33 -44.9,22.23 -9.57,2.91 -20.36,5.45 -32.57,7.61 -30.12,5.33 -58.61,9.09 -85.52,11.5 -23.16,2.08 -45.16,3.16 -66.04,3.39 -49.76,0.53 -93.15,-3.8 -130.75,-11.08 -12.92,-2.5 -25.15,-5.35 -36.73,-8.46 14.49,2.75 131.25,22.34 246.84,-6.52 114.71,-28.64 100.67,-45.24 102.47,-47.35 z"
           id="path14" /><path
           class="cls-7"
           d="m 806.35,653.83 c -9.87,-26.35 -67.81,-19.89 -71.79,-19.42 l 68.72,-10.55 36.94,56.24 -36.93,8.42 c 0.29,-0.17 13.15,-7.71 3.06,-34.69 z"
           id="path15" /><path
           class="cls-11"
           d="m 568.56,265.82 234.72,358.04 -85.73,13.16 c 69.84,-22.8 -148.99,-371.2 -148.99,-371.2 z"
           id="path16" /></g><path
         class="cls-1"
         d="m 356.06,541.48 c 12.04,-26.31 24.09,-52.62 36.13,-78.93 3.1,-6.77 -4.29,-13.72 -10.76,-10.01 -0.05,0.03 -0.1,0.06 -0.14,0.08 -4.77,2.79 -8.32,7.21 -11.76,11.53 -24.92,31.3 -50.96,65.4 -53.16,105.35 -0.42,7.62 0.25,15.81 4.91,21.85 2.87,3.72 9.07,7.29 13.96,6.04 6.78,-1.73 5.08,-5.88 5.89,-12.13 2.01,-15.42 8.51,-29.77 14.93,-43.78 z"
         id="path17" /><path
         class="cls-1"
         d="m 401.79,405.37 c 1.58,-2.32 3.69,-4.67 6.48,-4.92 2.4,-0.21 4.75,1.3 5.96,3.39 1.21,2.09 1.42,4.63 1.07,7.02 -0.64,4.35 -2.99,8.24 -5.28,11.99 -3.11,5.07 -6.11,10.23 -9.32,15.23 -1.01,1.57 -2.52,4.64 -4.77,3.71 -2,-0.83 -2.04,-4.72 -2.16,-6.42 -0.75,-10.52 2.07,-21.29 8.02,-30.01 z"
         id="path18" /><path
         class="cls-1"
         d="m 597.17,397.34 c -12.56,-24.24 -25.11,-48.48 -37.67,-72.72 -3.23,-6.24 -7.87,-4.22 -6.7,2.99 0,0.05 0.02,0.11 0.03,0.16 0.89,5.35 2.81,10.64 4.69,15.79 13.61,37.27 28.58,76.98 49.66,100.98 4.02,4.58 8.48,8.61 12.29,8.25 2.35,-0.22 5.03,-3.16 4.98,-7.75 -0.08,-6.36 -2.51,-7.32 -5.74,-11.44 -7.99,-10.18 -14.85,-23.36 -21.54,-36.26 z"
         id="path19" /><path
         class="cls-1"
         d="m 530.13,285.14 c -1.04,-2.55 -2.03,-5.54 -1.82,-7.9 0.19,-2.03 1.29,-3.05 2.56,-2.86 1.27,0.19 2.65,1.45 3.89,3.06 2.25,2.93 4.03,6.96 5.75,10.88 2.32,5.3 4.71,10.56 6.98,15.91 0.71,1.68 2.16,4.59 1.39,5.86 -0.69,1.13 -2.78,-1 -3.7,-1.86 -5.72,-5.26 -11.12,-13.5 -15.04,-23.09 z"
         id="path20" /><path
         class="cls-3"
         d="m 460.98,734.53 c -24.6,-3.05 -47.16,-7.35 -67.69,-12.4 -7.31,-1.79 -14.35,-3.68 -21.14,-5.63 -34.23,-9.89 -61.87,-21.58 -82.87,-32.18 -5.26,-2.65 -10.1,-5.24 -14.52,-7.71 C 251.5,663.62 239.79,653.8 239.79,653.8 l 30.39,-58.98 c 0,0 3.44,91.21 190.8,139.71 z"
         id="path21" /><path
         class="cls-2"
         d="M 415.76,752.99 C 388.59,745.9 364.99,737.3 344.68,728.17 h -0.01 c 0,0 -0.01,-0.01 -0.01,-0.01 -32.55,-14.64 -56.65,-30.65 -73.48,-44.06 36.34,14.43 100.59,40.98 125.19,57.78 4.78,3.27 11.58,7.04 19.39,11.11 z"
         id="path22" /></g></g></svg>
