<?xml version="1.0" encoding="UTF-8" standalone="no"?>
<!-- Created with Inkscape (http://www.inkscape.org/) -->

<svg
   width="186.97569mm"
   height="189.88625mm"
   viewBox="0 0 186.97569 189.88625"
   version="1.1"
   id="svg1"
   xml:space="preserve"
   inkscape:version="1.3.2 (091e20ef0f, 2023-11-25, custom)"
   sodipodi:docname="placeholder.svg"
   xmlns:inkscape="http://www.inkscape.org/namespaces/inkscape"
   xmlns:sodipodi="http://sodipodi.sourceforge.net/DTD/sodipodi-0.dtd"
   xmlns="http://www.w3.org/2000/svg"
   xmlns:svg="http://www.w3.org/2000/svg"><sodipodi:namedview
     id="namedview1"
     pagecolor="#505050"
     bordercolor="#eeeeee"
     borderopacity="1"
     inkscape:showpageshadow="0"
     inkscape:pageopacity="0"
     inkscape:pagecheckerboard="0"
     inkscape:deskcolor="#505050"
     inkscape:document-units="mm"
     showgrid="false"
     inkscape:zoom="0.68150253"
     inkscape:cx="352.16304"
     inkscape:cy="344.09264"
     inkscape:window-width="1920"
     inkscape:window-height="1000"
     inkscape:window-x="0"
     inkscape:window-y="0"
     inkscape:window-maximized="1"
     inkscape:current-layer="layer1" /><defs
     id="defs1" /><g
     inkscape:label="Layer 1"
     inkscape:groupmode="layer"
     id="layer1"
     transform="translate(-11.628071,-57.412371)"><g
       id="g1"><g
         fill="#312043"
         id="g2"
         transform="matrix(0.26458333,0,0,0.26458333,-35.934669,-125.60885)"><path
           d="m 560.23,696.18 c 12.247,2.5498 22.529,8.4748 30.846,17.776 3.279,5.8253 4.4982,12.099 3.6597,18.821 11.953,0.48696 19.795,6.412 23.526,17.776 1.7002,14.11 -0.9138,27.354 -7.8421,39.733 h -1.0456 c 1.4168,-14.028 -1.5464,-26.925 -8.8878,-38.688 -2.1299,-2.3068 -4.3947,-4.398 -6.7964,-6.2737 -0.9474,-1.5319 -2.3413,-2.5774 -4.1825,-3.1368 -9.7441,8.7142 -20.548,15.685 -32.414,20.912 -17.273,6.4535 -35.048,10.984 -53.326,13.593 1.1522,-1.6647 0.45478,-2.5358 -2.0912,-2.614 1.2255,-0.4382 2.2711,-1.1346 3.1369,-2.0913 24.877,-3.4598 45.615,-14.439 62.214,-32.937 3.7381,-5.9939 6.8749,-12.268 9.4105,-18.821 0.69746,-4.8798 0.69746,-9.7592 0,-14.639 -1.559,-1.5723 -3.4756,-2.4437 -5.7508,-2.614 -1.2976,-3.502 -3.5635,-4.3733 -6.7965,-2.614 -0.72155,-1.9346 -1.9408,-3.3289 -3.6596,-4.1825 z"
           id="path2" /></g><g
         fill="#38284c"
         id="g3"
         transform="matrix(0.26458333,0,0,0.26458333,-35.934669,-125.60885)"><path
           d="m 560.23,696.18 c 1.7189,0.8536 2.9381,2.2479 3.6596,4.1825 3.233,-1.7593 5.4989,-0.88796 6.7965,2.614 2.2752,0.1703 4.1919,1.0417 5.7508,2.614 0.69746,4.8795 0.69746,9.7589 0,14.639 -2.5356,6.5534 -5.6724,12.827 -9.4105,18.821 -16.599,18.498 -37.337,29.477 -62.214,32.937 -0.86584,0.9567 -1.9114,1.6531 -3.1369,2.0913 2.546,0.0783 3.2435,0.94936 2.0912,2.614 -8.5145,1.4126 -17.229,2.4583 -26.14,3.1369 1.7974,2.1371 3.5405,4.2284 5.2281,6.2736 2.2104,10.151 -0.229,19.039 -7.3193,26.663 -2.0296,1.9897 -4.4689,2.8607 -7.3193,2.614 0.28229,4.7345 0.9798,9.2651 2.0912,13.593 0.33771,3.896 -0.0115,7.7303 -1.0457,11.502 -2.5826,-5.6903 -6.0677,-10.745 -10.456,-15.162 -3.1745,-2.0974 -6.6596,-2.9695 -10.456,-2.614 -4.0173,-8.387 -7.1541,-17.1 -9.4105,-26.14 -2.3297,-7.8036 -3.7245,-15.819 -4.1824,-24.049 -2.7531,-0.83654 -4.8443,-2.405 -6.2737,-4.7052 1.3937,-1.3938 2.7886,-2.7887 4.1824,-4.1825 -1.0456,-1.743 -2.0912,-3.4851 -3.1368,-5.2281 3.0114,-5.8043 6.8446,-11.032 11.502,-15.684 -9.4325,-2.6476 -12.919,-8.7473 -10.456,-18.298 2.7092,5.8453 7.2409,9.3308 13.593,10.456 3.5394,-3.9106 6.8508,-8.0931 9.9334,-12.547 30.589,-28.168 65.967,-36.881 106.13,-26.14 z"
           id="path3" /></g><g
         fill="#a0969f"
         id="g4"
         transform="matrix(0.26458333,0,0,0.26458333,-35.934669,-125.60885)"><path
           d="m 488.08,743.23 c 3.2393,-0.091 3.5886,0.43166 1.0456,1.5684 -8.4789,3.0531 -17.192,4.4469 -26.14,4.1825 8.6023,-1.4723 16.967,-3.39 25.095,-5.7509 z"
           id="path4" /></g><g
         fill="#fdbe74"
         id="g5"
         transform="matrix(0.26458333,0,0,0.26458333,-35.934669,-125.60885)"><path
           d="m 593.69,745.32 c 2.4017,1.8757 4.6665,3.9669 6.7964,6.2737 7.3413,11.763 10.305,24.66 8.8878,38.688 0.2677,2.3966 -0.0805,4.6624 -1.0456,6.7965 -0.3482,0.17454 -0.69744,0.34814 -1.0456,0.52284 -0.81665,-1.2852 -1.3394,-2.679 -1.5684,-4.1825 -1.0571,0.8751 -2.2773,1.2233 -3.6596,1.0456 0.2332,-2.7333 -0.9871,-4.4764 -3.6596,-5.2282 -6.6219,0.6975 -13.245,1.3938 -19.867,2.0913 -0.34821,-0.34826 -0.69746,-0.6975 -1.0456,-1.0456 -1.7233,1.2724 -3.6399,2.1433 -5.7509,2.614 0.75275,2.6045 1.4502,5.2186 2.0912,7.8421 -1.2913,-0.23105 -2.337,-0.92856 -3.1368,-2.0913 -0.99446,0.86367 -2.0401,1.0372 -3.1369,0.52285 0.34816,-1.0456 0.69746,-2.0912 1.0456,-3.1368 -1.743,-0.6974 -3.485,-0.6974 -5.2281,0 1.2181,1.9532 0.86995,3.8708 -1.0456,5.7509 -1.9375,1.3175 -3.8542,1.3175 -5.7508,0 -0.9442,1.2557 -2.1635,2.1278 -3.6597,2.6141 -3.1861,5.7268 -6.8458,10.432 -10.979,14.116 -0.3482,-1.0455 -0.69746,-2.0912 -1.0457,-3.1368 -1.0456,0.34824 -2.0912,0.6975 -3.1368,1.0456 -0.67437,-1.1984 -1.5454,-2.244 -2.614,-3.1368 0.69745,-0.34815 1.3938,-0.6974 2.0912,-1.0457 -0.80414,-3.1474 -1.6761,-6.2843 -2.6141,-9.4105 -2.4864,-1.4753 -5.1005,-2.6946 -7.8421,-3.6596 0.9651,-2.134 1.3133,-4.3999 1.0456,-6.7965 -3.1558,-0.17264 -6.2926,0.002 -9.4105,0.52282 1.2066,0.95554 1.032,1.8265 -0.52283,2.614 -1.3801,-2.178 -2.775,-1.8288 -4.1824,1.0456 -0.34823,-0.34813 -0.69743,-0.69739 -1.0456,-1.0456 -1.1157,0.7224 -2.336,1.2451 -3.6597,1.5685 2.7196,2.661 5.3337,2.8355 7.8421,0.52284 1.4178,0.92 2.9862,1.2693 4.7052,1.0455 -0.14633,1.6981 0.55107,2.9172 2.0913,3.6597 -6.5194,2.8755 -13.142,3.2236 -19.867,1.0456 1.3938,-0.34814 2.7887,-0.69739 4.1825,-1.0456 -4.6394,-2.246 -8.2991,-1.7232 -10.979,1.5685 -3.3679,-1.7839 -5.2845,-0.39014 -5.7508,4.1825 -2.0912,-0.69751 -4.1825,-1.3938 -6.2737,-2.0913 -0.11707,5.3254 -0.9881,5.3254 -2.6141,0 -0.30328,2.5638 -0.99956,5.0033 -2.0912,7.3194 -0.75074,-0.9945 -1.6218,-1.1681 -2.6141,-0.52284 -2.5983,1.5548 -4.8642,3.4725 -6.7965,5.7508 -0.5207,3.4684 -0.69538,6.9535 -0.52277,10.456 -1.1114,-4.3279 -1.809,-8.8585 -2.0912,-13.593 2.8504,0.2467 5.2897,-0.6243 7.3193,-2.614 7.0903,-7.6247 9.5297,-16.512 7.3193,-26.663 0.87206,-1.305 2.2659,-2.0024 4.1824,-2.0912 15.354,-2.4678 30.689,-5.0818 46.007,-7.8422 6.1408,-1.5988 12.066,-3.5164 17.775,-5.7508 14.531,-3.9546 27.775,-10.403 39.733,-19.344 1.4313,-1.7976 2.4769,-3.7142 3.1368,-5.751 z"
           id="path5" /></g><g
         fill="#f59458"
         id="g7"
         transform="matrix(0.26458333,0,0,0.26458333,-35.934669,-125.60885)"><path
           d="m 593.69,745.32 c -0.6599,2.0368 -1.7055,3.9534 -3.1368,5.751 -11.959,8.9409 -25.202,15.389 -39.733,19.344 -0.61792,-0.68079 -1.3143,-1.3783 -2.0913,-2.0913 2.9037,-1.7555 5.6924,-3.4975 8.3649,-5.228 11.866,-5.227 22.67,-12.198 32.414,-20.912 1.8412,0.55944 3.2351,1.605 4.1825,3.1368 z"
           id="path6" /><path
           d="m 557.09,763.1 c -2.6725,1.7305 -5.4612,3.4726 -8.3649,5.228 0.777,0.71301 1.4733,1.4105 2.0913,2.0913 -5.7091,2.2345 -11.635,4.1521 -17.775,5.7508 -15.318,2.7604 -30.653,5.3744 -46.007,7.8422 -1.9166,0.0887 -3.3104,0.78613 -4.1824,2.0912 -1.6876,-2.0453 -3.4307,-4.1366 -5.2281,-6.2736 8.9118,-0.6786 17.626,-1.7243 26.14,-3.1369 18.278,-2.6089 36.054,-7.1395 53.326,-13.593 z"
           id="path7" /></g><g
         fill="#f3eff4"
         id="g8"
         transform="matrix(0.26458333,0,0,0.26458333,-35.934669,-125.60885)"><path
           d="m 610.42,790.28 c 92.15,15.692 160.99,64.139 206.51,145.34 44.752,92.17 47.714,185.58 8.8877,280.23 -12.585,1.1188 -25.132,2.5137 -37.642,4.1825 3.369,-5.4633 4.5891,-11.388 3.6596,-17.776 -3.7339,-16.335 -8.4392,-32.367 -14.116,-48.098 h -3.1368 c 4.6958,-2.4205 6.6124,-6.2548 5.7508,-11.502 -15.539,-44.872 -30.874,-89.834 -46.007,-134.88 -5.3661,-16.112 -12.337,-31.448 -20.912,-46.007 -5.8502,-6.898 -12.647,-12.649 -20.39,-17.253 -28.084,-14.043 -56.664,-26.939 -85.74,-38.688 -2.8033,-2.0285 -5.2428,-4.2943 -7.3192,-6.7965 4.8359,-7.1279 9.5412,-14.447 14.116,-21.958 1.2348,-4.5912 2.6287,-9.1218 4.1824,-13.593 0.85424,-5.7676 0.68066,-11.345 -0.52283,-16.73 0.0942,-2.7731 -0.60227,-5.2125 -2.0912,-7.3193 -3.8761,-16.098 -5.6181,-32.479 -5.2281,-49.144 z"
           id="path8" /></g><g
         fill="#351f3b"
         id="g9"
         transform="matrix(0.26458333,0,0,0.26458333,-35.934669,-125.60885)"><path
           d="m 606.24,801.78 c -4.7389,-0.33252 -9.2705,0.0156 -13.593,1.0456 -4.8642,0.52064 -9.7441,0.8689 -14.639,1.0457 -1.2839,-0.84287 -2.3296,-1.8886 -3.1368,-3.1369 v -7.3193 c 7.6716,-0.52393 15.339,-0.6985 23.004,-0.52284 3.7747,2.0326 7.2597,4.472 10.456,7.3193 -0.5689,0.74963 -1.2662,1.2723 -2.0912,1.5684 z"
           id="path9" /></g><g
         fill="#f3f0f4"
         id="g10"
         transform="matrix(0.26458333,0,0,0.26458333,-35.934669,-125.60885)"><path
           d="m 438.94,796.55 c 2.2564,9.0403 5.3932,17.753 9.4105,26.14 -9.489,4.6928 -13.149,12.36 -10.979,23.004 2.5607,10.578 8.6598,18.421 18.298,23.526 5.9537,0.4015 11.878,0.4015 17.775,0 3.2602,5.296 6.3971,10.698 9.4105,16.207 -3.0261,1.4452 -5.6401,3.5364 -7.8421,6.2738 -2.8754,4.0067 -5.4895,8.1892 -7.8421,12.547 -3.667,1.216 -7.153,2.6098 -10.456,4.1825 -18.676,6.8947 -37.149,14.389 -55.418,22.481 -15.047,5.6598 -28.118,14.199 -39.21,25.618 -10.008,16.543 -17.152,34.318 -21.435,53.326 h -1.0457 c -1.2621,-7.835 -3.1787,-15.502 -5.7508,-23.004 -0.36914,-2.7731 -1.5894,-4.8643 -3.6597,-6.2737 -2.0232,0.67966 -4.1144,1.0278 -6.2737,1.0456 2.5199,9.3061 4.6111,18.717 6.2737,28.232 v 3.1368 c -5.9349,-0.1734 -11.86,0 -17.775,0.5228 -5.2448,7.7207 -10.299,15.563 -15.161,23.526 -1.995,2.8294 -2.866,5.9662 -2.6141,9.4106 -0.69324,3.4558 -2.4363,6.7673 -5.2281,9.9333 0.4643,1.8424 0.98713,1.6678 1.5684,-0.5227 1.3583,0.4871 2.9267,0.4871 4.7053,0 -0.22895,4.1658 -0.22895,8.1747 0,12.024 -1.0153,1.2588 -2.0609,1.7817 -3.1368,1.5685 2.2784,2.318 2.2784,4.4092 0,6.2737 1.055,2.9663 3.1463,4.3601 6.2738,4.1824 -0.1778,1.3823 0.1704,2.6026 1.0456,3.6596 -0.34822,0.1747 -0.69746,0.3483 -1.0456,0.5229 -0.7853,-0.9161 -1.308,-1.9616 -1.5684,-3.1369 -0.30327,1.6145 -0.99963,3.0083 -2.0912,4.1825 -0.69744,1.7431 -0.69744,3.485 0,5.228 1.122,-0.8155 2.3422,-0.6408 3.6597,0.5229 -0.3482,0.3481 -0.69746,0.6975 -1.0457,1.0456 1.3457,1.4743 2.566,3.0428 3.6597,4.7052 0.47156,-2.5398 1.3436,-2.7143 2.614,-0.5227 -1.1334,2.2897 -0.43602,4.0316 2.0912,5.228 -2.9329,2.0984 -3.2812,4.8871 -1.0456,8.365 -0.9013,2.8588 -1.7723,3.0334 -2.6141,0.5227 -1.4503,1.8831 -3.0187,2.5806 -4.7053,2.0913 1.65,0.8343 3.392,1.357 5.2281,1.5684 -2.4394,1.0457 -4.1824,2.7887 -5.2281,5.2282 1.1899,1.8131 1.7128,3.7308 1.5684,5.7508 -2.7029,-1.4484 -4.7941,-0.7508 -6.2737,2.0912 -0.50501,-0.9912 -0.67858,-2.0369 -0.52283,-3.1368 -1.698,-0.1463 -2.9173,0.5511 -3.6596,2.0913 -0.44232,-1.5224 -1.3133,-2.0452 -2.6141,-1.5685 1.764,2.0001 2.2867,4.266 1.5684,6.7965 -0.75074,-0.9945 -1.6218,-1.1681 -2.614,-0.5228 2.6172,1.8653 2.6172,3.6084 0,5.2281 -2.1623,0.7182 -4.2536,0.5436 -6.2737,-0.5228 -1.2506,0.3618 -1.2506,0.8846 0,1.5684 -4.5338,-0.056 -9.0655,-0.5793 -13.593,-1.5684 -2.1717,0.2008 -4.2629,0.7236 -6.2737,1.5684 5.8356,0.1569 11.412,1.0279 16.73,2.6141 -25.141,-2.1154 -50.236,-4.7294 -75.284,-7.8422 -6.0449,-0.3525 -11.621,-1.5727 -16.73,-3.6596 1.4727,-0.5868 3.0412,-0.936 4.7053,-1.0457 13.39,1.7399 26.808,3.1337 40.256,4.1825 -15.802,-76.937 -3.7776,-149.07998 36.074,-216.43998 41.364,-63.662 99.396,-103.05 174.09,-118.15 z"
           id="path10" /></g><g
         fill="#653334"
         id="g11"
         transform="matrix(0.26458333,0,0,0.26458333,-35.934669,-125.60885)"><path
           d="m 592.65,802.83 c 4.3226,-1.03 8.8542,-1.3782 13.593,-1.0456 -0.91382,1.0719 -2.1341,1.7693 -3.6597,2.0913 -3.2466,-0.90677 -6.5581,-1.256 -9.9334,-1.0457 z"
           id="path11" /></g><g
         fill="#67352d"
         id="g12"
         transform="matrix(0.26458333,0,0,0.26458333,-35.934669,-125.60885)"><path
           d="m 587.42,812.24 c 2.3369,-0.3086 4.4282,0.0408 6.2737,1.0457 -2.6246,-0.4663 -4.7159,0.23 -6.2737,2.0912 -3.5655,2.5156 -6.3533,5.6524 -8.3649,9.4106 -0.0701,-1.5256 0.27806,-2.9194 1.0456,-4.1825 1.721,-3.461 4.1615,-6.2497 7.3193,-8.365 z"
           id="path12" /></g><g
         fill="#291a26"
         id="g13"
         transform="matrix(0.26458333,0,0,0.26458333,-35.934669,-125.60885)"><path
           d="m 593.69,813.28 c 5.5375,2.3692 7.4552,6.5518 5.7508,12.547 -2.5942,1.8968 -5.5576,2.5932 -8.8877,2.0913 -1.2966,-3.0794 -1.2966,-6.2162 0,-9.4107 -0.0168,-2.1078 -1.0625,-3.1534 -3.1369,-3.1368 1.5578,-1.8612 3.6491,-2.5575 6.2737,-2.0912 z"
           id="path13" /></g><g
         fill="#fdbf77"
         id="g14"
         transform="matrix(0.26458333,0,0,0.26458333,-35.934669,-125.60885)"><path
           d="m 609.38,790.28 h 1.0456 c -0.39,16.665 1.352,33.046 5.2281,49.144 -1.878,-1.3521 -3.621,-2.9204 -5.2281,-4.7052 -3.118,-0.5209 -6.2548,-0.6956 -9.4105,-0.52286 0.116,-0.64524 0.46427,-1.1681 1.0456,-1.5685 -3.1516,-3.1725 -6.9858,-4.3928 -11.502,-3.6597 v -1.0455 c 3.3301,0.50184 6.2934,-0.19456 8.8877,-2.0913 1.7044,-5.9956 -0.21335,-10.178 -5.7508,-12.547 -1.8455,-1.0049 -3.9368,-1.3543 -6.2737,-1.0457 -1.5946,-1.9867 -2.6402,-3.9033 -3.1369,-5.7508 -2.6675,-0.002 -4.7586,-0.8743 -6.2737,-2.614 4.8945,-0.17677 9.7744,-0.52503 14.639,-1.0457 3.3753,-0.2103 6.6867,0.1389 9.9334,1.0457 1.5256,-0.32202 2.7458,-1.0194 3.6597,-2.0913 0.82504,-0.29602 1.5223,-0.81873 2.0912,-1.5684 -3.1965,-2.8473 -6.6815,-5.2867 -10.456,-7.3193 -7.6644,-0.17566 -15.332,-10e-4 -23.004,0.52284 v 7.3193 h -1.0456 c -0.64106,-2.6235 -1.3385,-5.2376 -2.0912,-7.8421 2.111,-0.4707 4.0276,-1.3417 5.7509,-2.614 0.34814,0.34815 0.69739,0.69739 1.0456,1.0456 6.6219,-0.6975 13.245,-1.3938 19.867,-2.0913 2.6725,0.7518 3.8928,2.4949 3.6596,5.2282 1.3824,0.17761 2.6026,-0.17055 3.6596,-1.0456 0.22897,1.5035 0.75177,2.8973 1.5684,4.1825 0.34821,-0.1747 0.69745,-0.3483 1.0456,-0.52284 0.9651,-2.1342 1.3133,-4.3999 1.0456,-6.7965 z"
           id="path14" /></g><g
         fill="#f2ece9"
         id="g15"
         transform="matrix(0.26458333,0,0,0.26458333,-35.934669,-125.60885)"><path
           d="m 587.42,815.38 c 2.0744,-0.0166 3.1201,1.029 3.1369,3.1368 -1.2966,3.1945 -1.2966,6.3313 0,9.4107 v 1.0455 c -3.7601,0.9275 -7.5933,1.9731 -11.502,3.1368 v -7.3192 c 2.0116,-3.7582 4.7994,-6.895 8.3649,-9.4106 z"
           id="path15" /></g><g
         fill="#f59458"
         id="g16"
         transform="matrix(0.26458333,0,0,0.26458333,-35.934669,-125.60885)"><path
           d="m 565.46,816.42 c -0.40467,6.4943 0.11816,13.116 1.5684,19.867 3.2612,8.1484 7.4436,15.816 12.547,23.004 2.5952,5.1956 2.0724,9.9008 -1.5684,14.116 -4.8736,0.17665 -9.7535,0.003 -14.639,-0.5228 -2.7782,-0.7948 -3.8238,-2.3632 -3.1368,-4.7052 4.0381,-0.6746 8.047,-0.501 12.025,0.5227 3.0678,-1.1105 4.288,-3.3764 3.6596,-6.7965 -0.17464,-1.5684 -0.3482,-3.1369 -0.52284,-4.7052 -5.2751,-7.0653 -9.4576,-14.733 -12.547,-23.004 -0.69745,-4.5306 -0.69745,-9.0624 0,-13.593 0.63565,-1.6374 1.5077,-3.0323 2.614,-4.1825 z"
           id="path16" /></g><g
         fill="#63241c"
         id="g17"
         transform="matrix(0.26458333,0,0,0.26458333,-35.934669,-125.60885)"><path
           d="m 582.19,877.07 c -1.2129,3.9806 -3.3041,7.9895 -6.2737,12.024 -3.8302,3.3197 -8.0126,4.5401 -12.547,3.6597 6.92,-0.6483 11.8,-4.1344 14.639,-10.456 0.94527,-0.7413 1.2934,-1.787 1.0457,-3.1368 0.8259,-0.94214 1.8716,-1.6395 3.1368,-2.0912 z"
           id="path17" /></g><g
         fill="#a44630"
         id="g18"
         transform="matrix(0.26458333,0,0,0.26458333,-35.934669,-125.60885)"><path
           d="m 579.05,879.16 c 0.2477,1.3498 -0.1004,2.3955 -1.0457,3.1368 0.13702,-0.7727 -0.0376,-1.4701 -0.52277,-2.0912 -2.2648,1.2871 -4.5307,2.3328 -6.7965,3.1369 -9.6742,1.6991 -19.433,2.3966 -29.277,2.0912 h -4.1824 c -1.0456,-0.34815 -1.7431,-1.0456 -2.0912,-2.0912 7.106,1.3319 14.077,1.3319 20.912,0 5.2281,-0.69736 10.456,-1.3938 15.684,-2.0912 2.3484,-0.9987 4.7878,-1.6962 7.3194,-2.0913 z"
           id="path18" /></g><g
         fill="#f5d6c6"
         id="g19"
         transform="matrix(0.26458333,0,0,0.26458333,-35.934669,-125.60885)"><path
           d="m 570.69,883.34 c -2.7699,1.6825 -5.9067,2.5543 -9.4105,2.614 -6.8112,0.8574 -13.433,0.6827 -19.867,-0.52285 9.8444,0.30545 19.603,-0.39209 29.277,-2.0912 z"
           id="path19" /></g><g
         fill="#4b3136"
         id="g20"
         transform="matrix(0.26458333,0,0,0.26458333,-35.934669,-125.60885)"><path
           d="m 535.14,883.34 c 0.34815,1.0456 1.0456,1.743 2.0912,2.0912 2.1696,3.2194 4.9583,5.6588 8.3649,7.3194 -1.5256,0.0702 -2.9194,-0.2781 -4.1824,-1.0456 -3.574,-1.1806 -6.5362,-3.272 -8.8877,-6.2738 -0.1966,-1.6322 0.6744,-2.3296 2.614,-2.0912 z"
           id="path20" /></g><g
         fill="#fcf6f3"
         id="g21"
         transform="matrix(0.26458333,0,0,0.26458333,-35.934669,-125.60885)"><path
           d="m 578.01,882.3 c -2.8389,6.3218 -7.7186,9.8079 -14.639,10.456 -5.8963,1.1908 -11.821,1.1908 -17.775,0 -3.4066,-1.6605 -6.1953,-4.1 -8.3649,-7.3194 h 4.1824 c 6.4336,1.2056 13.055,1.3802 19.867,0.52285 3.5039,-0.0597 6.6407,-0.93154 9.4105,-2.614 2.2658,-0.80406 4.5317,-1.8497 6.7965,-3.1369 0.48514,0.6211 0.65979,1.3185 0.52277,2.0912 z"
           id="path21" /></g><g
         fill="#f29267"
         id="g22"
         transform="matrix(0.26458333,0,0,0.26458333,-35.934669,-125.60885)"><path
           d="m 582.19,877.07 c 0.8385,-1.4484 1.536,-1.2737 2.0912,0.5228 -2.2082,2.9202 -3.4285,6.2308 -3.6596,9.9334 -3.3627,3.0929 -5.9767,6.7525 -7.8421,10.979 -7.6623,3.0364 -15.33,3.2099 -23.004,0.52271 -2.5535,-2.9152 -5.3421,-5.3546 -8.3649,-7.3192 1.2631,0.76745 2.6569,1.1158 4.1824,1.0456 5.9548,1.1908 11.879,1.1908 17.775,0 4.5348,0.88036 8.7172,-0.34 12.547,-3.6597 2.9696,-4.035 5.0608,-8.0439 6.2737,-12.024 z"
           id="path22" /></g><g
         fill="#178896"
         id="g23"
         transform="matrix(0.26458333,0,0,0.26458333,-35.934669,-125.60885)"><path
           d="m 482.86,885.43 c 2.546,4.721 5.8575,8.9034 9.9333,12.547 0.51758,2.0629 0.6922,4.1541 0.52283,6.2737 -1.3071,0.0805 -2.178,0.778 -2.6141,2.0912 -1.3415,4.0925 -2.2125,8.2749 -2.614,12.547 v 10.456 c 0.22064,7.4667 1.4398,14.786 3.6597,21.958 0.40039,0.58115 0.92321,0.92945 1.5684,1.0456 0.61896,3.3364 1.8392,6.4732 3.6596,9.4106 7.6214,10.063 15.637,19.823 24.049,29.277 4.1396,5.8388 7.4499,12.112 9.9333,18.821 -1.0415,0.09 -1.9125,-0.2592 -2.614,-1.0455 -5.5721,-14.192 -15.854,-19.247 -30.846,-15.162 -7.7438,2.3493 -15.586,4.266 -23.526,5.7508 -4.9614,0.4004 -8.2719,-1.6908 -9.9334,-6.2737 -3.3774,-12.622 -4.7711,-25.518 -4.1825,-38.688 -0.38379,-11.983 0.66187,-23.834 3.1368,-35.551 -0.138,-2.197 -1.1836,-3.7654 -3.1368,-4.7052 0.34821,-1.0457 0.69745,-2.0912 1.0456,-3.1369 -1.5518,-0.69223 -2.9455,-1.5643 -4.1825,-2.614 3.3032,-1.5727 6.7892,-2.9665 10.456,-4.1825 2.3526,-4.3581 4.9667,-8.5406 7.8421,-12.547 2.202,-2.7374 4.816,-4.8286 7.8421,-6.2738 z"
           id="path23" /></g><g
         fill="#158697"
         id="g24"
         transform="matrix(0.26458333,0,0,0.26458333,-35.934669,-125.60885)"><path
           d="m 456.72,908.44 c 1.237,1.0497 2.6308,1.9218 4.1825,2.614 -0.3482,1.0457 -0.69744,2.0912 -1.0456,3.1369 1.9532,0.93983 2.9988,2.5082 3.1368,4.7052 -2.475,11.717 -3.5206,23.568 -3.1368,35.551 -0.58862,13.17 0.80512,26.066 4.1825,38.688 -1.1722,1.6615 -0.99755,3.4046 0.52275,5.2282 2.5262,4.0986 6.1859,6.1899 10.979,6.2737 8.6378,-2.2398 17.351,-4.1563 26.14,-5.7509 9.2276,-2.1488 17.07,0.1171 23.526,6.7965 2.042,2.8806 3.2623,6.0175 3.6597,9.4106 v 23.004 c 0.7413,0.9452 1.787,1.2933 3.1368,1.0457 v 144.3 c -8.1464,0.967 -16.162,2.5354 -24.049,4.7052 -3.3198,0.5155 -6.1074,1.7357 -8.3649,3.6597 h -4.1825 v 4.1824 c 1.5256,0.07 2.9194,-0.278 4.1825,-1.0456 10.758,-1.7349 21.563,-3.1297 32.414,-4.1825 v -6.2737 h 1.0456 c 0.79993,2.7145 1.149,5.5032 1.0456,8.365 h 3.1369 v 3.1368 126.52 c -19.703,-0.2068 -39.396,0.1414 -59.077,1.0457 -3.9336,-0.089 -7.5933,-0.7864 -10.979,-2.0913 -20.348,-68.539 -40.388,-137.2 -60.123,-205.99 -0.20916,-1.9029 -1.0812,-3.2968 -2.6141,-4.1825 0.31787,-0.6797 0.66601,-1.3771 1.0456,-2.0912 -7.6393,-27.421 -14.784,-54.955 -21.435,-82.604 -0.21856,6.3584 -0.74138,12.632 -1.5684,18.821 -1.513,1.1731 -2.5587,2.7415 -3.1368,4.7052 -3.3951,1.5257 -6.8801,2.7459 -10.456,3.6597 -2.6266,-0.5165 -5.066,-1.5621 -7.3193,-3.1369 -0.92645,-0.8627 -1.2746,-1.9083 -1.0456,-3.1368 0.70684,-7.6593 -2.7782,-11.842 -10.456,-12.547 1.7232,-4.7284 2.246,-9.6073 1.5684,-14.639 -1.5779,-2.5294 -3.8426,-3.5751 -6.7965,-3.1369 -3.646,-0.9286 -5.0398,-3.3679 -4.1824,-7.3193 4.2828,-19.008 11.428,-36.784 21.435,-53.326 11.093,-11.418 24.163,-19.958 39.21,-25.618 18.269,-8.092 36.742,-15.586 55.418,-22.481 z"
           id="path24" /></g><g
         fill="#2f5661"
         id="g25"
         transform="matrix(0.26458333,0,0,0.26458333,-35.934669,-125.60885)"><path
           d="m 493.31,904.25 c 0.27503,4.287 -0.0732,8.4695 -1.0457,12.547 -1.6332,0.24363 -3.027,0.94114 -4.1824,2.0912 0.40149,-4.2725 1.2725,-8.4548 2.614,-12.547 0.43603,-1.3132 1.307,-2.0107 2.6141,-2.0912 z"
           id="path25" /></g><g
         fill="#fdbf77"
         id="g26"
         transform="matrix(0.26458333,0,0,0.26458333,-35.934669,-125.60885)"><path
           d="m 565.46,816.43 c -0.4039,6.4923 0.119,13.112 1.5688,19.86 3.2612,8.1484 7.4436,15.816 12.547,23.004 2.5952,5.1956 2.0724,9.9008 -1.5684,14.116 -1.2281,0.0445 -2.4566,0.0668 -3.6855,0.0668 -3.6458,0 -7.2951,-0.19606 -10.947,-0.589 h -0.006 c -4e-5,-2e-4 -4e-5,-4e-4 -1.4e-4,-6e-4 -2.7782,-0.7948 -3.8238,-2.3632 -3.1368,-4.7052 1.6051,-0.26814 3.2056,-0.4023 4.8013,-0.4023 2.4188,0 4.8267,0.30823 7.2233,0.925 3.0678,-1.1105 4.288,-3.3764 3.6596,-6.7965 -0.17464,-1.5684 -0.3482,-3.1369 -0.52284,-4.7052 -5.2751,-7.0653 -9.4576,-14.733 -12.547,-23.004 -0.69745,-4.5306 -0.69745,-9.0624 0,-13.593 0.63445,-1.6344 1.5046,-3.0273 2.608,-4.1762 z m 17.768,59.67 c 0.39447,0 0.74557,0.4975 1.053,1.4923 -2.2082,2.9202 -3.4285,6.2308 -3.6596,9.9334 -3.3627,3.0929 -5.9767,6.7525 -7.8421,10.979 -4.0642,1.6105 -8.1298,2.4156 -12.197,2.4156 -3.6008,0 -7.2029,-0.631 -10.806,-1.8929 -2.5535,-2.9152 -5.3421,-5.3546 -8.3649,-7.3192 -3.574,-1.1806 -6.5362,-3.272 -8.8877,-6.2738 -0.1716,-1.4242 0.4698,-2.1367 1.9248,-2.1367 0.21245,0 0.4422,0.0151 0.68925,0.0455 3.553,0.66594 7.0722,0.99891 10.558,0.99891 3.4854,0 6.937,-0.33297 10.355,-0.99891 5.2281,-0.69736 10.456,-1.3938 15.684,-2.0912 2.3484,-0.9987 4.7878,-1.6962 7.3194,-2.0913 0.8259,-0.94214 1.8716,-1.6395 3.1368,-2.0912 0.37423,-0.6464 0.7203,-0.9695 1.0382,-0.9695 z m -57.761,-83.79 c -2.3639,0 -4.7172,0.19586 -7.0598,0.58722 1.2066,0.95554 1.032,1.8265 -0.52283,2.614 -0.59477,-0.9387 -1.1924,-1.4079 -1.7925,-1.4079 -0.7923,0 -1.5891,0.818 -2.39,2.4535 -0.34823,-0.34813 -0.69743,-0.69739 -1.0456,-1.0456 -1.1157,0.7224 -2.336,1.2451 -3.6597,1.5685 1.4551,1.4237 2.8801,2.1357 4.2747,2.1357 1.212,0 2.4011,-0.5376 3.5674,-1.6129 1.1409,0.74034 2.3793,1.1111 3.7152,1.1111 0.32255,0 0.6508,-0.0216 0.9848,-0.0649 h 0.005 c -0.14614,1.6977 0.5513,2.9167 2.0913,3.659 -3.7092,1.636 -7.452,2.4539 -11.228,2.4539 -2.8607,0 -5.7404,-0.4695 -8.6389,-1.4083 1.3938,-0.34814 2.7887,-0.69739 4.1825,-1.0456 -1.8817,-0.91096 -3.6022,-1.3664 -5.1615,-1.3664 -2.2854,0 -4.2245,0.97826 -5.8175,2.9349 -0.94531,-0.50073 -1.7763,-0.7511 -2.493,-0.7511 -1.8366,0 -2.9225,1.6444 -3.2579,4.9336 -2.0912,-0.69751 -4.1825,-1.3938 -6.2737,-2.0913 -0.0585,2.6626 -0.30554,3.994 -0.74121,3.994 -0.43561,0 -1.0599,-1.3314 -1.8729,-3.994 -0.30328,2.5638 -0.99956,5.0033 -2.0912,7.3194 -0.45508,-0.60285 -0.95438,-0.90406 -1.4981,-0.90406 -0.35321,0 -0.72519,0.12716 -1.116,0.38122 -2.5983,1.5548 -4.8642,3.4725 -6.7965,5.7508 -0.5207,3.4684 -0.69538,6.9535 -0.52277,10.456 0.33771,3.896 -0.0115,7.7303 -1.0457,11.502 -2.5826,-5.6903 -6.0677,-10.745 -10.456,-15.162 -2.7148,-1.7937 -5.6567,-2.6912 -8.8264,-2.6912 -0.53674,0 -1.08,0.0258 -1.6298,0.0772 -9.489,4.6928 -13.149,12.36 -10.979,23.004 2.5607,10.578 8.6598,18.421 18.298,23.526 2.9769,0.20076 5.9464,0.30117 8.9089,0.30117 2.9625,0 5.9179,-0.10041 8.8666,-0.30117 3.2602,5.296 6.3971,10.698 9.4105,16.207 2.546,4.721 5.8575,8.9034 9.9333,12.547 0.51758,2.0629 0.6922,4.1541 0.52283,6.2737 0.27503,4.287 -0.0732,8.4695 -1.0457,12.547 1.1931,3.2832 1.3677,6.7682 0.52284,10.456 -1.3907,1.1313 -2.9591,1.8287 -4.7053,2.0912 0.22064,7.4667 1.4398,14.786 3.6597,21.958 0.40039,0.58115 0.92321,0.92945 1.5684,1.0456 11.446,13.542 24.857,20.312 40.233,20.312 6.4574,0 13.262,-1.1942 20.412,-3.5824 -5.9057,-5.382 -11.657,-10.958 -17.253,-16.73 -9.8099,-12.418 -19.395,-24.965 -28.754,-37.642 -2.4697,-2.815 -4.9103,-5.6035 -7.3193,-8.365 -0.47034,-0.9946 -1.1602,-1.8614 -2.0717,-2.5983 h 0.005 c 9.9198,6.366 20.368,12.285 31.344,17.76 9.2555,4.5152 18.689,6.7729 28.302,6.7729 6.5168,0 13.116,-1.0377 19.797,-3.1132 0,-0.69754 0.34821,-1.0457 1.0457,-1.0457 1.2651,-0.45177 2.3107,-1.149 3.1368,-2.0912 3.5426,-1.17 6.5048,-3.2613 8.8877,-6.2738 3.3606,-3.9796 5.6254,-8.5102 6.7965,-13.593 0.9421,-0.82616 1.6396,-1.8717 2.0913,-3.1368 4.8359,-7.1279 9.5412,-14.447 14.116,-21.958 1.2348,-4.5912 2.6287,-9.1218 4.1824,-13.593 0.85424,-5.7676 0.68066,-11.345 -0.52283,-16.73 0.0942,-2.7731 -0.60227,-5.2125 -2.0912,-7.3193 -1.878,-1.3521 -3.621,-2.9204 -5.2281,-4.7052 -2.3425,-0.3914 -4.6957,-0.5873 -7.0595,-0.5873 -0.78255,0 -1.5662,0.0215 -2.351,0.0644 0.116,-0.64524 0.46427,-1.1681 1.0456,-1.5685 -2.5602,-2.5772 -5.5707,-3.866 -9.0313,-3.866 -0.7995,0 -1.623,0.0688 -2.4704,0.20637 -3.7601,0.9275 -7.5933,1.9731 -11.502,3.1368 v -7.3192 c -0.0701,-1.5256 0.27806,-2.9194 1.0456,-4.1825 1.721,-3.461 4.1615,-6.2497 7.3193,-8.365 -1.5946,-1.9867 -2.6402,-3.9033 -3.1369,-5.7508 -2.6675,-0.002 -4.7586,-0.8743 -6.2737,-2.614 -1.2839,-0.84287 -2.3296,-1.8886 -3.1368,-3.1369 h -1.0456 c -1.2913,-0.23105 -2.337,-0.92856 -3.1368,-2.0913 -0.62286,0.541 -1.2658,0.8112 -1.9289,0.8112 -0.39551,0 -0.79816,-0.0961 -1.208,-0.28835 0.34816,-1.0456 0.69746,-2.0912 1.0456,-3.1368 -0.8715,-0.3487 -1.7427,-0.52307 -2.614,-0.52307 -0.8713,0 -1.7425,0.17437 -2.6141,0.52307 1.2181,1.9532 0.86995,3.8708 -1.0456,5.7509 -0.9687,0.65874 -1.9323,0.98814 -2.8907,0.98814 -0.95846,0 -1.9118,-0.3294 -2.8601,-0.98814 -0.9442,1.2557 -2.1635,2.1278 -3.6597,2.6141 -3.1861,5.7268 -6.8458,10.432 -10.979,14.116 -0.3482,-1.0455 -0.69746,-2.0912 -1.0457,-3.1368 -1.0456,0.34824 -2.0912,0.6975 -3.1368,1.0456 -0.67437,-1.1984 -1.5454,-2.244 -2.614,-3.1368 0.69745,-0.34815 1.3938,-0.6974 2.0912,-1.0457 -0.80414,-3.1474 -1.6761,-6.2843 -2.6141,-9.4105 -2.4864,-1.4753 -5.1005,-2.6946 -7.8421,-3.6596 0.9651,-2.134 1.3133,-4.3999 1.0456,-6.7965 -0.7847,-0.0429 -1.5683,-0.0644 -2.3507,-0.0644 z"
           id="path26" /></g><g
         fill="#f59458"
         id="g27"
         transform="matrix(0.26458333,0,0,0.26458333,-35.934669,-125.60885)"><path
           d="m 454.62,841.52 c 6.4034,-0.21755 6.9262,1.5255 1.5684,5.228 -0.69738,2.4395 -0.69738,4.8799 0,7.3193 0.52282,1.2202 1.3938,2.0912 2.6141,2.614 -2.841,1.0801 -4.7586,0.20898 -5.7509,-2.614 -1.0519,-4.4984 -0.52904,-8.6809 1.5684,-12.547 z"
           id="path27" /></g><g
         fill="#f7f4f4"
         id="g28"
         transform="matrix(0.26458333,0,0,0.26458333,-35.934669,-125.60885)"><path
           d="m 518.41,828.97 c -0.17994,4.0183 0.1693,8.2007 1.0456,12.548 -5.0242,1.032 -10.252,1.3812 -15.684,1.0455 v -3.1368 c 0.68586,-5.0054 3.4734,-8.3169 8.3649,-9.9334 2.063,-0.51756 4.1542,-0.69224 6.2737,-0.5228 z"
           id="path28" /></g><g
         fill="#f59458"
         id="g29"
         transform="matrix(0.26458333,0,0,0.26458333,-35.934669,-125.60885)"><path
           d="m 446.26,832.11 c 10.245,0.26661 10.593,1.487 1.0456,3.6597 -2.7625,2.6935 -4.331,6.005 -4.7053,9.9334 -1.2077,-5.2552 0.0125,-9.7859 3.6597,-13.593 z"
           id="path29" /></g><g
         fill="#2f1d2c"
         id="g30"
         transform="matrix(0.26458333,0,0,0.26458333,-35.934669,-125.60885)"><path
           d="m 522.59,826.88 h 2.0912 c 4.1835,4.057 5.2292,8.9369 3.1368,14.639 -2.8211,1.3843 -5.6088,1.3843 -8.3649,0 -0.8763,-4.3468 -1.2255,-8.5292 -1.0456,-12.548 -1.1597,-0.8262 -2.5535,-1.349 -4.1824,-1.5684 2.7666,-0.51977 5.5553,-0.69443 8.3649,-0.52283 z"
           id="path30" /></g><g
         fill="#6b423f"
         id="g31"
         transform="matrix(0.26458333,0,0,0.26458333,-35.934669,-125.60885)"><path
           d="m 522.59,826.88 c -2.8096,-0.1716 -5.5983,0.003 -8.3649,0.52283 1.6289,0.21937 3.0227,0.74217 4.1824,1.5684 -2.1194,-0.16944 -4.2107,0.005 -6.2737,0.5228 -4.8915,1.6165 -7.6791,4.928 -8.3649,9.9334 -0.75488,0.43686 -1.2777,1.1335 -1.5684,2.0913 -0.69746,-1.7432 -0.69746,-3.4851 0,-5.2282 1.5464,-3.4798 3.8112,-6.2674 6.7965,-8.3648 4.4878,-2.2283 9.0184,-2.5775 13.593,-1.0457 z"
           id="path31" /></g><g
         fill="#fdbf77"
         id="g32"
         transform="matrix(0.26458333,0,0,0.26458333,-35.934669,-125.60885)"><path
           d="m 530.95,814.33 c -0.3357,1.6186 -1.3814,2.3161 -3.1369,2.0912 v 3.1369 c -6.006,-0.43826 -11.583,0.7821 -16.73,3.6596 4.8192,0.80606 9.3498,2.0264 13.593,3.6597 h -2.0912 c -4.5746,-1.5318 -9.1052,-1.1826 -13.593,1.0457 0.21216,-1.9763 -0.48419,-3.5448 -2.0912,-4.7053 -2.4154,-0.51978 -4.8549,-0.69334 -7.3193,-0.52284 2.364,-1.8352 5.1528,-3.0553 8.3649,-3.6597 7.7867,-1.2339 15.455,-2.8022 23.003,-4.7052 z"
           id="path32" /></g><g
         fill="#371c37"
         id="g33"
         transform="matrix(0.26458333,0,0,0.26458333,-35.934669,-125.60885)"><path
           d="m 530.95,814.33 c -7.5484,1.903 -15.217,3.4713 -23.003,4.7052 -3.2122,0.60436 -6.001,1.8245 -8.3649,3.6597 -2.59,0.4694 -4.6812,-0.2269 -6.2737,-2.0912 4.0748,-5.296 8.9536,-9.6532 14.639,-13.07 8.4757,-1.0582 16.841,-2.6266 25.095,-4.7053 0.40455,4.1238 -0.2929,7.9581 -2.0912,11.502 z"
           id="path33" /></g><g
         fill="#f59458"
         id="g37"
         transform="matrix(0.26458333,0,0,0.26458333,-35.934669,-125.60885)"><path
           d="m 492.27,916.8 c 1.1931,3.2832 1.3677,6.7682 0.52284,10.456 -1.3907,1.1313 -2.9591,1.8287 -4.7053,2.0912 v -10.456 c 1.1554,-1.15 2.5492,-1.8475 4.1824,-2.0912 z"
           id="path34" /><path
           d="m 578.01,925.17 c 0.17357,4.1969 -10e-4,8.3794 -0.52277,12.547 -0.78426,-0.65463 -1.6563,-1.1774 -2.6141,-1.5685 -15.331,0.52915 -29.969,-2.2584 -43.916,-8.3648 -4.5598,-2.6266 -9.0906,-5.2406 -13.593,-7.8422 -2.2167,-0.9945 -3.9587,-2.563 -5.2281,-4.7052 -1.352,-0.5124 -2.7469,-0.6871 -4.1824,-0.5228 -2.4697,-2.815 -4.9103,-5.6035 -7.3193,-8.365 -0.47369,-1.0017 -1.17,-1.8738 -2.0912,-2.614 9.9271,6.3719 20.383,12.296 31.368,17.776 15.53,7.5763 31.563,8.7966 48.098,3.6597 z"
           id="path35" /><path
           d="m 507.95,914.71 c 1.4356,-0.1643 2.8304,0.0104 4.1824,0.5228 1.2694,2.1422 3.0114,3.7107 5.2281,4.7052 1.8486,1.4962 2.546,3.2382 2.0912,5.2282 0.916,0.78525 1.9616,1.3081 3.1369,1.5683 -1.0822,1.5756 -0.9077,3.1441 0.52276,4.7053 0.3482,-0.69751 0.69744,-1.3938 1.0456,-2.0913 1.5036,1.2736 3.2466,1.971 5.228,2.0913 1.9249,-0.65355 3.8416,-0.82815 5.7509,-0.52285 -1.1858,1.0623 -0.83765,1.7597 1.0456,2.0912 -0.47779,0.4329 -0.82705,0.9557 -1.0456,1.5685 1.3968,3.1074 2.9652,3.4558 4.7052,1.0455 1.2202,2.6142 3.1368,4.5308 5.7509,5.751 -0.99447,0.7506 -1.168,1.6216 -0.52277,2.614 1.7911,1.5434 3.7087,2.9382 5.7509,4.1825 -1.4168,1.2284 -1.2422,2.2741 0.52284,3.1368 0.9557,-1.2066 1.8266,-1.032 2.614,0.52285 -0.69745,0.3481 -1.3938,0.69737 -2.0912,1.0455 3.5373,1.443 5.4539,4.057 5.7509,7.8422 1.6593,-1.283 3.0542,-0.93484 4.1824,1.0456 0.3482,-1.0456 0.69745,-2.0913 1.0456,-3.1368 2.134,0.9651 4.3999,1.3132 6.7965,1.0455 -1.0457,1.3938 -2.0913,2.7887 -3.1369,4.1825 -3.9221,2.3076 -8.1046,4.0507 -12.547,5.2282 -5.9057,-5.382 -11.657,-10.958 -17.253,-16.73 -9.8099,-12.418 -19.395,-24.965 -28.754,-37.642 z"
           id="path36" /><path
           d="m 517.36,919.94 c 4.5024,2.6016 9.0331,5.2156 13.593,7.8422 13.946,6.1064 28.585,8.894 43.916,8.3648 0.95775,0.39112 1.8298,0.91385 2.6141,1.5685 0.52174,-4.168 0.69634,-8.3504 0.52277,-12.547 0,-0.69754 0.34821,-1.0457 1.0457,-1.0457 1.9207,13.374 -1.2161,25.224 -9.4105,35.551 -2.3966,0.2677 -4.6625,-0.0804 -6.7965,-1.0455 -0.3482,1.0455 -0.69745,2.0912 -1.0456,3.1368 -1.1282,-1.9804 -2.5231,-2.3286 -4.1824,-1.0456 -0.297,-3.7852 -2.2136,-6.3992 -5.7509,-7.8422 0.69745,-0.34813 1.3938,-0.6974 2.0912,-1.0455 -0.78736,-1.5548 -1.6583,-1.7295 -2.614,-0.52285 -1.765,-0.86279 -1.9396,-1.9084 -0.52284,-3.1368 -2.0421,-1.2442 -3.9598,-2.6392 -5.7509,-4.1825 -0.6452,-0.9924 -0.4717,-1.8634 0.52277,-2.614 -2.614,-1.2202 -4.5307,-3.1368 -5.7509,-5.751 -1.74,2.4103 -3.3085,2.0619 -4.7052,-1.0455 0.21855,-0.6128 0.56781,-1.1356 1.0456,-1.5685 -1.8832,-0.3315 -2.2314,-1.0289 -1.0456,-2.0912 -1.9094,-0.3053 -3.826,-0.1307 -5.7509,0.52285 -1.9814,-0.12035 -3.7244,-0.81775 -5.228,-2.0913 -0.3482,0.69751 -0.69744,1.3938 -1.0456,2.0913 -1.4305,-1.5612 -1.605,-3.1298 -0.52276,-4.7053 -1.1753,-0.26023 -2.2209,-0.78308 -3.1369,-1.5683 0.45476,-1.99 -0.24257,-3.732 -2.0912,-5.2282 z"
           id="path37" /></g><g
         fill="#166277"
         id="g38"
         transform="matrix(0.26458333,0,0,0.26458333,-35.934669,-125.60885)"><path
           d="m 628.2,1012.9 c 3.4108,0 6.8215,0.01 10.232,0.024 h -0.003 c -3.4096,-0.016 -6.8192,-0.024 -10.229,-0.024 -3.4092,0 -6.8185,0.01 -10.228,0.024 3.4094,-0.016 6.8187,-0.024 10.228,-0.024 z m 26.125,3.1368 c 5.5306,0 11.061,0.01 16.592,0.024 -5.5307,-0.016 -11.061,-0.024 -16.592,-0.024 -5.5313,0 -11.063,0.01 -16.594,0.024 h -0.006 c 5.5331,-0.016 11.066,-0.024 16.599,-0.024 z m -82.827,2.1511 c 0.0762,0 0.15363,0 0.23248,0.01 -0.0788,0 -0.15631,-0.01 -0.23248,-0.01 -0.0762,0 -0.15097,0 -0.22443,0.01 h -3.1e-4 c 0.0736,0 0.14847,-0.01 0.22474,-0.01 z m 28.464,-119.19 c -0.45174,1.2651 -1.1492,2.3107 -2.0913,3.1368 -1.1711,5.0828 -3.4359,9.6134 -6.7965,13.593 -2.3829,3.0125 -5.3451,5.1038 -8.8877,6.2738 -0.8261,0.94214 -1.8717,1.6394 -3.1368,2.0912 1.9207,13.374 -1.2161,25.224 -9.4105,35.551 -1.0457,1.3938 -2.0913,2.7887 -3.1369,4.1825 -1.3938,2.0912 -2.7887,4.1825 -4.1825,6.2737 0.45694,1.6458 1.5025,2.866 3.1369,3.6597 13.405,6.1744 27.347,10.88 41.825,14.116 0.43811,2.9538 -0.60745,5.2185 -3.1368,6.7965 -2.4399,0.3487 -4.8796,0.5231 -7.3193,0.5231 -2.4397,0 -4.8794,-0.1744 -7.3193,-0.5231 -8.2844,-1.832 -16.649,-3.0511 -25.095,-3.6596 -15.549,0.20605 -25.308,7.8736 -29.277,23.004 v 1.0456 h 2.0912 c -0.3587,-2.0735 0.3386,-3.4684 2.0912,-4.1825 -0.1558,-1.1001 0.0177,-2.1458 0.5228,-3.1368 6.3583,-7.6529 14.55,-11.487 24.572,-11.502 10.653,0.91795 21.284,1.9636 31.891,3.1368 3.715,-0.0387 7.3746,-0.3868 10.979,-1.0455 2.9966,4.3025 4.3904,9.1815 4.1825,14.639 -3.2262,-0.044 -6.4521,-0.065 -9.6776,-0.065 -9.6727,0 -19.343,0.1963 -29.01,0.5883 -3.0417,1.4702 -5.133,3.735 -6.2737,6.7965 -0.34509,18.306 0.003,36.43 1.0456,54.372 1.6322,2.5857 3.7234,4.6769 6.2737,6.2737 -0.1371,0.7727 0.0377,1.47 0.5228,2.0912 16.188,14.136 31.001,29.82 44.439,47.053 -3.7873,0.8626 -7.6216,1.3854 -11.502,1.5685 3.9441,0.4243 7.7782,1.2956 11.502,2.6141 1.1261,2.3305 1.8235,4.771 2.0912,7.3193 0.2806,-0.052 0.548,-0.077 0.80226,-0.077 0.96917,0 1.7473,0.3742 2.3346,1.1229 2.9842,0.7371 5.773,1.7826 8.365,3.1369 3.0614,0.068 5.8502,0.7651 8.3649,2.0912 11.104,2.9393 20.864,8.3418 29.277,16.207 0.7571,0.3856 1.546,0.578 2.3666,0.578 0.25372,0 0.51049,-0.018 0.77035,-0.055 1.8675,-10.105 3.7842,-20.213 5.751,-30.323 3.5654,10.177 7.2251,20.285 10.979,30.323 11.71,0.7349 23.386,1.7805 35.028,3.1369 4.7326,-0.1474 9.4379,-0.4966 14.116,-1.0456 2.2554,-0.9485 4.6948,-1.6449 7.3194,-2.0913 1.9815,-1.4004 4.257,-2.0996 6.8276,-2.0996 0.16274,0 0.3266,0 0.4917,0.01 5.4174,-2.2743 10.994,-4.3656 16.73,-6.2736 1.0603,-1.2277 2.4542,-1.924 4.1825,-2.0914 4.6958,-2.4205 6.6124,-6.2548 5.7508,-11.502 -15.539,-44.872 -30.874,-89.834 -46.007,-134.88 -5.3661,-16.11198 -12.337,-31.44798 -20.912,-46.00698 -5.8502,-6.898 -12.647,-12.649 -20.39,-17.253 -28.084,-14.043 -56.664,-26.939 -85.74,-38.688 -2.8033,-2.0285 -5.2428,-4.2943 -7.3192,-6.7965 z"
           id="path38" /></g><g
         fill="#f7faf7"
         id="g39"
         transform="matrix(0.26458333,0,0,0.26458333,-35.934669,-125.60885)"><path
           d="m 493.31,952.35 c 16.253,19.229 36.468,24.805 60.646,16.73 4.4428,-1.1775 8.6252,-2.9205 12.547,-5.2282 -1.3938,2.0912 -2.7887,4.1825 -4.1825,6.2737 -7.6737,7.5022 -14.818,15.518 -21.435,24.049 -2.8995,5.4508 -5.5136,11.027 -7.8421,16.73 0.4621,1.2956 1.1596,2.3412 2.0912,3.1368 v 1.0456 h -5.2281 c 0.83754,-1.6124 1.1857,-3.3544 1.0456,-5.2282 -2.4834,-6.7086 -5.7937,-12.982 -9.9333,-18.821 -8.412,-9.4544 -16.428,-19.214 -24.049,-29.277 -1.8204,-2.9374 -3.0406,-6.0742 -3.6596,-9.4106 z"
           id="path39" /></g><g
         fill="#148694"
         id="g40"
         transform="matrix(0.26458333,0,0,0.26458333,-35.934669,-125.60885)"><path
           d="m 562.32,970.13 c 0.45694,1.6458 1.5025,2.866 3.1369,3.6597 13.405,6.1744 27.347,10.88 41.825,14.116 0.43811,2.9538 -0.60745,5.2185 -3.1368,6.7965 -4.8799,0.6974 -9.7587,0.6974 -14.639,0 -8.2844,-1.832 -16.649,-3.0511 -25.095,-3.6596 -15.549,0.20605 -25.308,7.8736 -29.277,23.004 -0.9317,-0.7957 -1.6292,-1.8413 -2.0912,-3.1368 2.3285,-5.7029 4.9426,-11.279 7.8421,-16.73 6.6166,-8.5314 13.761,-16.547 21.435,-24.049 z"
           id="path40" /></g><g
         fill="#f3f0f4"
         id="g41"
         transform="matrix(0.26458333,0,0,0.26458333,-35.934669,-125.60885)"><path
           d="m 330.2,980.58 c 2.0703,1.4094 3.2905,3.5006 3.6597,6.2737 2.5721,7.5011 4.4888,15.169 5.7508,23.004 0.44233,2.3851 -0.25512,4.1279 -2.0912,5.2282 -2.4196,-9.4973 -5.0336,-18.908 -7.8421,-28.232 -0.70893,-2.1936 -0.53436,-4.2848 0.52277,-6.2737 z"
           id="path41" /></g><g
         fill="#165b74"
         id="g42"
         transform="matrix(0.26458333,0,0,0.26458333,-35.934669,-125.60885)"><path
           d="m 464.03,993.13 c 1.6614,4.5829 4.9719,6.6741 9.9334,6.2737 7.9404,-1.4848 15.782,-3.4015 23.526,-5.7508 14.992,-4.0853 25.274,0.96924 30.846,15.162 0.70156,0.7864 1.5725,1.1354 2.614,1.0455 0.14014,1.8738 -0.20806,3.6157 -1.0456,5.2282 h -1.0456 c -0.3974,-3.393 -1.6177,-6.5299 -3.6597,-9.4106 -6.4567,-6.6794 -14.299,-8.9453 -23.526,-6.7965 -8.7894,1.5946 -17.503,3.5111 -26.14,5.7509 -4.7932,-0.084 -8.4528,-2.1751 -10.979,-6.2737 -1.5203,-1.8236 -1.6949,-3.5667 -0.52275,-5.2282 z"
           id="path42" /></g><g
         fill="#f3f0f4"
         id="g43"
         transform="matrix(0.26458333,0,0,0.26458333,-35.934669,-125.60885)"><path
           d="m 330.2,980.58 c -1.0571,1.9889 -1.2317,4.08 -0.52277,6.2737 2.8085,9.3238 5.4226,18.734 7.8421,28.232 -1.4952,0.082 -2.8901,-0.2658 -4.1825,-1.0456 -0.67964,-1.761 -1.7252,-3.1546 -3.1368,-4.1825 -1.6625,-9.515 -3.7538,-18.926 -6.2737,-28.232 2.1592,-0.0178 4.2505,-0.36594 6.2737,-1.0456 z"
           id="path43" /></g><g
         fill="#168795"
         id="g44"
         transform="matrix(0.26458333,0,0,0.26458333,-35.934669,-125.60885)"><path
           d="m 611.47,1013 c -12.901,-0.1745 -25.796,0 -38.688,0.5228 -3.0417,1.4702 -5.133,3.735 -6.2737,6.7965 -0.34509,18.306 0.003,36.43 1.0456,54.372 1.6322,2.5857 3.7234,4.6769 6.2737,6.2737 -0.1371,0.7727 0.0377,1.47 0.5228,2.0912 16.188,14.136 31.001,29.82 44.439,47.053 -3.7873,0.8626 -7.6216,1.3854 -11.502,1.5685 3.9441,0.4243 7.7782,1.2956 11.502,2.6141 1.1261,2.3305 1.8235,4.771 2.0912,7.3193 1.35,-0.2478 2.3955,0.1004 3.1368,1.0456 -3.671,-0.5835 -7.3307,-1.2798 -10.979,-2.0913 -4.2692,0.825 -8.2771,2.3933 -12.025,4.7054 -9.8299,6.6876 -19.938,12.961 -30.323,18.821 -1.5256,3.211 -1.1775,6.1733 1.0456,8.8878 -3.9638,1.519 -8.1464,2.7384 -12.547,3.6597 -0.5814,0.4002 -0.92964,0.9231 -1.0456,1.5683 -1.3802,1.5078 -3.1221,2.204 -5.2281,2.0912 -2.6758,-0.3159 -5.1163,0.033 -7.3193,1.0457 h -9.4105 v -9.4105 -8.365 c 0.755,0.4371 1.2778,1.1335 1.5684,2.0913 0.69743,-40.082 0.69743,-80.164 0,-120.25 -0.40047,-0.5813 -0.92322,-0.9297 -1.5684,-1.0456 -0.0409,-1.9439 0.8302,-3.3377 2.614,-4.1825 0.5228,-9.7527 0.6964,-19.512 0.5228,-29.277 -0.1558,-1.1001 0.0177,-2.1458 0.5228,-3.1368 6.3583,-7.6529 14.55,-11.48698 24.572,-11.50198 10.653,0.91795 21.284,1.9636 31.891,3.1368 3.715,-0.0387 7.3746,-0.3868 10.979,-1.0455 2.9966,4.30248 4.3904,9.18148 4.1825,14.63898 z"
           id="path44" /></g><g
         fill="#f6b92d"
         id="g45"
         transform="matrix(0.26458333,0,0,0.26458333,-35.934669,-125.60885)"><path
           d="m 528.86,1015.1 h 1.0456 5.2281 1.0456 v 23.004 h -7.3192 V 1015.1 Z"
           id="path45" /></g><g
         fill="#eb773c"
         id="g46"
         transform="matrix(0.26458333,0,0,0.26458333,-35.934669,-125.60885)"><path
           d="m 319.74,1028.7 c 3.7035,-0.3274 7.1886,0.022 10.456,1.0455 -6.8906,4.0957 -13.512,8.6263 -19.867,13.593 -0.34814,-0.1745 -0.6974,-0.3481 -1.0456,-0.5227 3.4338,-3.5604 6.7443,-7.2201 9.9334,-10.979 0.505,-0.9913 0.67859,-2.037 0.52284,-3.1368 z"
           id="path46" /></g><g
         fill="#978430"
         id="g47"
         transform="matrix(0.26458333,0,0,0.26458333,-35.934669,-125.60885)"><path
           d="m 536.18,1015.1 h 1.0456 c 0.6607,8.441 -0.0366,16.458 -2.0912,24.049 h -3.1368 c -1.3498,0.2476 -2.3955,-0.1005 -3.1368,-1.0457 h 7.3192 v -23.004 z"
           id="path47" /></g><g
         fill="#fcc37b"
         id="g48"
         transform="matrix(0.26458333,0,0,0.26458333,-35.934669,-125.60885)"><path
           d="m 330.2,1009.9 c 1.4116,1.028 2.4572,2.4215 3.1368,4.1825 1.2924,0.7799 2.6873,1.128 4.1825,1.0456 1.8361,-1.1002 2.5335,-2.843 2.0912,-5.2282 h 1.0457 c -0.85742,3.9514 0.53644,6.3907 4.1824,7.3193 h -4.1824 v 10.456 c -7.1666,-0.3389 -14.138,0.01 -20.912,1.0457 0.15575,1.0998 -0.0178,2.1455 -0.52284,3.1368 -3.1891,3.7589 -6.4996,7.4186 -9.9334,10.979 0.3482,0.1746 0.69746,0.3482 1.0456,0.5227 6.3542,-4.9667 12.976,-9.4973 19.867,-13.593 5.1047,-0.3209 9.9846,0.5502 14.639,2.6141 1.01,3.5917 1.01,7.2514 0,10.979 -3.1556,-0.1723 -6.2925,0 -9.4105,0.5228 -5.5125,3.075 -10.741,6.5601 -15.684,10.456 6.0457,-3.3575 12.319,-6.668 18.821,-9.9333 4.2682,0.6085 6.5341,3.048 6.7965,7.3193 0.69746,2.4395 0.69746,4.8799 0,7.3193 -8.0679,1.7796 -15.213,5.4392 -21.435,10.979 4.5098,-2.087 9.0404,-4.5265 13.593,-7.3192 3.8343,-0.6975 7.6675,-0.6975 11.502,0 5.6223,1.0435 6.8425,4.0056 3.6596,8.8877 -1.8873,2.432 -4.1532,4.1741 -6.7964,5.228 -2.2178,-0.183 -4.309,0.1663 -6.2738,1.0457 -1.9156,0.7821 -3.6586,1.8276 -5.228,3.1368 -1.3238,0.6167 -2.7176,1.1395 -4.1825,1.5685 -0.2489,3.5153 -1.6426,3.5153 -4.1824,0 0.87413,-1.2999 0.526,-2.5201 -1.0457,-3.6597 -1.7974,2.664 -3.1912,2.3158 -4.1824,-1.0456 -0.83441,1.6498 -1.3572,3.3917 -1.5684,5.228 -1.1052,-1.7975 -1.9762,-3.715 -2.614,-5.7508 0.34816,-0.3482 0.69739,-0.6974 1.0456,-1.0456 -1.3238,-0.3233 -2.544,-0.8462 -3.6597,-1.5685 -0.30005,2.5 -0.82287,4.9395 -1.5684,7.3194 1.0456,0.6974 2.0912,1.3938 3.1368,2.0912 -0.78004,1.2923 -1.1282,2.6872 -1.0456,4.1825 h -3.1368 c 0.229,-1.2287 -0.11921,-2.2743 -1.0457,-3.1369 -1.193,2.0086 -1.3676,4.0998 -0.52276,6.2737 0.34814,-0.3481 0.69744,-0.6974 1.0456,-1.0457 -0.11188,4.1711 1.1074,7.8307 3.6597,10.979 -2.2167,1.5923 -2.5649,3.5088 -1.0456,5.7509 -1.2338,5.3826 -2.8022,10.611 -4.7053,15.684 -0.30322,-1.6145 -0.99958,-3.0083 -2.0912,-4.1825 -0.71528,1.3426 -0.54065,2.5628 0.52276,3.6597 -1.1125,1.5798 -2.5063,1.7534 -4.1824,0.5228 3.2226,-5.3077 5.3138,-11.059 6.2737,-17.253 -3.7663,-13.847 -7.7741,-27.614 -12.025,-41.302 -0.3482,-5.2281 -0.69745,-10.456 -1.0456,-15.684 -0.29065,-0.9578 -0.81348,-1.6542 -1.5684,-2.0913 -0.25196,-3.4444 0.61902,-6.5812 2.6141,-9.4106 4.8621,-7.9635 9.9166,-15.806 15.161,-23.526 5.915,-0.5217 11.841,-0.6963 17.775,-0.5228 v -3.1368 z"
           id="path48" /></g><g
         fill="#176278"
         id="g49"
         transform="matrix(0.26458333,0,0,0.26458333,-35.934669,-125.60885)"><path
           d="m 404.43,1111.3 c -1.7681,8.8165 -4.034,17.53 -6.7964,26.14 -0.75287,1.6268 -1.9731,2.6725 -3.6597,3.1368 -3.5028,0.1725 -6.9878,0 -10.456,-0.5228 -7.7919,-1.9594 -15.459,-4.2252 -23.003,-6.7964 -0.71735,-4.9001 0.50182,-9.4308 3.6596,-13.593 0.91596,-4.3917 1.787,-8.7489 2.6141,-13.07 -2.0913,-1.3937 -4.1825,-2.7886 -6.2737,-4.1824 1.7388,-0.277 3.3072,0.2459 4.7053,1.5684 1.2161,-1.8666 1.9135,-3.9578 2.0912,-6.2737 1.032,-12.215 1.903,-24.413 2.6141,-36.597 -1.0812,-2.0265 -0.38477,-3.4214 2.0912,-4.1825 2.75,-0.9181 5.5386,-1.6156 8.3649,-2.0912 0.53328,-3.1777 1.2307,-6.3145 2.0913,-9.4105 0.82704,-6.1891 1.3499,-12.463 1.5684,-18.821 6.6512,27.648 13.796,55.182 21.435,82.604 -0.37964,0.7141 -0.72778,1.4115 -1.0456,2.0912 z"
           id="path49" /></g><g
         fill="#f5a167"
         id="g50"
         transform="matrix(0.26458333,0,0,0.26458333,-35.934669,-125.60885)"><path
           d="m 344.83,1017.2 c 2.9539,-0.4382 5.2186,0.6074 6.7965,3.1369 0.67761,5.0313 0.15478,9.9102 -1.5684,14.639 7.678,0.7057 11.163,4.8881 10.456,12.547 -1.1639,1.512 -1.3384,3.255 -0.52283,5.2282 4.219,4.2388 4.7418,8.9442 1.5684,14.116 2.317,8.3148 -0.81982,11.974 -9.4105,10.979 v 4.1825 c -1.4963,-1.3384 -2.1937,-3.0814 -2.0912,-5.2282 h -4.1824 c 2.6432,-1.0539 4.9091,-2.796 6.7964,-5.228 3.1829,-4.8821 1.9627,-7.8442 -3.6596,-8.8877 -3.8343,-0.6975 -7.6675,-0.6975 -11.502,0 -4.5526,2.7927 -9.0832,5.2322 -13.593,7.3192 6.2225,-5.5397 13.367,-9.1993 21.435,-10.979 0.69746,-2.4394 0.69746,-4.8798 0,-7.3193 -0.26244,-4.2713 -2.5283,-6.7108 -6.7965,-7.3193 -6.5016,3.2653 -12.775,6.5758 -18.821,9.9333 4.9436,-3.8961 10.172,-7.3812 15.684,-10.456 3.118,-0.5206 6.2549,-0.6951 9.4105,-0.5228 1.01,-3.7275 1.01,-7.3872 0,-10.979 -4.654,-2.0639 -9.5339,-2.935 -14.639,-2.6141 -3.2675,-1.0237 -6.7526,-1.3729 -10.456,-1.0455 6.7745,-1.0364 13.746,-1.3846 20.912,-1.0457 v -10.456 h 4.1824 z"
           id="path50" /></g><g
         fill="#f59458"
         id="g51"
         transform="matrix(0.26458333,0,0,0.26458333,-35.934669,-125.60885)"><path
           d="m 345.88,1076.8 h 4.1824 c -0.10248,2.1468 0.59497,3.8898 2.0912,5.2282 v 4.1825 c 0.24988,2.0565 -0.0983,3.9742 -1.0456,5.7508 -2.4185,0.692 -4.8579,1.2149 -7.3193,1.5684 -1.3938,-5.228 -2.7887,-10.456 -4.1825,-15.684 1.9647,-0.8794 4.056,-1.2287 6.2738,-1.0457 z"
           id="path51" /></g><g
         fill="#1a7a89"
         id="g52"
         transform="matrix(0.26458333,0,0,0.26458333,-35.934669,-125.60885)"><path
           d="m 382.48,1045.4 c -0.86053,3.096 -1.558,6.2328 -2.0913,9.4105 -2.8263,0.4756 -5.6149,1.1731 -8.3649,2.0912 -2.476,0.7611 -3.1724,2.156 -2.0912,4.1825 -0.71106,12.184 -1.5821,24.382 -2.6141,36.597 -0.17772,2.3159 -0.87512,4.4071 -2.0912,6.2737 -1.398,-1.3225 -2.9664,-1.8454 -4.7053,-1.5684 2.0912,1.3938 4.1824,2.7887 6.2737,4.1824 -0.82709,4.3214 -1.6981,8.6786 -2.6141,13.07 -3.1578,4.1622 -4.377,8.6929 -3.6596,13.593 -4.7199,-2.4145 -9.5998,-4.6804 -14.639,-6.7965 -0.54584,-0.5869 -0.89399,-1.2842 -1.0457,-2.0913 3.2937,-6.0886 6.6052,-12.189 9.9334,-18.298 0.85108,-4.7264 0.67651,-9.2581 -0.52283,-13.593 -0.39209,-2.2984 -1.0895,-4.3897 -2.0912,-6.2737 v -4.1825 -4.1825 c 8.5907,0.9953 11.728,-2.6642 9.4105,-10.979 3.1734,-5.1715 2.6506,-9.8769 -1.5684,-14.116 -0.81561,-1.9732 -0.64105,-3.7162 0.52283,-5.2282 -0.22901,1.2285 0.11914,2.2741 1.0456,3.1368 2.2533,1.5748 4.6927,2.6204 7.3193,3.1369 3.5761,-0.9138 7.0611,-2.134 10.456,-3.6597 0.57818,-1.9637 1.6238,-3.5321 3.1368,-4.7052 z"
           id="path52" /></g><g
         fill="#158b8e"
         id="g53"
         transform="matrix(0.26458333,0,0,0.26458333,-35.934669,-125.60885)"><path
           d="m 536.18,1044.4 c 0.6452,0.1159 1.168,0.4643 1.5684,1.0456 0.69743,40.082 0.69743,80.164 0,120.25 -0.29057,-0.9578 -0.81342,-1.6542 -1.5684,-2.0913 v -119.2 z"
           id="path53" /></g><g
         fill="#1f788e"
         id="g54"
         transform="matrix(0.26458333,0,0,0.26458333,-35.934669,-125.60885)"><path
           d="m 539.32,1010.9 c 0.1736,9.7648 0,19.525 -0.5228,29.277 -1.7838,0.8448 -2.655,2.2386 -2.614,4.1825 v 119.2 8.365 h -1.0456 v -132.79 c 2.0546,-7.5915 2.752,-15.608 2.0912,-24.049 -0.3587,-2.0735 0.3386,-3.4684 2.0912,-4.1825 z"
           id="path54" /></g><g
         fill="#fec076"
         id="g55"
         transform="matrix(0.26458333,0,0,0.26458333,-35.934669,-125.60885)"><path
           d="m 334.38,1081 c 1.743,4.1825 3.485,8.365 5.228,12.547 2.9152,6.9742 4.1344,14.294 3.6597,21.958 -1.422,1.6781 -2.9904,3.2466 -4.7053,4.7052 -3.9033,1.1512 -7.7376,1.8488 -11.502,2.0913 4.5683,3.6679 9.7964,5.5845 15.684,5.7509 -2.4562,4.9121 -4.8956,9.7911 -7.3193,14.639 2.2282,0.6996 4.3194,1.3959 6.2737,2.0912 -15.68,-1.8006 -31.364,-3.5437 -47.053,-5.228 1.3886,-6.2708 4.1772,-11.847 8.3649,-16.73 1.6761,1.2306 3.0699,1.057 4.1824,-0.5228 -1.0634,-1.0969 -1.238,-2.3171 -0.52276,-3.6597 1.0916,1.1742 1.788,2.568 2.0912,4.1825 1.9031,-5.0736 3.4715,-10.302 4.7053,-15.684 -1.5193,-2.2421 -1.1711,-4.1586 1.0456,-5.7509 -2.5523,-3.1483 -3.7716,-6.8079 -3.6597,-10.979 -0.34815,0.3483 -0.69745,0.6976 -1.0456,1.0457 -0.84484,-2.1739 -0.67029,-4.2651 0.52276,-6.2737 0.92645,0.8626 1.2747,1.9082 1.0457,3.1369 h 3.1368 c -0.0826,-1.4953 0.26556,-2.8902 1.0456,-4.1825 -1.0456,-0.6974 -2.0912,-1.3938 -3.1368,-2.0912 0.74555,-2.3799 1.2684,-4.8194 1.5684,-7.3194 1.1157,0.7223 2.3359,1.2452 3.6597,1.5685 -0.34821,0.3482 -0.69744,0.6974 -1.0456,1.0456 0.63782,2.0358 1.5088,3.9533 2.614,5.7508 0.21118,-1.8363 0.73401,-3.5782 1.5684,-5.228 0.99127,3.3614 2.385,3.7096 4.1824,1.0456 1.5717,1.1396 1.9198,2.3598 1.0457,3.6597 2.5398,3.5153 3.9335,3.5153 4.1824,0 1.4649,-0.429 2.8587,-0.9518 4.1825,-1.5685 z"
           id="path55" /></g><g
         fill="#f59458"
         id="g56"
         transform="matrix(0.26458333,0,0,0.26458333,-35.934669,-125.60885)"><path
           d="m 339.61,1077.8 c 1.3938,5.228 2.7887,10.456 4.1825,15.684 2.4614,-0.3535 4.9008,-0.8764 7.3193,-1.5684 0.94732,-1.7766 1.2955,-3.6943 1.0456,-5.7508 1.0016,1.884 1.6991,3.9753 2.0912,6.2737 0.17359,4.1971 -9.7e-4,8.3796 -0.52276,12.547 -0.51654,-1.7086 -0.69013,-3.4517 -0.52283,-5.2281 -2.8398,-0.1861 -5.6285,-0.7089 -8.3649,-1.5684 1.2663,-0.934 1.2663,-1.8049 0,-2.614 -1.0456,-1.3938 -2.0912,-1.3938 -3.1368,0 -0.71313,-0.7771 -1.4106,-1.4735 -2.0912,-2.0913 -1.743,-4.1824 -3.485,-8.3649 -5.228,-12.547 1.5694,-1.3092 3.3124,-2.3547 5.228,-3.1368 z"
           id="path56" /></g><g
         fill="#f5f1ef"
         id="g57"
         transform="matrix(0.26458333,0,0,0.26458333,-35.934669,-125.60885)"><path
           d="m 294.64,1046.5 c 0.75494,0.4371 1.2778,1.1335 1.5684,2.0913 0.3482,5.228 0.69745,10.456 1.0456,15.684 4.2504,13.688 8.2582,27.455 12.025,41.302 -0.95983,6.1941 -3.0511,11.945 -6.2737,17.253 -4.1877,4.883 -6.9764,10.459 -8.3649,16.73 15.688,1.6843 31.373,3.4274 47.053,5.228 16.473,2.7969 33.202,4.5399 50.19,5.2282 -10.633,1.0278 -21.438,1.0278 -32.414,0 -28.134,-2.6277 -56.017,-6.1128 -83.649,-10.456 -5.318,-1.5862 -10.894,-2.4572 -16.73,-2.6141 2.0107,-0.8448 4.102,-1.3676 6.2737,-1.5684 4.5275,0.9891 9.0592,1.512 13.593,1.5684 -1.2506,-0.6838 -1.2506,-1.2066 0,-1.5684 2.0201,1.0664 4.1114,1.241 6.2737,0.5228 2.6172,-1.6197 2.6172,-3.3628 0,-5.2281 0.99224,-0.6453 1.8633,-0.4717 2.614,0.5228 0.7183,-2.5305 0.19555,-4.7964 -1.5684,-6.7965 1.3008,-0.4767 2.1718,0.046 2.6141,1.5685 0.74231,-1.5402 1.9616,-2.2376 3.6596,-2.0913 -0.15575,1.0999 0.0178,2.1456 0.52283,3.1368 1.4796,-2.842 3.5708,-3.5396 6.2737,-2.0912 0.14434,-2.02 -0.37848,-3.9377 -1.5684,-5.7508 1.0457,-2.4395 2.7887,-4.1825 5.2281,-5.2282 -1.8361,-0.2114 -3.5781,-0.7341 -5.2281,-1.5684 1.6866,0.4893 3.255,-0.2082 4.7053,-2.0913 0.84174,2.5107 1.7128,2.3361 2.6141,-0.5227 -2.2356,-3.4779 -1.8873,-6.2666 1.0456,-8.365 -2.5273,-1.1964 -3.2247,-2.9383 -2.0912,-5.228 -1.2704,-2.1916 -2.1425,-2.0171 -2.614,0.5227 -1.0937,-1.6624 -2.314,-3.2309 -3.6597,-4.7052 0.3482,-0.3481 0.69746,-0.6975 1.0457,-1.0456 -1.3175,-1.1637 -2.5377,-1.3384 -3.6597,-0.5229 -0.69744,-1.743 -0.69744,-3.4849 0,-5.228 1.0916,-1.1742 1.788,-2.568 2.0912,-4.1825 0.26038,1.1753 0.78313,2.2208 1.5684,3.1369 0.34814,-0.1746 0.69738,-0.3482 1.0456,-0.5229 -0.8752,-1.057 -1.2234,-2.2773 -1.0456,-3.6596 -3.1274,0.1777 -5.2187,-1.2161 -6.2738,-4.1824 2.2784,-1.8645 2.2784,-3.9557 0,-6.2737 1.0759,0.2132 2.1215,-0.3097 3.1368,-1.5685 -0.22895,-3.8498 -0.22895,-7.8587 0,-12.024 -1.7786,0.4871 -3.347,0.4871 -4.7053,0 -0.5813,2.1905 -1.1041,2.3651 -1.5684,0.5227 2.7918,-3.166 4.5349,-6.4775 5.2281,-9.9333 z"
           id="path57" /></g><g
         fill="#204175"
         id="g58"
         transform="matrix(0.26458333,0,0,0.26458333,-35.934669,-125.60885)"><path
           d="m 532,1039.1 h 3.1368 v 132.79 c 0.18825,4.3726 -0.50921,8.5551 -2.0912,12.547 H 532 v -1.0455 -144.3 z"
           id="path58" /></g><g
         fill="#c6d1de"
         id="g59"
         transform="matrix(0.26458333,0,0,0.26458333,-35.934669,-125.60885)"><path
           d="m 183.81,1128 v 9e-4 c 5.1083,2.086 10.712,2.9881 16.73,3.6587 25.086,2.7958 50.242,4.7772 75.284,7.8422 27.765,3.3979 55.579,7.2161 83.649,10.456 14.178,1.6364 28.502,3.3103 42.87,5.7508 5.4647,0.9282 10.267,4.6306 12.025,9.9334 21.246,64.108 40.939,128.71 60.123,193.44 2.5137,8.4808 4.7319,16.856 7.3193,25.095 0.76776,2.4446 0.9651,4.9888 2.0912,7.3194 1.2432,0.9714 2.637,1.3196 4.1825,1.0456 -3.3115,9.9407 -10.21,13.402 -20.912,11.502 -4.5248,-0.8033 -9.0511,-1.4369 -13.593,-2.0913 -51.049,-7.3556 -102.24,-14.665 -153.71,-20.912 -8.401,-1.0199 -16.806,-1.4762 -25.095,-3.1367 -0.34137,-0.068 -0.69843,0.027 -1.0456,0 -5.4937,-0.4229 -10.197,-2.5408 -14.116,-6.2737 -3.6094,-8.4956 -6.7463,-17.21 -9.4105,-26.14 -0.40045,-0.5815 -7.8393,-22.922 -12.025,-33.46 -2.9859,-7.5181 -5.0372,-15.332 -7.3193,-23.004 -1.4871,-4.9993 -3.5846,-9.7218 -5.228,-14.639 -15.327,-45.855 -30.357,-91.904 -45.484,-138.02 -1.1711,-3.57 0.44476,-6.465 3.6597,-8.3649 v 9e-4 z"
           id="path59" /></g><g
         fill="#f59458"
         id="g60"
         transform="matrix(0.26458333,0,0,0.26458333,-35.934669,-125.60885)"><path
           d="m 354.24,1092.5 c 1.1993,4.3349 1.3739,8.8666 0.52283,13.593 -3.3282,6.1093 -6.6397,12.21 -9.9334,18.298 0.15168,0.8071 0.49983,1.5044 1.0457,2.0913 5.0388,2.1161 9.9187,4.382 14.639,6.7965 7.5441,2.5712 15.212,4.837 23.003,6.7964 3.4683,0.5207 6.9534,0.6953 10.456,0.5228 -0.37433,3.3343 -1.0718,6.4711 -2.0912,9.4107 -16.987,-0.6883 -33.717,-2.4313 -50.19,-5.2282 -1.9542,-0.6953 -4.0455,-1.3916 -6.2737,-2.0912 2.4237,-4.8475 4.8631,-9.7265 7.3193,-14.639 -5.8878,-0.1664 -11.116,-2.083 -15.684,-5.7509 3.7642,-0.2425 7.5985,-0.9401 11.502,-2.0913 1.7148,-1.4586 3.2833,-3.0271 4.7053,-4.7052 0.47472,-7.6644 -0.74445,-14.984 -3.6597,-21.958 0.68068,0.6178 1.3781,1.3142 2.0912,2.0913 1.0456,-1.3938 2.0912,-1.3938 3.1368,0 1.2663,0.8091 1.2663,1.68 0,2.614 2.7364,0.8595 5.5251,1.3823 8.3649,1.5684 -0.1673,1.7764 0.006,3.5195 0.52283,5.2281 0.52179,-4.1677 0.69635,-8.3502 0.52276,-12.547 z"
           id="path60" /></g><g
         fill="#fdc078"
         id="g61"
         transform="matrix(0.26458333,0,0,0.26458333,-35.934669,-125.60885)"><path
           d="m 632.38,1145.8 c 3.0614,0.068 5.8502,0.7651 8.3649,2.0912 -1.4357,-0.1642 -2.8304,0.01 -4.1824,0.5228 2.6768,3.7871 4.9426,7.7949 6.7965,12.024 0.69739,7.6675 0.69739,15.336 0,23.004 -1.1649,4.7279 -2.0359,9.608 -2.6141,14.638 -1.0455,0.3482 -1.743,1.0457 -2.0912,2.0913 1.6582,1.7491 2.3557,3.8404 2.0912,6.2737 -1.5338,-2.8839 -2.2302,-2.5357 -2.0912,1.0455 -2.6255,-0.3535 -5.066,-0.3535 -7.3193,0 -0.86574,-0.9566 -1.9114,-1.6529 -3.1369,-2.0911 -4.1156,1.102 -8.2979,1.7995 -12.547,2.0911 -2.3129,0.092 -4.4042,-0.4307 -6.2737,-1.5683 0.7497,-1.7275 1.0979,-3.2959 1.0456,-4.7053 1.3582,0.6167 2.2292,1.6623 2.6141,3.1368 0.71523,-2.0693 0.19238,-3.8124 -1.5684,-5.228 4.2912,-2.4949 8.8218,-4.4116 13.593,-5.7509 -7.9666,1.1376 -15.983,2.3567 -24.049,3.6596 -7.3057,0.1641 -9.0487,-2.7992 -5.2281,-8.8877 9.63,-3.3251 19.389,-6.4619 29.277,-9.4105 -16.56,3.1829 -32.941,6.8425 -49.144,10.979 -4.7388,0.3325 -9.2704,-0.016 -13.593,-1.0457 h 5.2281 c -0.40886,-4.0602 0.2886,-7.8945 2.0913,-11.502 -3.8772,-0.871 -7.7104,-0.5227 -11.502,1.0456 0.11596,-0.6452 0.4642,-1.1681 1.0456,-1.5683 4.401,-0.9213 8.5835,-2.1407 12.547,-3.6597 h 7.3194 c 4.1604,-0.2532 7.9947,-1.2988 11.502,-3.1368 11.898,-2.5369 23.4,-6.1966 34.505,-10.979 -4.5568,-1.2257 -8.3911,-3.4914 -11.502,-6.7965 -0.89515,-3.1505 -2.8118,-3.8479 -5.7509,-2.0912 -0.9411,-1.3282 -2.1603,-2.3737 -3.6597,-3.137 5.4539,-6.1586 11.378,-6.6813 17.775,-1.5683 3.4682,0.5206 6.9532,0.6953 10.456,0.5228 z"
           id="path61" /></g><g
         fill="#f7c881"
         id="g62"
         transform="matrix(0.26458333,0,0,0.26458333,-35.934669,-125.60885)"><path
           d="m 624.01,1142.7 c 2.9842,0.7371 5.773,1.7826 8.365,3.1369 -3.5029,0.1725 -6.9879,0 -10.456,-0.5228 -6.3971,-5.113 -12.322,-4.5903 -17.775,1.5683 1.4994,0.7633 2.7186,1.8088 3.6597,3.137 2.9391,-1.7567 4.8558,-1.0593 5.7509,2.0912 -1.5967,-0.076 -2.6423,0.621 -3.1369,2.0911 -9.8685,7.3684 -20.325,13.642 -31.368,18.821 h -7.3194 c -2.223,-2.7145 -2.5712,-5.6768 -1.0456,-8.8878 10.385,-5.8598 20.493,-12.133 30.323,-18.821 3.7475,-2.3121 7.7553,-3.8804 12.025,-4.7054 3.6482,0.8115 7.3078,1.5078 10.979,2.0913 z"
           id="path62" /></g><g
         fill="#e7ebee"
         id="g63"
         transform="matrix(0.26458333,0,0,0.26458333,-35.934669,-125.60885)"><path
           d="m 689.89,1164.6 h -16.73 c 1.8675,-10.105 3.7842,-20.213 5.751,-30.323 3.5654,10.177 7.2251,20.285 10.979,30.323 z"
           id="path63" /></g><g
         fill="#ee6e30"
         id="g64"
         transform="matrix(0.26458333,0,0,0.26458333,-35.934669,-125.60885)"><path
           d="m 613.56,1152.1 c 3.1106,3.3051 6.9449,5.5708 11.502,6.7965 -11.105,4.7824 -22.607,8.4421 -34.505,10.979 3.785,-2.4103 8.3156,-4.6751 13.593,-6.7965 2.497,-2.7492 4.5882,-5.7113 6.2737,-8.8879 0.49456,-1.4701 1.5402,-2.1676 3.1369,-2.0911 z"
           id="path64" /></g><g
         fill="#f68b3f"
         id="g65"
         transform="matrix(0.26458333,0,0,0.26458333,-35.934669,-125.60885)"><path
           d="m 610.42,1154.2 c -1.6855,3.1766 -3.7767,6.1387 -6.2737,8.8879 -5.2773,2.1214 -9.8079,4.3862 -13.593,6.7965 -3.507,1.838 -7.3413,2.8836 -11.502,3.1368 11.044,-5.1789 21.5,-11.453 31.368,-18.821 z"
           id="path65" /></g><g
         fill="#faaf70"
         id="g66"
         transform="matrix(0.26458333,0,0,0.26458333,-35.934669,-125.60885)"><path
           d="m 640.74,1147.9 c 11.104,2.9393 20.864,8.3418 29.277,16.207 0.99124,0.5049 2.0369,0.6785 3.1369,0.5228 h 16.73 c 13.3,2.8462 26.893,4.241 40.779,4.1825 14.401,1.1962 27.994,5.3784 40.779,12.547 0.82924,-0.8942 0.4811,-1.7663 -1.0456,-2.614 -3.1399,-1.2192 -5.9286,-2.9623 -8.3649,-5.2282 -5.228,-0.7831 -10.108,-2.5261 -14.639,-5.228 6.622,-2.4395 13.245,-4.8799 19.867,-7.3194 2.0913,-1.3938 4.1825,-2.7886 6.2737,-4.1824 -0.9912,-0.5051 -2.0369,-0.6786 -3.1368,-0.5227 1.0603,-1.2277 2.4542,-1.924 4.1825,-2.0914 h 3.1368 c 5.6766,15.731 10.382,31.764 14.116,48.098 0.92946,6.3877 -0.29064,12.312 -3.6596,17.776 h -1.0457 c -11.859,0.2519 -23.709,0.7747 -35.551,1.5684 -2.8492,1.8976 -5.8114,2.4204 -8.8877,1.5685 -2.2554,0.9253 -3.1263,2.6683 -2.614,5.228 -3.2006,5.7864 -5.9894,11.712 -8.365,17.776 -1.4356,0.1641 -2.8304,-0.011 -4.1824,-0.5228 -20.515,-10.955 -40.032,-23.329 -58.554,-37.119 -0.0628,-0.5679 -0.41114,-0.916 -1.0457,-1.0457 -3.0615,3.779 -6.8959,6.2184 -11.502,7.3194 -4.6749,-0.08 -9.2056,0.6178 -13.593,2.0913 -1.3938,-0.3483 -2.7887,-0.6975 -4.1825,-1.0457 1.1941,-3.0312 1.8904,-6.168 2.0912,-9.4105 0.26453,-2.4333 -0.433,-4.5246 -2.0912,-6.2737 0.34817,-1.0456 1.0457,-1.7431 2.0912,-2.0913 0.57826,-5.0305 1.4492,-9.9106 2.6141,-14.638 0.69739,-7.6676 0.69739,-15.336 0,-23.004 -1.8539,-4.2296 -4.1197,-8.2374 -6.7965,-12.024 1.3519,-0.5125 2.7467,-0.687 4.1824,-0.5228 z"
           id="path66" /></g><g
         fill="#ad805c"
         id="g67"
         transform="matrix(0.26458333,0,0,0.26458333,-35.934669,-125.60885)"><path
           d="m 753.67,1162.5 c -2.1069,1.4888 -4.5464,2.1851 -7.3193,2.0912 2.1069,-1.489 4.5462,-2.1853 7.3193,-2.0912 z"
           id="path67" /></g><g
         fill="#cf9f79"
         id="g68"
         transform="matrix(0.26458333,0,0,0.26458333,-35.934669,-125.60885)"><path
           d="m 689.89,1164.6 c 11.71,0.7349 23.386,1.7805 35.028,3.1369 4.7326,-0.1474 9.4379,-0.4966 14.116,-1.0456 -2.4447,1.6101 -5.2334,2.3065 -8.3648,2.0912 -13.886,0.058 -27.479,-1.3363 -40.779,-4.1825 z"
           id="path68" /></g><g
         fill="#f59458"
         id="g69"
         transform="matrix(0.26458333,0,0,0.26458333,-35.934669,-125.60885)"><path
           d="m 770.4,1156.2 c 1.1,-0.1559 2.1456,0.018 3.1368,0.5227 -2.0912,1.3938 -4.1824,2.7886 -6.2737,4.1824 -6.6218,2.4395 -13.245,4.8799 -19.867,7.3194 4.5307,2.7019 9.4107,4.4449 14.639,5.228 2.4363,2.2659 5.225,4.009 8.3649,5.2282 1.5267,0.8477 1.8749,1.7198 1.0456,2.614 -12.785,-7.169 -26.378,-11.351 -40.779,-12.547 3.1314,0.2153 5.9202,-0.4811 8.3648,-2.0912 2.2554,-0.9485 4.6948,-1.6449 7.3194,-2.0913 2.7729,0.094 5.2124,-0.6024 7.3193,-2.0912 5.4174,-2.2743 10.994,-4.3656 16.73,-6.2736 z"
           id="path69" /></g><g
         fill="#7d9d74"
         id="g70"
         transform="matrix(0.26458333,0,0,0.26458333,-35.934669,-125.60885)"><path
           d="m 552.91,1180.3 c -1.8455,1.0048 -3.9368,1.354 -6.2737,1.0457 v 3.1368 c -0.9452,-0.7413 -1.2934,-1.787 -1.0456,-3.1368 2.203,-1.0124 4.6435,-1.3616 7.3193,-1.0457 z"
           id="path70" /></g><g
         fill="#e2d071"
         id="g71"
         transform="matrix(0.26458333,0,0,0.26458333,-35.934669,-125.60885)"><path
           d="m 558.14,1178.2 c -1.1105,1.8133 -1.1105,3.5563 0,5.2282 -3.8616,0.5854 -7.6958,1.283 -11.502,2.0912 v -1.0457 -3.1368 c 2.3369,0.3083 4.4282,-0.041 6.2737,-1.0457 2.106,0.1128 3.8479,-0.5834 5.2281,-2.0912 z"
           id="path71" /></g><g
         fill="#f7a438"
         id="g72"
         transform="matrix(0.26458333,0,0,0.26458333,-35.934669,-125.60885)"><path
           d="m 562.32,1188.7 c -2.9247,-0.4884 -4.3195,-2.2303 -4.1824,-5.228 -1.1105,-1.6719 -1.1105,-3.4149 0,-5.2282 3.7914,-1.5683 7.6246,-1.9166 11.502,-1.0456 -1.8027,3.6073 -2.5001,7.4416 -2.0913,11.502 h -5.2281 z"
           id="path72" /></g><g
         fill="#10c8d4"
         id="g73"
         transform="matrix(0.26458333,0,0,0.26458333,-35.934669,-125.60885)"><path
           d="m 532,1183.4 v 1.0455 6.2737 c -10.851,1.0528 -21.656,2.4476 -32.414,4.1825 v -3.1368 c 2.2575,-1.924 5.0451,-3.1442 8.3649,-3.6597 7.8871,-2.1698 15.903,-3.7382 24.049,-4.7052 z"
           id="path73" /></g><g
         fill="#2f3057"
         id="g74"
         transform="matrix(0.26458333,0,0,0.26458333,-35.934669,-125.60885)"><path
           d="m 535.14,1171.9 h 1.0456 v 9.4105 h 9.4105 c -0.24777,1.3498 0.10043,2.3955 1.0456,3.1368 v 1.0457 c 0.69216,4.4469 -1.3991,6.8863 -6.2737,7.3193 h -3.1368 -3.1369 c 0.10345,-2.8618 -0.24567,-5.6505 -1.0456,-8.365 1.582,-3.9922 2.2795,-8.1747 2.0912,-12.547 z"
           id="path74" /></g><g
         fill="#d5eae8"
         id="g75"
         transform="matrix(0.26458333,0,0,0.26458333,-35.934669,-125.60885)"><path
           d="m 499.59,1191.8 v 3.1368 c -1.2631,0.7676 -2.6569,1.1157 -4.1825,1.0456 V 1191.8 Z"
           id="path75" /></g><g
         fill="#f8b574"
         id="g76"
         transform="matrix(0.26458333,0,0,0.26458333,-35.934669,-125.60885)"><path
           d="m 640.74,1206.4 c -0.2008,3.2425 -0.8971,6.3793 -2.0912,9.4105 1.3938,0.3482 2.7887,0.6974 4.1825,1.0457 4.3874,-1.4735 8.918,-2.1709 13.593,-2.0913 -4.8954,2.064 -10.124,3.2842 -15.684,3.6596 -11.85,0.6974 -23.701,0.6974 -35.551,0 -4.8559,-1.5141 -6.9472,-4.8255 -6.2738,-9.9333 -7.0182,0.6858 -10.503,-2.451 -10.456,-9.4105 -8.5657,2.2093 -12.748,-0.9275 -12.547,-9.4105 16.203,-4.1365 32.583,-7.7961 49.144,-10.979 -9.8883,2.9486 -19.647,6.0854 -29.277,9.4105 -3.8206,6.0885 -2.0776,9.0518 5.2281,8.8877 8.0658,-1.3029 16.083,-2.522 24.049,-3.6596 -4.7711,1.3393 -9.3018,3.256 -13.593,5.7509 1.7608,1.4156 2.2836,3.1587 1.5684,5.228 -0.38487,-1.4745 -1.2559,-2.5201 -2.6141,-3.1368 0.0523,1.4094 -0.2959,2.9778 -1.0456,4.7053 1.8695,1.1376 3.9608,1.6604 6.2737,1.5683 4.2494,-0.2916 8.4317,-0.9891 12.547,-2.0911 1.2255,0.4382 2.2711,1.1345 3.1369,2.0911 2.2533,-0.3535 4.6938,-0.3535 7.3193,0 -0.139,-3.5812 0.5574,-3.9294 2.0912,-1.0455 z"
           id="path76" /></g><g
         fill="#148696"
         id="g77"
         transform="matrix(0.26458333,0,0,0.26458333,-35.934669,-125.60885)"><path
           d="m 653.29,1282.8 c -11.115,14.253 -23.662,27.148 -37.642,38.688 -1.3499,-0.2478 -2.3955,0.1006 -3.1369,1.0456 h -71.102 c -0.34823,-42.527 0,-85.049 1.0456,-127.56 2.2481,2.772 4.6875,5.3861 7.3194,7.8422 34.853,25.792 69.708,51.583 104.56,77.375 -0.7862,0.7017 -1.1355,1.5728 -1.0456,2.614 z"
           id="path77" /></g><g
         fill="#156579"
         id="g78"
         transform="matrix(0.26458333,0,0,0.26458333,-35.934669,-125.60885)"><path
           d="m 558.14,1183.4 c -0.1371,2.9977 1.2577,4.7396 4.1824,5.228 4.3226,1.03 8.8542,1.3782 13.593,1.0457 -0.2008,8.483 3.9817,11.62 12.547,9.4105 -0.0471,6.9595 3.4379,10.096 10.456,9.4105 -0.6734,5.1078 1.4179,8.4192 6.2738,9.9333 11.85,0.6974 23.701,0.6974 35.551,0 5.5607,-0.3754 10.789,-1.5956 15.684,-3.6596 4.606,-1.101 8.4403,-3.5404 11.502,-7.3194 0.63452,0.1297 0.98291,0.4778 1.0457,1.0457 3.7024,7.4092 6.8394,15.078 9.4105,23.004 -4.9175,15.068 -11.888,29.359 -20.912,42.87 -1.304,1.9063 -2.0015,3.9976 -2.0912,6.2737 0,1.3938 -0.6975,2.0913 -2.0913,2.0913 -0.0899,-1.0412 0.2594,-1.9123 1.0456,-2.614 -34.853,-25.792 -69.708,-51.583 -104.56,-77.375 -2.6319,-2.4561 -5.0713,-5.0702 -7.3194,-7.8422 -1.0456,42.516 -1.3938,85.038 -1.0456,127.56 h -1.0456 v -11.502 -118.15 c 4.8746,-0.433 6.9658,-2.8724 6.2737,-7.3193 3.806,-0.8082 7.6402,-1.5058 11.502,-2.0912 z"
           id="path78" /></g><g
         fill="#362649"
         id="g79"
         transform="matrix(0.26458333,0,0,0.26458333,-35.934669,-125.60885)"><path
           d="m 885.42,1219 c -14.578,34.317 -29.565,68.474 -44.961,102.47 v 1.0456 c -2.9549,4.5152 -5.3944,9.3938 -7.3193,14.639 -2.5503,5.0999 -5.1643,10.328 -7.8422,15.684 -1.7126,2.336 -3.9785,3.7298 -6.7964,4.1824 -4.586,0.6128 -9.1168,0.6128 -13.593,0 -41.124,9.6209 -82.252,19.38 -123.38,29.277 3.5843,-11.355 7.7667,-22.509 12.547,-33.46 16.408,-38.925 31.918,-78.31 46.53,-118.15 1.8455,-3.1085 4.4595,-5.3744 7.8421,-6.7965 44.886,-5.9173 89.848,-10.797 134.88,-14.639 1.4231,1.6563 2.1203,3.574 2.0912,5.7509 z"
           id="path79" /></g><g
         fill="#ebaf80"
         id="g80"
         transform="matrix(0.26458333,0,0,0.26458333,-35.934669,-125.60885)"><path
           d="m 787.13,1220 c -13.129,1.2107 -26.374,2.7791 -39.733,4.7052 -2.5647,1.0028 -5.0042,2.2231 -7.3192,3.6597 -0.5123,-2.5597 0.35865,-4.3027 2.614,-5.228 3.0763,0.8519 6.0385,0.3291 8.8877,-1.5685 11.842,-0.7937 23.692,-1.3165 35.551,-1.5684 z"
           id="path80" /></g><g
         fill="#f2eff2"
         id="g81"
         transform="matrix(0.26458333,0,0,0.26458333,-35.934669,-125.60885)"><path
           d="m 668.98,1208.5 c 18.522,13.79 38.04,26.164 58.554,37.119 1.352,0.5122 2.7467,0.6869 4.1824,0.5228 v 2.0912 c -10.238,10.406 -21.042,20.339 -32.414,29.8 -1.1262,0.4915 -2.1718,0.3169 -3.1368,-0.5227 -4.3026,-16.06 -10.228,-31.394 -17.775,-46.007 -2.5712,-7.9259 -5.7081,-15.594 -9.4105,-23.004 z"
           id="path81" /></g><g
         fill="#103d64"
         id="g82"
         transform="matrix(0.26458333,0,0,0.26458333,-35.934669,-125.60885)"><path
           d="m 537.23,1192.8 h 3.1368 v 118.15 c -0.35034,-38.526 -1.396,-76.864 -3.1368,-115.02 v -3.1368 z"
           id="path82" /></g><g
         fill="#f8fbfb"
         id="g83"
         transform="matrix(0.26458333,0,0,0.26458333,-35.934669,-125.60885)"><path
           d="m 322.88,1236.8 h 3.1368 c -0.34607,4.5221 -2.0891,8.3564 -5.2281,11.502 -1.766,-4.3862 -1.0686,-8.2206 2.0912,-11.502 z"
           id="path83" /></g><g
         fill="#fbfcfc"
         id="g84"
         transform="matrix(0.26458333,0,0,0.26458333,-35.934669,-125.60885)"><path
           d="m 311.37,1248.3 c 3.1243,0.6912 6.2611,1.3884 9.4105,2.0913 2.5262,-0.3921 4.9667,-1.0886 7.3193,-2.0913 3.0229,1.0789 5.6369,2.822 7.8422,5.228 -0.34089,4.1512 -0.34089,8.3338 0,12.547 1.7723,3.3408 4.3864,5.7803 7.8421,7.3191 -1.7838,4.4441 -4.2232,8.4519 -7.3193,12.025 -4.7303,-0.9931 -9.6092,-1.6906 -14.639,-2.0912 -9.3561,-7.7332 -14.061,-17.667 -14.116,-29.8 1.0425,-1.9062 2.2627,-3.6491 3.6597,-5.228 z"
           id="path84" /></g><g
         fill="#233769"
         id="g85"
         transform="matrix(0.26458333,0,0,0.26458333,-35.934669,-125.60885)"><path
           d="m 537.23,1196 c 1.7408,38.154 2.7865,76.492 3.1368,115.02 v 11.502 H 537.23 v -126.52 z"
           id="path85" /></g><g
         fill="#f3eff4"
         id="g86"
         transform="matrix(0.26458333,0,0,0.26458333,-35.934669,-125.60885)"><path
           d="m 731.71,1248.3 c -7.0349,19.533 -14.179,39.052 -21.435,58.554 -1.6364,4.0803 -3.553,7.9143 -5.7509,11.502 -0.91284,-13.975 -3.7014,-27.568 -8.365,-40.779 0.9651,0.8396 2.0106,1.0142 3.1368,0.5227 11.372,-9.4604 22.177,-19.394 32.414,-29.8 z"
           id="path86" /></g><g
         fill="#185972"
         id="g87"
         transform="matrix(0.26458333,0,0,0.26458333,-35.934669,-125.60885)"><path
           d="m 678.39,1231.5 c 7.5473,14.612 13.473,29.947 17.775,46.007 4.6636,13.211 7.4522,26.804 8.365,40.779 0.35864,2.0734 -0.33874,3.4682 -2.0913,4.1823 h -89.923 c 0.74136,-0.945 1.787,-1.2934 3.1369,-1.0456 27.527,-0.2654 55.061,-0.6148 82.604,-1.0457 -10.136,-14.57 -24.427,-27.814 -42.87,-39.733 0.0897,-2.2761 0.7872,-4.3674 2.0912,-6.2737 9.0238,-13.511 15.995,-27.802 20.912,-42.87 z"
           id="path87" /></g><g
         fill="#146178"
         id="g88"
         transform="matrix(0.26458333,0,0,0.26458333,-35.934669,-125.60885)"><path
           d="m 655.38,1280.7 c 18.444,11.919 32.734,25.163 42.87,39.733 -27.543,0.4309 -55.077,0.7803 -82.604,1.0457 13.98,-11.539 26.527,-24.435 37.642,-38.688 1.3938,0 2.0913,-0.6975 2.0913,-2.0913 z"
           id="path88" /></g><g
         fill="#362649"
         id="g89"
         transform="matrix(0.26458333,0,0,0.26458333,-35.934669,-125.60885)"><path
           d="m 795.49,1283.8 c 1.8036,0.3586 2.3264,1.4043 1.5684,3.1367 -1.4837,1.0042 -3.0521,1.8753 -4.7052,2.6143 2.1498,0.3252 4.2411,0.8479 6.2737,1.5683 0.34815,0.8709 0.69739,1.7429 1.0456,2.614 -2.3307,4.4932 -4.2472,9.1985 -5.7509,14.116 -0.87095,0.871 -1.743,1.7431 -2.614,2.614 -4.2639,0.7688 -8.4464,1.4651 -12.547,2.0913 -2.3746,-7.4678 -0.98085,-14.091 4.1824,-19.867 5.4801,-1.1228 9.6626,-4.085 12.548,-8.8877 z"
           id="path89" /></g><g
         fill="#fcbd3e"
         id="g90"
         transform="matrix(0.26458333,0,0,0.26458333,-35.934669,-125.60885)"><path
           d="m 467.17,1321.5 c 3.3857,1.3049 7.0453,2.0024 10.979,2.0913 19.682,-0.9043 39.375,-1.2525 59.077,-1.0457 h 3.1368 1.0456 71.102 89.923 c -1.7001,7.0603 -4.1395,13.857 -7.3192,20.39 -15.889,4.6697 -31.922,8.6775 -48.098,12.024 -16.756,-4.1907 -33.834,-7.5022 -51.235,-9.9334 -41.817,-5.5749 -83.642,-11.152 -125.47,-16.73 -2.5294,-1.5779 -3.575,-3.8425 -3.1368,-6.7966 z"
           id="path90" /></g><g
         fill="#f1f1f3"
         id="g91"
         transform="matrix(0.26458333,0,0,0.26458333,-35.934669,-125.60885)"><path
           d="m 404.43,1111.3 c 1.5328,0.8857 2.4049,2.2796 2.6141,4.1825 19.735,68.785 39.775,137.45 60.123,205.99 -0.43818,2.9541 0.60747,5.2187 3.1368,6.7966 41.832,5.5774 83.656,11.155 125.47,16.73 17.401,2.4312 34.479,5.7427 51.235,9.9334 -24.282,5.4614 -48.331,11.387 -72.147,17.776 h -3.1368 c -27.623,7.4595 -55.507,14.081 -83.649,19.867 -1.5455,0.274 -2.9393,-0.074 -4.1825,-1.0456 -1.1261,-2.3306 -1.8235,-4.771 -2.0912,-7.3194 2.5482,4.1648 3.7684,3.4673 3.6596,-2.0913 0.29078,0.9578 0.81354,1.6541 1.5684,2.0913 -0.068,0.458 0.10572,0.8072 0.52283,1.0457 1.6563,-1.4231 3.5738,-2.1206 5.7509,-2.0913 0.69739,0 1.0456,-0.3482 1.0456,-1.0457 1.3498,0.2481 2.3954,-0.1001 3.1368,-1.0456 4.1824,-0.6973 8.3649,-1.3938 12.547,-2.0911 1.8696,-0.8992 3.6126,-1.9448 5.2281,-3.137 4.0215,-0.047 7.8558,-0.9179 11.502,-2.614 -4.1093,-0.2529 -7.9436,-1.124 -11.502,-2.614 6.604,0.8972 13.227,1.0708 19.867,0.5227 0.58135,-0.4001 0.92965,-0.9231 1.0456,-1.5683 3.1368,-0.6975 6.2736,-1.3938 9.4105,-2.0914 3.2906,-0.2475 6.4274,-1.1186 9.4106,-2.614 -25.438,-3.3972 -50.882,-6.7085 -76.33,-9.9333 -0.80304,0.7978 -1.3259,1.8435 -1.5684,3.137 -0.7016,0.7866 -1.5726,1.1355 -2.6141,1.0456 -19.876,-64.516 -39.917,-129 -60.123,-193.44 -2.7614,-4.8561 -6.7703,-8.1676 -12.025,-9.9334 -14.487,-1.5875 -28.776,-3.5041 -42.87,-5.7508 10.976,1.0278 21.781,1.0278 32.414,0 1.0195,-2.9396 1.7169,-6.0764 2.0912,-9.4107 1.6866,-0.4643 2.9068,-1.51 3.6597,-3.1368 2.7625,-8.6107 5.0283,-17.324 6.7964,-26.14 z"
           id="path91" /></g><g
         fill="#42416d"
         id="g92"
         transform="matrix(0.26458333,0,0,0.26458333,-35.934669,-125.60885)"><path
           d="m 885.42,1219 c 0.0292,-2.1769 -0.66809,-4.0946 -2.0912,-5.7509 -45.037,3.8415 -89.998,8.7213 -134.88,14.639 -3.3826,1.4221 -5.9966,3.688 -7.8421,6.7965 -14.612,39.844 -30.122,79.229 -46.53,118.15 0.068,-0.458 -0.1057,-0.8071 -0.5228,-1.0456 -2.6194,3.8769 -6.2789,6.1418 -10.979,6.7964 -11.645,2.7221 -23.147,5.8589 -34.505,9.4106 2.5868,0.1184 4.678,1.1641 6.2737,3.1367 -5.5489,-0.3752 -11.126,-0.3752 -16.73,0 2.1717,0.201 4.2629,0.7237 6.2737,1.5686 -1.4115,1.5894 -2.8053,2.2869 -4.1824,2.0911 2.4393,0.6975 4.8799,1.3938 7.3192,2.0913 0.3065,1.5925 0.3065,2.9873 0,4.1824 h -1.0455 c -5.7248,-1.034 -11.65,-1.3823 -17.776,-1.0454 -17.751,-1.9534 -35.527,-4.3926 -53.326,-7.3194 23.816,-6.3886 47.865,-12.314 72.147,-17.776 16.177,-3.3469 32.209,-7.3547 48.098,-12.024 3.1797,-6.5327 5.6191,-13.329 7.3192,-20.39 1.7526,-0.7141 2.4499,-2.1089 2.0913,-4.1823 2.1979,-3.5877 4.1145,-7.4217 5.7509,-11.502 7.2556,-19.503 14.4,-39.021 21.435,-58.554 v -2.0912 c 2.3756,-6.0636 5.1644,-11.989 8.365,-17.776 2.315,-1.4366 4.7545,-2.6569 7.3192,-3.6597 13.36,-1.9261 26.605,-3.4945 39.733,-4.7052 h 1.0457 c 12.51,-1.6688 25.057,-3.0637 37.642,-4.1825 18.309,-1.9616 36.607,-4.0528 54.895,-6.2736 5.4301,1.2767 6.9984,4.4135 4.7053,9.4105 z"
           id="path92" /></g><g
         fill="#2e2248"
         id="g93"
         transform="matrix(0.26458333,0,0,0.26458333,-35.934669,-125.60885)"><path
           d="m 818.5,1357 c -3.53,1.654 -7.3633,2.3516 -11.502,2.0913 v 3.1367 1.0457 c -41.023,8.9497 -81.802,18.708 -122.34,29.277 -6.1461,1.6363 -12.42,2.3338 -18.821,2.0911 -1.3677,-0.7651 -2.7626,-1.6372 -4.1825,-2.614 -8.0921,-0.4705 -16.109,-1.3413 -24.049,-2.614 v -4.1824 h 14.639 v 1.0456 c 1.8455,1.0049 3.9368,1.3541 6.2737,1.0455 v -4.1824 c 4.2672,-1.9019 7.5786,-0.8562 9.9334,3.1369 2.2021,-1.8728 4.8161,-2.5703 7.842,-2.0913 v 4.1824 c 2.1467,0.1026 3.8898,-0.5947 5.2282,-2.0911 41.13,-9.8977 82.258,-19.656 123.38,-29.277 4.4762,0.6128 9.007,0.6128 13.593,0 z"
           id="path93" /></g><g
         fill="#2e3345"
         id="g94"
         transform="matrix(0.26458333,0,0,0.26458333,-35.934669,-125.60885)"><path
           d="m 478.67,1354.9 c 25.448,3.2248 50.892,6.5361 76.33,9.9333 -2.9832,1.4954 -6.12,2.3665 -9.4106,2.614 -6.2832,0.1736 -12.557,-9e-4 -18.821,-0.5226 -0.3482,-0.3482 -0.6974,-0.6976 -1.0456,-1.0457 1.2254,-0.4382 2.2711,-1.1345 3.1369,-2.0913 -0.34823,-0.1746 -0.6975,-0.3482 -1.0457,-0.5227 -3.2832,1.5913 -6.7682,2.4626 -10.456,2.614 6.1251,2.0088 12.399,3.228 18.821,3.6597 -0.11595,0.6452 -0.46425,1.1682 -1.0456,1.5683 -6.6397,0.5481 -13.263,0.3745 -19.867,-0.5227 -11.076,-1.5683 -22.23,-3.4851 -33.46,-5.751 -0.4779,-0.4326 -0.8271,-0.9555 -1.0457,-1.5683 1.3938,-0.3482 2.7887,-0.6975 4.1825,-1.0457 10.103,1.3208 20.211,2.1917 30.323,2.614 -11.87,-1.8579 -23.721,-3.6008 -35.551,-5.228 -0.92017,-1.4177 -1.2694,-2.9863 -1.0456,-4.7053 z"
           id="path94" /></g><g
         fill="#9598a7"
         id="g95"
         transform="matrix(0.26458333,0,0,0.26458333,-35.934669,-125.60885)"><path
           d="m 545.59,1367.5 c -3.1369,0.6976 -6.2737,1.3939 -9.4105,2.0914 -6.4222,-0.4317 -12.696,-1.6509 -18.821,-3.6597 3.6879,-0.1514 7.1729,-1.0227 10.456,-2.614 0.3482,0.1745 0.69747,0.3481 1.0457,0.5227 -0.8658,0.9568 -1.9115,1.6531 -3.1369,2.0913 0.3482,0.3481 0.6974,0.6975 1.0456,1.0457 6.2642,0.5217 12.538,0.6962 18.821,0.5226 z"
           id="path95" /></g><g
         fill="#303346"
         id="g96"
         transform="matrix(0.26458333,0,0,0.26458333,-35.934669,-125.60885)"><path
           d="m 515.27,1370.6 c 3.5582,1.49 7.3924,2.3611 11.502,2.614 -3.646,1.6961 -7.4803,2.5672 -11.502,2.614 -10.438,-1.2504 -20.894,-2.4697 -31.368,-3.6596 -0.87512,-1.0569 -1.2233,-2.2771 -1.0456,-3.6597 10.804,0.6975 21.61,1.3938 32.414,2.0913 z"
           id="path96" /></g><g
         fill="#d8dbe3"
         id="g97"
         transform="matrix(0.26458333,0,0,0.26458333,-35.934669,-125.60885)"><path
           d="m 478.67,1354.9 c -0.22376,1.719 0.12542,3.2876 1.0456,4.7053 11.83,1.6272 23.681,3.3701 35.551,5.228 -10.112,-0.4223 -20.22,-1.2932 -30.323,-2.614 -1.3938,0.3482 -2.7887,0.6975 -4.1825,1.0457 0.21856,0.6128 0.56776,1.1357 1.0457,1.5683 11.23,2.2659 22.383,4.1827 33.46,5.751 -10.804,-0.6975 -21.61,-1.3938 -32.414,-2.0913 -0.17774,1.3826 0.17046,2.6028 1.0456,3.6597 10.474,1.1899 20.93,2.4092 31.368,3.6596 -1.6154,1.1922 -3.3585,2.2378 -5.2281,3.137 1.1522,-1.6645 0.45478,-2.5356 -2.0912,-2.614 -8.0314,-1.165 -16.048,-1.3394 -24.049,-0.523 0.55939,1.8414 1.605,3.2354 3.1368,4.1827 3.1557,-0.1724 6.2926,0 9.4106,0.5227 -0.95776,0.2907 -1.6542,0.8137 -2.0912,1.5683 0,0.6975 -0.3482,1.0457 -1.0456,1.0457 -0.80927,-0.6763 -1.8549,-1.0247 -3.1368,-1.0457 -1.5999,0.1465 -2.6454,0.844 -3.1369,2.0913 -0.75488,-0.4372 -1.2776,-1.1335 -1.5684,-2.0913 0.10877,5.5586 -1.1114,6.2561 -3.6596,2.0913 -3.0678,-8.072 -5.5073,-16.437 -7.3193,-25.095 1.0414,0.09 1.9125,-0.259 2.6141,-1.0456 0.24256,-1.2935 0.76538,-2.3392 1.5684,-3.137 z"
           id="path97" /></g><g
         fill="#262b3f"
         id="g98"
         transform="matrix(0.26458333,0,0,0.26458333,-35.934669,-125.60885)"><path
           d="m 510.04,1379 c -4.1824,0.6973 -8.3649,1.3938 -12.547,2.0911 0.437,-0.7547 1.1335,-1.2776 2.0912,-1.5684 -4.3801,-0.8489 -8.5626,-0.6743 -12.547,0.523 -1.5318,-0.9473 -2.5774,-2.3413 -3.1368,-4.1827 8.0011,-0.8164 16.018,-0.642 24.049,0.523 2.546,0.078 3.2434,0.9495 2.0912,2.614 z"
           id="path98" /></g><g
         fill="#2e2248"
         id="g99"
         transform="matrix(0.26458333,0,0,0.26458333,-35.934669,-125.60885)"><path
           d="m 571.73,1372.7 h 3.1368 c 17.8,2.9268 35.575,5.366 53.326,7.3194 -3.6753,0.2216 -7.1603,0.2216 -10.456,0 -1.6843,0.8574 -2.3818,2.2524 -2.0912,4.1823 -2.4134,0.4331 -4.8538,0.7813 -7.3193,1.0457 -3.8438,-0.7017 -7.678,-1.3989 -11.502,-2.0913 -2.0912,-0.3482 -4.1825,-0.6975 -6.2737,-1.0457 -1.7922,-1.2944 -3.8834,-1.9919 -6.2738,-2.091 -1.4838,-0.9944 -3.2258,-1.3426 -5.228,-1.0457 -2.7092,-1.862 -5.1497,-3.9534 -7.3194,-6.2737 z"
           id="path99" /></g><g
         fill="#42416d"
         id="g100"
         transform="matrix(0.26458333,0,0,0.26458333,-35.934669,-125.60885)"><path
           d="m 694.07,1352.8 c -4.7806,10.951 -8.963,22.104 -12.547,33.46 -1.3384,1.4964 -3.0814,2.1937 -5.2282,2.0911 v -4.1824 c -3.0259,-0.479 -5.6399,0.2185 -7.842,2.0913 -2.3548,-3.9931 -5.6662,-5.0388 -9.9334,-3.1369 -0.48313,-1.4429 -1.5287,-2.1404 -3.1368,-2.0913 -1.6771,0.4592 -3.2456,1.1567 -4.7053,2.0913 -1.19,-0.5112 -2.4102,-0.8596 -3.6597,-1.0457 v -1.0456 c 0.3065,-1.1951 0.3065,-2.5899 0,-4.1824 -2.4393,-0.6975 -4.8799,-1.3938 -7.3192,-2.0913 1.377,0.1958 2.7708,-0.5017 4.1824,-2.0911 -2.0108,-0.8449 -4.102,-1.3676 -6.2737,-1.5686 5.6035,-0.3752 11.181,-0.3752 16.73,0 -1.5957,-1.9726 -3.6869,-3.0183 -6.2737,-3.1367 11.359,-3.5517 22.86,-6.6885 34.505,-9.4106 4.7001,-0.6546 8.3596,-2.9195 10.979,-6.7964 0.4171,0.2385 0.5908,0.5876 0.5228,1.0456 z"
           id="path100" /></g><g
         fill="#787c89"
         id="g101"
         transform="matrix(0.26458333,0,0,0.26458333,-35.934669,-125.60885)"><path
           d="m 487.04,1380 c 3.9849,-1.1973 8.1673,-1.3719 12.547,-0.523 -0.95775,0.2908 -1.6542,0.8137 -2.0912,1.5684 -0.7414,0.9455 -1.787,1.2937 -3.1368,1.0456 0.43701,-0.7546 1.1335,-1.2776 2.0912,-1.5683 -3.118,-0.5205 -6.2549,-0.6951 -9.4106,-0.5227 z"
           id="path101" /></g><g
         fill="#b8c0ca"
         id="g102"
         transform="matrix(0.26458333,0,0,0.26458333,-35.934669,-125.60885)"><path
           d="m 579.05,1379 c 2.0022,-0.2969 3.7442,0.051 5.228,1.0457 -3.8667,0.054 -7.7008,0.4035 -11.502,1.0454 1.7922,-1.2945 3.8834,-1.9917 6.2737,-2.0911 z"
           id="path102" /></g><g
         fill="#2e2248"
         id="g103"
         transform="matrix(0.26458333,0,0,0.26458333,-35.934669,-125.60885)"><path
           d="m 628.2,1380 c 6.1251,-0.3369 12.051,0.011 17.776,1.0454 h -7.3194 v 3.1369 c 3.3439,0.5606 6.1325,-0.1367 8.3649,-2.0913 1.2495,0.1861 2.4697,0.5345 3.6597,1.0457 1.4597,-0.9346 3.0282,-1.6321 4.7053,-2.0913 1.6081,-0.049 2.6537,0.6484 3.1368,2.0913 v 4.1824 c -2.3369,0.3086 -4.4282,-0.041 -6.2737,-1.0455 h 5.228 v -3.1369 c -2.2984,-0.3972 -4.0413,0.3 -5.228,2.0913 h -14.639 v 4.1824 c 7.9404,1.2727 15.957,2.1435 24.049,2.614 1.4199,0.9768 2.8148,1.8489 4.1825,2.614 -11.513,-1.3081 -23.015,-2.7029 -34.505,-4.1824 h -5.228 c -9.7703,-2.4394 -19.529,-4.8799 -29.277,-7.3193 3.8238,0.6924 7.658,1.3896 11.502,2.0913 2.4655,-0.2644 4.906,-0.6126 7.3193,-1.0457 -0.29067,-1.9299 0.40684,-3.3249 2.0912,-4.1823 3.2959,0.2216 6.7809,0.2216 10.456,0 z"
           id="path103" /></g><g
         fill="#7b7c6f"
         id="g104"
         transform="matrix(0.26458333,0,0,0.26458333,-35.934669,-125.60885)"><path
           d="m 273.73,1377.9 h 1.0456 v 4.1823 c 1.3499,-0.2478 2.3956,0.1004 3.1368,1.0457 H 273.73 Z"
           id="path104" /></g><g
         fill="#243556"
         id="g105"
         transform="matrix(0.26458333,0,0,0.26458333,-35.934669,-125.60885)"><path
           d="m 274.78,1377.9 c 8.275,1.7275 16.64,2.7729 25.095,3.1367 0.2802,1.6721 -0.069,3.0659 -1.0456,4.1826 h -2.0912 c -4.95,-1.72 -10.178,-2.4163 -15.684,-2.0913 h -3.1369 c -0.74127,-0.9453 -1.7869,-1.2935 -3.1368,-1.0457 V 1377.9 Z"
           id="path105" /></g><g
         fill="#2e2248"
         id="g106"
         transform="matrix(0.26458333,0,0,0.26458333,-35.934669,-125.60885)"><path
           d="m 645.97,1381.1 h 1.0455 v 1.0456 c -2.2324,1.9546 -5.021,2.6519 -8.3649,2.0913 V 1381.1 Z"
           id="path106" /></g><g
         fill="#333640"
         id="g107"
         transform="matrix(0.26458333,0,0,0.26458333,-35.934669,-125.60885)"><path
           d="m 493.31,1383.1 c -2.1771,-0.029 -4.0946,0.6682 -5.7509,2.0913 -0.41711,-0.2385 -0.59082,-0.5877 -0.52283,-1.0457 0.49146,-1.2473 1.537,-1.9448 3.1369,-2.0913 1.2819,0.021 2.3276,0.3694 3.1368,1.0457 z"
           id="path107" /></g><g
         fill="#b8c0ca"
         id="g108"
         transform="matrix(0.26458333,0,0,0.26458333,-35.934669,-125.60885)"><path
           d="m 571.73,1372.7 c 2.1696,2.3203 4.6102,4.4117 7.3194,6.2737 -2.3903,0.099 -4.4815,0.7966 -6.2737,2.0911 -31.648,7.4429 -63.016,15.808 -94.105,25.095 -4.0643,-0.1525 -7.8986,-0.85 -11.502,-2.0913 10.63,2.2723 17.601,-1.561 20.912,-11.502 28.143,-5.7854 56.026,-12.407 83.649,-19.867 z"
           id="path108" /></g><g
         fill="#533f3d"
         id="g109"
         transform="matrix(0.26458333,0,0,0.26458333,-35.934669,-125.60885)"><path
           d="m 281.05,1383.1 c 5.5062,-0.325 10.734,0.3713 15.684,2.0913 -5.4696,0.059 -10.698,-0.6389 -15.684,-2.0913 z"
           id="path109" /></g><g
         fill="#2e2248"
         id="g111"
         transform="matrix(0.26458333,0,0,0.26458333,-35.934669,-125.60885)"><path
           d="m 652.25,1386.3 v -1.0456 c 1.1868,-1.7913 2.9297,-2.4885 5.228,-2.0913 v 3.1369 z"
           id="path110" /><path
           d="m 661.66,1384.2 c 1.9302,-0.2905 3.3251,0.4068 4.1825,2.0913 -1.2433,0.9712 -2.6371,1.3196 -4.1825,1.0455 z"
           id="path111" /></g><g
         fill="#a19b9b"
         id="g112"
         transform="matrix(0.26458333,0,0,0.26458333,-35.934669,-125.60885)"><path
           d="m 308.24,1387.3 c 10.794,0.6286 21.598,1.1516 32.414,1.5686 2.314,1.6896 4.7544,2.9099 7.3193,3.6596 h -2.0912 c -12.783,-1.0727 -25.33,-2.8159 -37.642,-5.2282 z"
           id="path112" /></g><g
         fill="#8899ac"
         id="g113"
         transform="matrix(0.26458333,0,0,0.26458333,-35.934669,-125.60885)"><path
           d="m 299.87,1381.1 c 51.377,6.9001 102.61,13.871 153.71,20.912 h -4.1824 c -0.0701,1.5257 0.27806,2.9195 1.0456,4.1826 -6.3992,0.2425 -12.673,-0.4548 -18.821,-2.0913 -4.6206,-1.539 -9.5006,-2.2353 -14.639,-2.0913 -23.044,-2.9118 -46.048,-6.0488 -69.011,-9.4104 -2.5649,-0.7497 -5.0053,-1.97 -7.3193,-3.6596 -10.816,-0.417 -21.62,-0.94 -32.414,-1.5686 -3.3742,-0.1839 -6.511,-0.8814 -9.4105,-2.0911 0.97662,-1.1167 1.3258,-2.5105 1.0456,-4.1826 z"
           id="path113" /></g><g
         fill="#342745"
         id="g114"
         transform="matrix(0.26458333,0,0,0.26458333,-35.934669,-125.60885)"><path
           d="m 453.58,1402 c 4.4857,0.9673 9.0174,1.6638 13.593,2.0913 3.6031,1.2413 7.4374,1.9388 11.502,2.0913 -1.2338,2.523 -3.3251,3.5687 -6.2738,3.1368 h -5.228 c -5.3724,-1.4961 -10.949,-2.5418 -16.73,-3.1368 -0.76753,-1.2631 -1.1157,-2.6569 -1.0456,-4.1826 z"
           id="path114" /></g><g
         fill="#14c5d2"
         id="g115"
         transform="matrix(0.26458333,0,0,0.26458333,-35.934669,-125.60885)"><path
           d="m 475.93,944.31 -4e-5,1.2e-4 v 4e-5 -4e-5 l 4e-5,-1.2e-4 -4e-5,1.2e-4 v 4e-5 q 0,-4e-5 4e-5,-1.6e-4"
           id="path115" /></g><g
         id="g116"
         transform="matrix(0.26458333,0,0,0.26458333,-35.934669,-125.60885)"><path
           d="m 454.23,1200.7 22.505,-4.2068 22.504,-4.2064 q 0.25952,1.3885 0.5191,2.7769 -22.504,4.2069 -45.01,8.4137 -0.25953,-1.3887 -0.5191,-2.7774"
           id="path116" /></g><g
         fill="#14c5d2"
         id="g117"
         transform="matrix(0.26458333,0,0,0.26458333,-35.934669,-125.60885)"><path
           d="m 492.43,1190.1 65.897,-12.95 q 0.89646,4.5625 1.7931,9.1247 -32.948,6.4754 -65.897,12.951 -0.89675,-4.5628 -1.7934,-9.1256"
           id="path117" /></g><g
         id="g120"
         transform="matrix(0.26458333,0,0,0.26458333,-35.934669,-125.60885)"><path
           d="m 454.66,1200.6 -2.4621,-0.3628 -3.5117,0.8401 0.87792,4.1819 3.4927,-0.3819 2.1758,-1.5658 -0.57256,-2.7115"
           id="path118" /><path
           d="m 338.36,908.13 -0.64707,22.885 -0.64737,22.885 q -1.4117,-0.04 -2.8237,-0.0798 0.64684,-22.885 1.294,-45.77 1.4121,0.04 2.8242,0.08"
           id="path119" /><path
           d="m 338.35,908.57 0.87503,-2.3296 -0.0784,-3.6098 -4.273,-0.0264 -0.3653,3.4943 1.0703,2.4578 2.7714,0.0137"
           id="path120" /></g><g
         fill="#14c5d2"
         id="g121"
         transform="matrix(0.26458333,0,0,0.26458333,-35.934669,-125.60885)"><path
           d="m 340.65,947.71 -0.6387,33.572 -0.63847,33.573 q -4.6488,-0.089 -9.2976,-0.1769 0.63814,-33.573 1.2762,-67.145 4.6494,0.0884 9.2985,0.17684"
           id="path121" /></g><g
         fill="#2e2248"
         id="g122"
         transform="matrix(0.26458333,0,0,0.26458333,-35.934669,-125.60885)"><path
           d="m 578.8,1374.7 v 10e-5 l 123.22,7.0034 q -10.855,5.0989 -21.711,10.198 l -101.51,-17.201"
           id="path122" /></g></g></g></svg>
